<svg id="Layer_1" data-name="Layer 1" xmlns="http://www.w3.org/2000/svg" viewBox="0 0 245 206"><defs><style>.cls-1{fill:#ffdd6d;stroke:#000;stroke-miterlimit:10;stroke-width:7px;}</style></defs><title>Artboard 1</title><rect class="cls-1" width="245" height="206"/><path d="M35.25,80.22h2.6l-.25,24.35,13.55-13.7,1.8,1.8-8.1,8.25,7,15.5-2.4,1.1-6.55-14.6-5.35,5.4-.1,8.65h-2.6Z"/><path d="M59,85.42a2.2,2.2,0,0,1,.25-2.55,2.35,2.35,0,0,1,2.2-1.1,3.3,3.3,0,0,1,.8-.1,3.15,3.15,0,0,1,2.4,4.6,1.9,1.9,0,0,1-.45.55A2.55,2.55,0,0,1,61.6,88a2.46,2.46,0,0,1-1.75-.8,3.17,3.17,0,0,1-.85-1.7A0,0,0,0,1,59,85.42Zm3.8,6.2a20.82,20.82,0,0,1,.63,3.67q.18,2,.18,3.5t-.08,3.77q-.07,2.3-.08,3.3,0,1.8.15,5.35t.15,5.35a1.3,1.3,0,1,1-2.6,0q0-1.8-.15-5.35t-.15-5.35q0-1.2.07-3.45T61,98.79q0-1.37-.15-3.17a17.94,17.94,0,0,0-.55-3.3,1.22,1.22,0,0,1,.13-1,1.33,1.33,0,0,1,.8-.6,1.18,1.18,0,0,1,1,.13A1.33,1.33,0,0,1,62.75,91.62Z"/><path d="M70.15,106.67l-.3-2.6,4.95-.6L74,82.17l2.6-.1.8,21.1,5.45-.65.3,2.6-5.65.65.45,11.7-2.6.1-.45-11.5Z"/><path d="M112.5,97.22a7.82,7.82,0,0,0-3.37-4,9.9,9.9,0,0,0-5.18-1.25,12.91,12.91,0,0,0-5.5,1.38A13.06,13.06,0,0,0,94,96.77a13.5,13.5,0,0,0-2.3,4.65,13.76,13.76,0,0,0-.5,5.15,8.92,8.92,0,0,0,1.65,4.55,7.13,7.13,0,0,0,3.9,2.55,27.64,27.64,0,0,0,8.4,1,9.15,9.15,0,0,0,4.27-1,13.86,13.86,0,0,0,3.63-3.23,1.31,1.31,0,0,1,.9-.45,1.22,1.22,0,0,1,1,.3,1.31,1.31,0,0,1,.45.9,1.22,1.22,0,0,1-.3,1,17.69,17.69,0,0,1-4.45,3.8,11,11,0,0,1-5.45,1.3,29.88,29.88,0,0,1-9.1-1.15,9.39,9.39,0,0,1-5.25-3.48,11.76,11.76,0,0,1-2.2-5.82,16.53,16.53,0,0,1,.6-6.2,15.33,15.33,0,0,1,2.8-5.5A14.47,14.47,0,0,1,97.27,91a16.28,16.28,0,0,1,6.62-1.65,12.18,12.18,0,0,1,6.57,1.63,10.41,10.41,0,0,1,4.43,5.27,1.3,1.3,0,0,1,0,1,1.21,1.21,0,0,1-.7.7,1.3,1.3,0,0,1-1,0A1.2,1.2,0,0,1,112.5,97.22Z"/><path d="M122.55,82.12h2.6l0,13.15a16.23,16.23,0,0,1,2.1-2.6q3-2.9,8.2-2.65a14.1,14.1,0,0,1,4.4,1,9.67,9.67,0,0,1,3.5,2.35q3.1,3.35,3.6,11.5.15,2.6,0,6.4,0,.7,0,1.85t0,2q0,.85,0,1.55a1.3,1.3,0,1,1-2.6,0q0-.7,0-1.58t0-2q0-1.15,0-1.85.1-3.7,0-6.2-.45-7.2-2.9-9.85a8.81,8.81,0,0,0-6.15-2.55A8.06,8.06,0,0,0,129,94.57,13.06,13.06,0,0,0,126.5,98a12,12,0,0,0-1.3,4.07,3.71,3.71,0,0,1-.15.45l-.1,15.15h-2.6Z"/><path d="M151.55,109.12l-.1-2.6H152a7.63,7.63,0,0,1,0-1.25,19.14,19.14,0,0,1,3.1-10.2q3.25-4.95,9.75-4.85,8.15.15,11.4,4.9,2.8,4.15,2,12.25a1.24,1.24,0,0,1-.48.85,1.29,1.29,0,0,1-1,.3.38.38,0,0,1-.15,0l-21.7.55a8.84,8.84,0,0,0,2.5,4.55,7.16,7.16,0,0,0,3.05,1.75,23,23,0,0,0,4.3.6,13.18,13.18,0,0,0,4.65-.45,12.93,12.93,0,0,0,4-2.25,1.19,1.19,0,0,1,.93-.3,1.33,1.33,0,0,1,1.17,1.42,1.23,1.23,0,0,1-.5.88,14.45,14.45,0,0,1-4.8,2.72,16.29,16.29,0,0,1-5.55.58,24.9,24.9,0,0,1-5.1-.75,9,9,0,0,1-4-2.3,11.84,11.84,0,0,1-3.35-6.35Zm3-2.7,21.15-.5q.45-6.25-1.65-9.35-2.45-3.65-9.25-3.75-5.1-.1-7.55,3.65a16.45,16.45,0,0,0-2.7,8.9A5.54,5.54,0,0,0,154.6,106.42Z"/><path d="M184.3,90.72l2.6-.1.15,3.25a14.58,14.58,0,0,1,7.3-5,18.35,18.35,0,0,1,4.15-.7,8.55,8.55,0,0,1,4,.83,8.39,8.39,0,0,1,3.35,2.82,16.72,16.72,0,0,1,2.23,4.13,21.76,21.76,0,0,1,1.13,4.12,26.41,26.41,0,0,1,.27,4.35,41.58,41.58,0,0,1-.22,4.2l-.5,4.25q-.3,2.55-.4,4a1.31,1.31,0,0,1-.45.9,1.22,1.22,0,0,1-1,.3,1.31,1.31,0,0,1-.9-.45,1.22,1.22,0,0,1-.3-1q.15-1.85.45-4.3l.4-4.2q.2-1.6.25-3.83a23.29,23.29,0,0,0-.2-3.9,17.31,17.31,0,0,0-1-3.58,16.32,16.32,0,0,0-1.92-3.6,5.89,5.89,0,0,0-3.72-2.4,9,9,0,0,0-4.93.4,12.89,12.89,0,0,0-4.6,2.63,8.68,8.68,0,0,0-2.65,3.83,1.23,1.23,0,0,1-.6.7l1,18.7-2.6.1Z"/></svg>