<svg id="Layer_1" data-name="Layer 1" xmlns="http://www.w3.org/2000/svg" viewBox="0 0 245 206"><defs><style>.cls-1{fill:#f14950;stroke:#000;stroke-miterlimit:10;stroke-width:7px;}.cls-2{fill:#fff;}</style></defs><title>Artboard 1</title><rect class="cls-1" width="245" height="206"/><path class="cls-2" d="M54.5,91.82a1.14,1.14,0,0,1,.4.2,10,10,0,0,1,1.5,1.65,15.1,15.1,0,0,1,.93,1.4q.27.5.88,1.8a17,17,0,0,1,1.45,6.25,16.18,16.18,0,0,1-.95,6.35,12.9,12.9,0,0,1-3.7,5.35,11.31,11.31,0,0,1-6.15,2.6,28,28,0,0,1-5.35-.15A14.72,14.72,0,0,1,34,113a13.73,13.73,0,0,1-4.05-9.75A16.79,16.79,0,0,1,31.05,97a14.8,14.8,0,0,1,3.05-4.87A14.31,14.31,0,0,1,38.53,89a14.08,14.08,0,0,1,5.23-1.27,14.47,14.47,0,0,1,5.52.88A15.24,15.24,0,0,1,54.5,91.82Zm-.7,3a14.3,14.3,0,0,0-4.4-3.27,11.68,11.68,0,0,0-4.73-1.18,11.38,11.38,0,0,0-4.55.85,11.58,11.58,0,0,0-6.6,6.65,14.23,14.23,0,0,0-1,5.45,11.19,11.19,0,0,0,3.35,8,12.14,12.14,0,0,0,7.95,3.45,22.16,22.16,0,0,0,4.75.15,8.92,8.92,0,0,0,4.8-2,9.88,9.88,0,0,0,2.9-4.25,14.18,14.18,0,0,0,.8-5.35A13.08,13.08,0,0,0,55.8,98a19.71,19.71,0,0,0-1.55-2.9A1.32,1.32,0,0,1,53.8,94.77Z"/><path class="cls-2" d="M67.2,92.07l2.6-.1L70,96.72a10.9,10.9,0,0,1,5.45-4.4,6.65,6.65,0,0,1,5.25.25,9,9,0,0,1,4.15,4.9,1.3,1.3,0,0,1,0,1,1.21,1.21,0,0,1-.7.7,1.3,1.3,0,0,1-1,0,1.2,1.2,0,0,1-.7-.7,6.56,6.56,0,0,0-2.9-3.55,4,4,0,0,0-3.25-.15,8.47,8.47,0,0,0-3.4,2.45,10.32,10.32,0,0,0-2.25,4.1,1.07,1.07,0,0,1-.5.7l.5,15.35-2.6.1Z"/><path class="cls-2" d="M113.9,111.92a13.72,13.72,0,0,1-4.7,3.67,19.85,19.85,0,0,1-6.15,1.92,18.29,18.29,0,0,1-5,0,10.49,10.49,0,0,1-4.5-1.8,7.69,7.69,0,0,1-3-3.85,4.14,4.14,0,0,1-.33-1.3q-.07-.75-.07-1.2t0-1.28c0-.55,0-.86,0-.92v-.55q0-2.05.13-3.2a16.2,16.2,0,0,1,.55-3,11.86,11.86,0,0,1,1.38-3.25A16.7,16.7,0,0,1,97,92.34a18,18,0,0,1,6.35-2.82q6.25-1.35,10.6,2.2a1.29,1.29,0,0,1,1.1-.2,1.59,1.59,0,0,1,.9.65q.1.2.2.45t.2.85q.1.7.15,2.05,0,1.15,0,2.95a22.53,22.53,0,0,1,0,6.35q-.05,1.9,0,2.6,0,5.9.2,8.55a1.22,1.22,0,0,1-.3,1,1.31,1.31,0,0,1-.9.45,1.21,1.21,0,0,1-1-.3,1.3,1.3,0,0,1-.45-.9Q114,114.22,113.9,111.92Zm0-13.25q-.25-1.7-.4-3.15l-.1-.6a8.23,8.23,0,0,0-4.25-2.77,11.13,11.13,0,0,0-5.3-.08,15.64,15.64,0,0,0-5.4,2.4,14.1,14.1,0,0,0-4.05,4.15,9.25,9.25,0,0,0-1.12,2.75,14.29,14.29,0,0,0-.42,2.55q-.05,1-.1,3.25,0,.4,0,1.13t0,1a7.74,7.74,0,0,0,0,.8,4.79,4.79,0,0,0,.15.83,5.79,5.79,0,0,0,3.55,3.42,12.29,12.29,0,0,0,6.2.53,16,16,0,0,0,6.3-2.17,8.87,8.87,0,0,0,3.8-4,17.67,17.67,0,0,0,1.15-4.15q0-3.75,0-5.85Z"/><path class="cls-2" d="M122.65,90.72l2.6-.1.15,3.25a14.58,14.58,0,0,1,7.3-5,18.36,18.36,0,0,1,4.15-.7,8.55,8.55,0,0,1,4,.83,8.38,8.38,0,0,1,3.35,2.82,16.75,16.75,0,0,1,2.23,4.13,21.9,21.9,0,0,1,1.13,4.12,26.41,26.41,0,0,1,.27,4.35,41.29,41.29,0,0,1-.22,4.2l-.5,4.25q-.3,2.55-.4,4a1.31,1.31,0,0,1-.45.9,1.22,1.22,0,0,1-.95.3,1.31,1.31,0,0,1-.9-.45,1.21,1.21,0,0,1-.3-1q.15-1.85.45-4.3l.4-4.2q.2-1.6.25-3.83a23.29,23.29,0,0,0-.2-3.9,17.36,17.36,0,0,0-1-3.58,16.33,16.33,0,0,0-1.93-3.6,5.89,5.89,0,0,0-3.72-2.4,9,9,0,0,0-4.93.4,12.89,12.89,0,0,0-4.6,2.63,8.68,8.68,0,0,0-2.65,3.83,1.23,1.23,0,0,1-.6.7l1,18.7-2.6.1Z"/><path class="cls-2" d="M180.25,90.77a30.24,30.24,0,0,0-.3,3.82q-.05,2.18,0,3.55t.28,4.37q.2,3,.3,4,.1,2.9.13,5.55a28.42,28.42,0,0,1-.5,5.47,19.27,19.27,0,0,1-1.67,5.13,9.48,9.48,0,0,1-3.58,4,13.07,13.07,0,0,1-5.27,2,12.34,12.34,0,0,1-5.62-.5,9,9,0,0,1-4.43-3.1,1.36,1.36,0,0,1-.22-1,1.25,1.25,0,0,1,.5-.85,1.21,1.21,0,0,1,1-.25,1.38,1.38,0,0,1,.88.47,6.34,6.34,0,0,0,3.22,2.25,10.47,10.47,0,0,0,8.55-1.15,7.3,7.3,0,0,0,2.73-2.95,22.34,22.34,0,0,0,1.85-8.1q-3.55,4.25-11,4.25h-2.85l-1.43,0q-1,0-1.62-.12t-1.42-.22q-.82-.15-1.52-.35a8.39,8.39,0,0,1-4.55-3.37,11.62,11.62,0,0,1-1.8-5.52,17.79,17.79,0,0,1,.4-5.58A20.39,20.39,0,0,1,154,97.42a11.79,11.79,0,0,1,3-3.52,13.7,13.7,0,0,1,4.08-2.23,22.11,22.11,0,0,1,4.4-1,22.87,22.87,0,0,1,4.4-.12,14.4,14.4,0,0,1,7.45,2.3q.1-1.3.25-2.45a1.27,1.27,0,0,1,.52-.85,1.32,1.32,0,0,1,1-.23,1.19,1.19,0,0,1,.85.5A1.42,1.42,0,0,1,180.25,90.77Zm-3.15,5.35q-2.25-2.65-7.35-3a18.53,18.53,0,0,0-8,1.1,9.83,9.83,0,0,0-5.45,4.5,17.95,17.95,0,0,0-2,9.2q.45,5.3,4.6,6.6a7.44,7.44,0,0,0,1.25.33l1.2.2a12.79,12.79,0,0,0,1.45.1l1.25,0H167q6.6,0,9.25-3.6a1.16,1.16,0,0,1,.85-.52,1.24,1.24,0,0,1,1,.22h0q0-1.95-.15-4.55-.1-1.1-.25-3.25t-.25-3.9q-.1-1.75-.15-3.25Z"/><path class="cls-2" d="M185.25,109.12l-.1-2.6h.55a7.63,7.63,0,0,1,0-1.25,19.14,19.14,0,0,1,3.1-10.2q3.25-4.95,9.75-4.85,8.15.15,11.4,4.9,2.8,4.15,2,12.25a1.24,1.24,0,0,1-.48.85,1.29,1.29,0,0,1-1,.3.38.38,0,0,1-.15,0l-21.7.55a8.84,8.84,0,0,0,2.5,4.55,7.16,7.16,0,0,0,3.05,1.75,23,23,0,0,0,4.3.6,13.18,13.18,0,0,0,4.65-.45,12.93,12.93,0,0,0,4-2.25,1.19,1.19,0,0,1,.93-.3,1.33,1.33,0,0,1,1.17,1.42,1.23,1.23,0,0,1-.5.88,14.45,14.45,0,0,1-4.8,2.72,16.29,16.29,0,0,1-5.55.58,24.9,24.9,0,0,1-5.1-.75,9,9,0,0,1-4-2.3,11.84,11.84,0,0,1-3.35-6.35Zm3-2.7,21.15-.5q.45-6.25-1.65-9.35-2.45-3.65-9.25-3.75-5.1-.1-7.55,3.65a16.45,16.45,0,0,0-2.7,8.9A5.54,5.54,0,0,0,188.3,106.42Z"/></svg>