<svg id="Layer_1" data-name="Layer 1" xmlns="http://www.w3.org/2000/svg" viewBox="0 0 245 206"><defs><style>.cls-1{fill:#f14950;stroke:#000;stroke-miterlimit:10;stroke-width:7px;}.cls-2{fill:#fff;}</style></defs><title>Artboard 1</title><rect class="cls-1" width="245" height="206"/><path class="cls-2" d="M69.7,91.82a1.14,1.14,0,0,1,.4.2,10,10,0,0,1,1.5,1.65,15.1,15.1,0,0,1,.93,1.4q.27.5.88,1.8a17,17,0,0,1,1.45,6.25,16.18,16.18,0,0,1-.95,6.35,12.9,12.9,0,0,1-3.7,5.35,11.31,11.31,0,0,1-6.15,2.6,28,28,0,0,1-5.35-.15A14.72,14.72,0,0,1,49.15,113a13.73,13.73,0,0,1-4.05-9.75A16.79,16.79,0,0,1,46.25,97a14.8,14.8,0,0,1,3.05-4.87A14.31,14.31,0,0,1,53.73,89,14.08,14.08,0,0,1,59,87.74a14.47,14.47,0,0,1,5.52.88A15.24,15.24,0,0,1,69.7,91.82Zm-.7,3a14.3,14.3,0,0,0-4.4-3.27,11.68,11.68,0,0,0-4.73-1.18,11.38,11.38,0,0,0-4.55.85,11.58,11.58,0,0,0-6.6,6.65,14.23,14.23,0,0,0-1,5.45,11.19,11.19,0,0,0,3.35,8A12.14,12.14,0,0,0,59,114.67a22.16,22.16,0,0,0,4.75.15,8.92,8.92,0,0,0,4.8-2,9.88,9.88,0,0,0,2.9-4.25,14.18,14.18,0,0,0,.8-5.35A13.08,13.08,0,0,0,71,98a19.71,19.71,0,0,0-1.55-2.9A1.32,1.32,0,0,1,69,94.77Z"/><path class="cls-2" d="M81.85,80.77h2.6l.65,36.45H82.5Z"/><path class="cls-2" d="M115,91.82a1.14,1.14,0,0,1,.4.2,10,10,0,0,1,1.5,1.65,15.1,15.1,0,0,1,.93,1.4q.27.5.88,1.8a17,17,0,0,1,1.45,6.25,16.18,16.18,0,0,1-.95,6.35,12.9,12.9,0,0,1-3.7,5.35,11.31,11.31,0,0,1-6.15,2.6,28,28,0,0,1-5.35-.15A14.72,14.72,0,0,1,94.4,113a13.73,13.73,0,0,1-4.05-9.75A16.79,16.79,0,0,1,91.5,97a14.8,14.8,0,0,1,3.05-4.87A14.31,14.31,0,0,1,99,89a14.08,14.08,0,0,1,5.23-1.27,14.47,14.47,0,0,1,5.52.88A15.24,15.24,0,0,1,115,91.82Zm-.7,3a14.3,14.3,0,0,0-4.4-3.27,11.68,11.68,0,0,0-4.73-1.18,11.38,11.38,0,0,0-4.55.85A11.58,11.58,0,0,0,94,97.82a14.23,14.23,0,0,0-1,5.45,11.19,11.19,0,0,0,3.35,8,12.14,12.14,0,0,0,7.95,3.45,22.16,22.16,0,0,0,4.75.15,8.92,8.92,0,0,0,4.8-2,9.88,9.88,0,0,0,2.9-4.25,14.18,14.18,0,0,0,.8-5.35A13.08,13.08,0,0,0,116.25,98a19.71,19.71,0,0,0-1.55-2.9A1.32,1.32,0,0,1,114.25,94.77Z"/><path class="cls-2" d="M126.6,91.72l2.6-.1.15,2.45a12.24,12.24,0,0,1,2.4-2.5,11.49,11.49,0,0,1,5.33-2.5,9.73,9.73,0,0,1,5.75.65,8.14,8.14,0,0,1,4.17,4.1,8.59,8.59,0,0,1,7.5-3.6,9.67,9.67,0,0,1,4.67,1.45A11.75,11.75,0,0,1,163,95.42q1.75,2.65,2,10.25,0,1.75,0,3.72t0,4q0,2.05,0,2.65a1.3,1.3,0,1,1-2.6,0q0-.65,0-2.65t0-3.92q0-1.92,0-3.68-.3-6.9-1.65-9a9.27,9.27,0,0,0-2.9-2.9,6.89,6.89,0,0,0-3.45-1.1q-3.85-.2-6.05,3.65a1.37,1.37,0,0,1-.35.4,28.87,28.87,0,0,1,.2,8.8q-.05.45-.65,5.2-.4,3-.45,4.9a1.14,1.14,0,0,1-.4.9,1.4,1.4,0,0,1-1,.35,1.14,1.14,0,0,1-.9-.4,1.39,1.39,0,0,1-.35-1,46.11,46.11,0,0,1,.5-5.15l.65-5.1a22.91,22.91,0,0,0-.65-9.55,6,6,0,0,0-2.75-3.5,6.66,6.66,0,0,0-4.4-.8,9.42,9.42,0,0,0-4.5,2,10.65,10.65,0,0,0-1.9,2q-.75,1.05-1.9,3l1,19-2.6.1L127,99A1.28,1.28,0,0,1,127,98Z"/><path class="cls-2" d="M194,111.92a13.72,13.72,0,0,1-4.7,3.67,19.86,19.86,0,0,1-6.15,1.92,18.29,18.29,0,0,1-5,0,10.49,10.49,0,0,1-4.5-1.8,7.69,7.69,0,0,1-3-3.85,4.12,4.12,0,0,1-.33-1.3q-.07-.75-.08-1.2t0-1.28c0-.55,0-.86,0-.92v-.55q0-2.05.13-3.2a16.15,16.15,0,0,1,.55-3,11.84,11.84,0,0,1,1.38-3.25,16.7,16.7,0,0,1,4.75-4.87,18,18,0,0,1,6.35-2.82q6.25-1.35,10.6,2.2a1.29,1.29,0,0,1,1.1-.2,1.59,1.59,0,0,1,.9.65q.1.2.2.45t.2.85q.1.7.15,2.05,0,1.15,0,2.95a22.53,22.53,0,0,1,0,6.35q0,1.9,0,2.6,0,5.9.2,8.55a1.22,1.22,0,0,1-.3,1,1.31,1.31,0,0,1-.9.45,1.21,1.21,0,0,1-1-.3,1.3,1.3,0,0,1-.45-.9Q194.1,114.22,194,111.92Zm.05-13.25q-.25-1.7-.4-3.15l-.1-.6a8.24,8.24,0,0,0-4.25-2.77,11.14,11.14,0,0,0-5.3-.08,15.65,15.65,0,0,0-5.4,2.4,14.1,14.1,0,0,0-4,4.15,9.25,9.25,0,0,0-1.12,2.75,14.35,14.35,0,0,0-.43,2.55q0,1-.1,3.25,0,.4,0,1.13t0,1a7.88,7.88,0,0,0,0,.8,4.79,4.79,0,0,0,.15.83,5.78,5.78,0,0,0,3.55,3.42,12.29,12.29,0,0,0,6.2.53,16,16,0,0,0,6.3-2.17,8.87,8.87,0,0,0,3.8-4,17.7,17.7,0,0,0,1.15-4.15q0-3.75,0-5.85Z"/></svg>