<svg id="Layer_1" data-name="Layer 1" xmlns="http://www.w3.org/2000/svg" viewBox="0 0 245 206"><defs><style>.cls-1{fill:#33b874;stroke:#000;stroke-miterlimit:10;stroke-width:7px;}.cls-2{fill:#fff;}</style></defs><title>Artboard 1</title><rect class="cls-1" width="245" height="206"/><path class="cls-2" d="M30,82.22h2.6l-.1,11.35q.65-.6,1.38-1.2T35.55,91q1-.72,1.28-1,5.3-4,11.5-.15l.75.5.8.5.8.5q.5.35.8.6l.7.6a8.81,8.81,0,0,1,.83.72,7.22,7.22,0,0,1,.67.78,12.76,12.76,0,0,1,2.73,5.6,14.66,14.66,0,0,1,.08,6.08,16.44,16.44,0,0,1-2.2,5.47,14.3,14.3,0,0,1-4,4.2,12.37,12.37,0,0,1-5.45,2.08,11.45,11.45,0,0,1-6.37-1.08,27.09,27.09,0,0,1-6.15-3.7l-.05,4.6h-2.6Zm2.45,15.2-.1,11.9a24.53,24.53,0,0,0,7.15,4.75,9.39,9.39,0,0,0,9.35-.75,11.54,11.54,0,0,0,3.25-3.45,13.38,13.38,0,0,0,1.82-4.6,12.64,12.64,0,0,0,0-5,10.32,10.32,0,0,0-2.18-4.55q-.25-.3-.52-.57a8,8,0,0,0-.65-.58l-.6-.5a7.7,7.7,0,0,0-.7-.52,7.16,7.16,0,0,0-.68-.42l-.8-.5c-.4-.27-.67-.43-.8-.5a8.43,8.43,0,0,0-4.35-1.53,6.87,6.87,0,0,0-4.15,1.58l-1.55,1.15q-1.1.8-1.58,1.2t-1.17,1.1A9.94,9.94,0,0,0,33,97,1.23,1.23,0,0,1,32.43,97.42Z"/><path class="cls-2" d="M85.73,111.92a13.72,13.72,0,0,1-4.7,3.67,19.85,19.85,0,0,1-6.15,1.92,18.29,18.29,0,0,1-5,0,10.49,10.49,0,0,1-4.5-1.8,7.69,7.69,0,0,1-3-3.85,4.14,4.14,0,0,1-.33-1.3q-.07-.75-.07-1.2t0-1.28c0-.55,0-.86,0-.92v-.55q0-2.05.13-3.2a16.2,16.2,0,0,1,.55-3,11.86,11.86,0,0,1,1.38-3.25,16.7,16.7,0,0,1,4.75-4.87,18,18,0,0,1,6.35-2.82q6.25-1.35,10.6,2.2a1.29,1.29,0,0,1,1.1-.2,1.59,1.59,0,0,1,.9.65q.1.2.2.45t.2.85q.1.7.15,2.05,0,1.15,0,2.95a22.53,22.53,0,0,1,0,6.35q-.05,1.9,0,2.6,0,5.9.2,8.55a1.22,1.22,0,0,1-.3,1,1.31,1.31,0,0,1-.9.45,1.21,1.21,0,0,1-1-.3,1.3,1.3,0,0,1-.45-.9Q85.78,114.22,85.73,111.92Zm0-13.25q-.25-1.7-.4-3.15l-.1-.6A8.23,8.23,0,0,0,81,92.14a11.13,11.13,0,0,0-5.3-.08,15.64,15.64,0,0,0-5.4,2.4,14.1,14.1,0,0,0-4.05,4.15,9.25,9.25,0,0,0-1.12,2.75,14.29,14.29,0,0,0-.42,2.55q-.05,1-.1,3.25,0,.4,0,1.13t0,1a7.74,7.74,0,0,0,0,.8,4.79,4.79,0,0,0,.15.83,5.79,5.79,0,0,0,3.55,3.42,12.29,12.29,0,0,0,6.2.53,16,16,0,0,0,6.3-2.17,8.87,8.87,0,0,0,3.8-4,17.67,17.67,0,0,0,1.15-4.15q0-3.75,0-5.85Z"/><path class="cls-2" d="M94.48,90.72l2.6-.1.15,3.25a14.58,14.58,0,0,1,7.3-5,18.35,18.35,0,0,1,4.15-.7,8.55,8.55,0,0,1,4,.83,8.4,8.4,0,0,1,3.35,2.82,16.76,16.76,0,0,1,2.23,4.13,21.76,21.76,0,0,1,1.13,4.12,26.51,26.51,0,0,1,.27,4.35,41.71,41.71,0,0,1-.23,4.2l-.5,4.25q-.3,2.55-.4,4a1.31,1.31,0,0,1-.45.9,1.22,1.22,0,0,1-.95.3,1.31,1.31,0,0,1-.9-.45,1.21,1.21,0,0,1-.3-1q.15-1.85.45-4.3l.4-4.2q.2-1.6.25-3.83a23.28,23.28,0,0,0-.2-3.9,17.27,17.27,0,0,0-1-3.58,16.32,16.32,0,0,0-1.92-3.6,5.89,5.89,0,0,0-3.73-2.4,9,9,0,0,0-4.92.4,12.89,12.89,0,0,0-4.6,2.63,8.67,8.67,0,0,0-2.65,3.83,1.23,1.23,0,0,1-.6.7l1,18.7-2.6.1Z"/><path class="cls-2" d="M148.67,111.92a13.72,13.72,0,0,1-4.7,3.67,19.86,19.86,0,0,1-6.15,1.92,18.29,18.29,0,0,1-5,0,10.49,10.49,0,0,1-4.5-1.8,7.69,7.69,0,0,1-3-3.85,4.12,4.12,0,0,1-.33-1.3q-.07-.75-.08-1.2t0-1.28c0-.55,0-.86,0-.92v-.55q0-2.05.13-3.2a16.25,16.25,0,0,1,.55-3A11.84,11.84,0,0,1,127,97.22a16.7,16.7,0,0,1,4.75-4.87,18,18,0,0,1,6.35-2.82q6.25-1.35,10.6,2.2a1.29,1.29,0,0,1,1.1-.2,1.59,1.59,0,0,1,.9.65q.1.2.2.45t.2.85q.1.7.15,2.05,0,1.15,0,2.95a22.53,22.53,0,0,1,0,6.35q0,1.9,0,2.6,0,5.9.2,8.55a1.22,1.22,0,0,1-.3,1,1.31,1.31,0,0,1-.9.45,1.21,1.21,0,0,1-1-.3,1.3,1.3,0,0,1-.45-.9Q148.73,114.22,148.67,111.92Zm.05-13.25q-.25-1.7-.4-3.15l-.1-.6A8.24,8.24,0,0,0,144,92.14a11.14,11.14,0,0,0-5.3-.08,15.65,15.65,0,0,0-5.4,2.4,14.1,14.1,0,0,0-4.05,4.15,9.25,9.25,0,0,0-1.12,2.75,14.34,14.34,0,0,0-.42,2.55q0,1-.1,3.25,0,.4,0,1.13t0,1a7.6,7.6,0,0,0,0,.8,4.79,4.79,0,0,0,.15.83,5.79,5.79,0,0,0,3.55,3.42,12.29,12.29,0,0,0,6.2.53,16,16,0,0,0,6.3-2.17,8.87,8.87,0,0,0,3.8-4,17.7,17.7,0,0,0,1.15-4.15q0-3.75,0-5.85Z"/><path class="cls-2" d="M157.42,90.72l2.6-.1.15,3.25a14.58,14.58,0,0,1,7.3-5,18.35,18.35,0,0,1,4.15-.7,8.55,8.55,0,0,1,4,.83A8.39,8.39,0,0,1,179,91.82a16.72,16.72,0,0,1,2.23,4.13,21.76,21.76,0,0,1,1.13,4.12,26.41,26.41,0,0,1,.27,4.35,41.58,41.58,0,0,1-.22,4.2l-.5,4.25q-.3,2.55-.4,4a1.31,1.31,0,0,1-.45.9,1.22,1.22,0,0,1-1,.3,1.31,1.31,0,0,1-.9-.45,1.22,1.22,0,0,1-.3-1q.15-1.85.45-4.3l.4-4.2q.2-1.6.25-3.83a23.29,23.29,0,0,0-.2-3.9,17.31,17.31,0,0,0-1-3.58,16.32,16.32,0,0,0-1.92-3.6,5.89,5.89,0,0,0-3.72-2.4,9,9,0,0,0-4.93.4,12.89,12.89,0,0,0-4.6,2.63A8.68,8.68,0,0,0,161,97.77a1.23,1.23,0,0,1-.6.7l1,18.7-2.6.1Z"/><path class="cls-2" d="M211.62,111.92a13.72,13.72,0,0,1-4.7,3.67,19.86,19.86,0,0,1-6.15,1.92,18.29,18.29,0,0,1-5,0,10.49,10.49,0,0,1-4.5-1.8,7.69,7.69,0,0,1-3-3.85,4.12,4.12,0,0,1-.33-1.3q-.07-.75-.08-1.2t0-1.28c0-.55,0-.86,0-.92v-.55q0-2.05.13-3.2a16.15,16.15,0,0,1,.55-3A11.84,11.84,0,0,1,190,97.22a16.7,16.7,0,0,1,4.75-4.87,18,18,0,0,1,6.35-2.82q6.25-1.35,10.6,2.2a1.29,1.29,0,0,1,1.1-.2,1.59,1.59,0,0,1,.9.65q.1.2.2.45t.2.85q.1.7.15,2.05,0,1.15,0,2.95a22.53,22.53,0,0,1,0,6.35q0,1.9,0,2.6,0,5.9.2,8.55a1.22,1.22,0,0,1-.3,1,1.31,1.31,0,0,1-.9.45,1.21,1.21,0,0,1-1-.3,1.3,1.3,0,0,1-.45-.9Q211.67,114.22,211.62,111.92Zm.05-13.25q-.25-1.7-.4-3.15l-.1-.6a8.24,8.24,0,0,0-4.25-2.77,11.14,11.14,0,0,0-5.3-.08,15.65,15.65,0,0,0-5.4,2.4,14.1,14.1,0,0,0-4,4.15,9.25,9.25,0,0,0-1.12,2.75,14.35,14.35,0,0,0-.43,2.55q0,1-.1,3.25,0,.4,0,1.13t0,1a7.88,7.88,0,0,0,0,.8,4.79,4.79,0,0,0,.15.83,5.78,5.78,0,0,0,3.55,3.42,12.29,12.29,0,0,0,6.2.53,16,16,0,0,0,6.3-2.17,8.87,8.87,0,0,0,3.8-4,17.7,17.7,0,0,0,1.15-4.15q0-3.75,0-5.85Z"/></svg>