<svg id="Layer_1" data-name="Layer 1" xmlns="http://www.w3.org/2000/svg" viewBox="0 0 245 206"><defs><style>.cls-1{fill:#33b874;stroke:#000;stroke-miterlimit:10;stroke-width:7px;}.cls-2{fill:#fff;}</style></defs><title>Artboard 1</title><rect class="cls-1" width="245" height="206"/><path class="cls-2" d="M52.18,91.22q-.1.55-.42,2.13t-.43,2.23l-.4,2q-.25,1.35-.33,2.17t-.15,2a15.48,15.48,0,0,0,0,2.15q.08,1,.23,2a14,14,0,0,0,1,3.53,7.94,7.94,0,0,0,1.77,2.72,10.33,10.33,0,0,0,6.23,2.68,8.91,8.91,0,0,0,6.42-1.43,11.35,11.35,0,0,0,3-3.82,22.85,22.85,0,0,0,2-5.68,22.23,22.23,0,0,0,.47-6A13.62,13.62,0,0,0,70.53,93a1.16,1.16,0,0,1-.08-1,1.22,1.22,0,0,1,.65-.75,1.3,1.3,0,0,1,1-.05,1.13,1.13,0,0,1,.73.68,14.68,14.68,0,0,1,1.38,5.85,27.14,27.14,0,0,1-2.82,13.1,13.16,13.16,0,0,1-3.8,4.6,11.74,11.74,0,0,1-8.2,1.9A12.83,12.83,0,0,1,51.63,114a10.32,10.32,0,0,1-2.3-3.5,19.12,19.12,0,0,1-1.25-4.25,21.8,21.8,0,0,1-.23-2.83q0-1.47,0-2.48t.32-2.77q.27-1.77.43-2.37l.5-2.65q.45-2.1.55-2.4a1.25,1.25,0,0,1,.55-.85,1.19,1.19,0,0,1,1-.18,1.33,1.33,0,0,1,.83.58A1.08,1.08,0,0,1,52.18,91.22Z"/><path class="cls-2" d="M80.08,90.72l2.6-.1.15,3.25a14.58,14.58,0,0,1,7.3-5,18.35,18.35,0,0,1,4.15-.7,8.55,8.55,0,0,1,4,.83,8.4,8.4,0,0,1,3.35,2.82,16.76,16.76,0,0,1,2.23,4.13,21.76,21.76,0,0,1,1.13,4.12,26.51,26.51,0,0,1,.27,4.35,41.71,41.71,0,0,1-.23,4.2l-.5,4.25q-.3,2.55-.4,4a1.31,1.31,0,0,1-.45.9,1.22,1.22,0,0,1-.95.3,1.31,1.31,0,0,1-.9-.45,1.21,1.21,0,0,1-.3-1q.15-1.85.45-4.3l.4-4.2q.2-1.6.25-3.83a23.28,23.28,0,0,0-.2-3.9,17.27,17.27,0,0,0-1-3.58,16.32,16.32,0,0,0-1.92-3.6,5.89,5.89,0,0,0-3.73-2.4,9,9,0,0,0-4.92.4,12.89,12.89,0,0,0-4.6,2.63,8.67,8.67,0,0,0-2.65,3.83,1.23,1.23,0,0,1-.6.7l1,18.7-2.6.1Z"/><path class="cls-2" d="M109.88,109.12l-.1-2.6h.55a7.74,7.74,0,0,1,0-1.25,19.14,19.14,0,0,1,3.1-10.2q3.25-4.95,9.75-4.85,8.15.15,11.4,4.9,2.8,4.15,2,12.25a1.23,1.23,0,0,1-.47.85,1.29,1.29,0,0,1-1,.3.38.38,0,0,1-.15,0l-21.7.55a8.82,8.82,0,0,0,2.5,4.55,7.15,7.15,0,0,0,3,1.75,23,23,0,0,0,4.3.6,13.19,13.19,0,0,0,4.65-.45,13,13,0,0,0,4-2.25,1.18,1.18,0,0,1,.92-.3,1.26,1.26,0,0,1,.88.47,1.27,1.27,0,0,1,.3,1,1.23,1.23,0,0,1-.5.88,14.46,14.46,0,0,1-4.8,2.72,16.28,16.28,0,0,1-5.55.58,24.9,24.9,0,0,1-5.1-.75,9,9,0,0,1-4-2.3,11.85,11.85,0,0,1-3.35-6.35Zm3-2.7,21.15-.5q.45-6.25-1.65-9.35-2.45-3.65-9.25-3.75-5.1-.1-7.55,3.65a16.45,16.45,0,0,0-2.7,8.9A5.46,5.46,0,0,0,112.92,106.42Z"/><path class="cls-2" d="M144.28,92.07l2.6-.1.15,4.75a10.9,10.9,0,0,1,5.45-4.4,6.65,6.65,0,0,1,5.25.25,9,9,0,0,1,4.15,4.9,1.3,1.3,0,0,1,0,1,1.21,1.21,0,0,1-.7.7,1.3,1.3,0,0,1-1,0,1.2,1.2,0,0,1-.7-.7,6.56,6.56,0,0,0-2.9-3.55,4,4,0,0,0-3.25-.15,8.47,8.47,0,0,0-3.4,2.45,10.31,10.31,0,0,0-2.25,4.1,1.07,1.07,0,0,1-.5.7l.5,15.35-2.6.1Z"/><path class="cls-2" d="M166.57,109.12l-.1-2.6H167a7.63,7.63,0,0,1,0-1.25,19.14,19.14,0,0,1,3.1-10.2q3.25-4.95,9.75-4.85,8.15.15,11.4,4.9,2.8,4.15,2,12.25a1.24,1.24,0,0,1-.48.85,1.29,1.29,0,0,1-1,.3.38.38,0,0,1-.15,0L170,109a8.84,8.84,0,0,0,2.5,4.55,7.16,7.16,0,0,0,3.05,1.75,23,23,0,0,0,4.3.6,13.18,13.18,0,0,0,4.65-.45,12.93,12.93,0,0,0,4-2.25,1.19,1.19,0,0,1,.93-.3,1.33,1.33,0,0,1,1.17,1.42,1.23,1.23,0,0,1-.5.88,14.45,14.45,0,0,1-4.8,2.72,16.29,16.29,0,0,1-5.55.58,24.9,24.9,0,0,1-5.1-.75,9,9,0,0,1-4-2.3,11.84,11.84,0,0,1-3.35-6.35Zm3-2.7,21.15-.5q.45-6.25-1.65-9.35-2.45-3.65-9.25-3.75-5.1-.1-7.55,3.65a16.45,16.45,0,0,0-2.7,8.9A5.54,5.54,0,0,0,169.62,106.42Z"/></svg>