<svg id="Layer_1" data-name="Layer 1" xmlns="http://www.w3.org/2000/svg" viewBox="0 0 245 206"><defs><style>.cls-1{fill:#0083ca;stroke:#000;stroke-miterlimit:10;stroke-width:7px;}</style></defs><title>Artboard 1</title><rect class="cls-1" width="245" height="206"/><path d="M77.15,111.92a13.72,13.72,0,0,1-4.7,3.67,19.85,19.85,0,0,1-6.15,1.92,18.29,18.29,0,0,1-5,0,10.49,10.49,0,0,1-4.5-1.8,7.69,7.69,0,0,1-3-3.85,4.14,4.14,0,0,1-.33-1.3q-.07-.75-.07-1.2t0-1.28c0-.55,0-.86,0-.92v-.55q0-2.05.13-3.2a16.2,16.2,0,0,1,.55-3,11.86,11.86,0,0,1,1.38-3.25,16.7,16.7,0,0,1,4.75-4.87,18,18,0,0,1,6.35-2.82q6.25-1.35,10.6,2.2a1.29,1.29,0,0,1,1.1-.2,1.59,1.59,0,0,1,.9.65q.1.2.2.45t.2.85q.1.7.15,2.05,0,1.15,0,2.95a22.53,22.53,0,0,1,0,6.35q-.05,1.9,0,2.6,0,5.9.2,8.55a1.22,1.22,0,0,1-.3,1,1.31,1.31,0,0,1-.9.45,1.21,1.21,0,0,1-1-.3,1.3,1.3,0,0,1-.45-.9Q77.2,114.22,77.15,111.92Zm0-13.25Q77,97,76.8,95.52l-.1-.6a8.23,8.23,0,0,0-4.25-2.77,11.13,11.13,0,0,0-5.3-.08,15.64,15.64,0,0,0-5.4,2.4,14.1,14.1,0,0,0-4.05,4.15,9.25,9.25,0,0,0-1.12,2.75,14.29,14.29,0,0,0-.42,2.55q-.05,1-.1,3.25,0,.4,0,1.13t0,1a7.74,7.74,0,0,0,0,.8,4.79,4.79,0,0,0,.15.83,5.79,5.79,0,0,0,3.55,3.42,12.29,12.29,0,0,0,6.2.53,16,16,0,0,0,6.3-2.17,8.87,8.87,0,0,0,3.8-4,17.67,17.67,0,0,0,1.15-4.15q0-3.75,0-5.85Z"/><path d="M87.45,91h2.6v3.5a24.67,24.67,0,0,1,6.25-3.65q5.25-1.95,8.2-1.25a10.11,10.11,0,0,1,5.35,3.15,14.3,14.3,0,0,1,3,5.75,17.06,17.06,0,0,1,.5,6.4,14,14,0,0,1-1.9,5.9,12.34,12.34,0,0,1-4.27,4.33,22,22,0,0,1-5.93,2.58,13.12,13.12,0,0,1-5.85.17,13.69,13.69,0,0,1-5.35-2.33l0,11.2h-2.6Zm2.6,6.75.05,15.35a1.23,1.23,0,0,1,1.3.15,10.66,10.66,0,0,0,9.2,2,18.83,18.83,0,0,0,5.13-2.2,10.5,10.5,0,0,0,3.55-3.5,11.78,11.78,0,0,0,1.52-4.85,14.25,14.25,0,0,0-.45-5.45A10.83,10.83,0,0,0,108,94.54a7.94,7.94,0,0,0-4.08-2.48q-2.2-.5-6.7,1.15a26.24,26.24,0,0,0-6.8,4.3A.74.74,0,0,1,90.05,97.72Z"/><path d="M120.9,91h2.6v3.5a24.67,24.67,0,0,1,6.25-3.65q5.25-1.95,8.2-1.25a10.11,10.11,0,0,1,5.35,3.15,14.29,14.29,0,0,1,3,5.75,17.07,17.07,0,0,1,.5,6.4,14,14,0,0,1-1.9,5.9,12.34,12.34,0,0,1-4.27,4.33,22,22,0,0,1-5.92,2.58,13.12,13.12,0,0,1-5.85.17,13.69,13.69,0,0,1-5.35-2.33l0,11.2H121Zm2.6,6.75.05,15.35a1.23,1.23,0,0,1,1.3.15,10.66,10.66,0,0,0,9.2,2,18.82,18.82,0,0,0,5.13-2.2,10.5,10.5,0,0,0,3.55-3.5,11.79,11.79,0,0,0,1.53-4.85,14.27,14.27,0,0,0-.45-5.45,10.83,10.83,0,0,0-2.37-4.62,7.94,7.94,0,0,0-4.08-2.48q-2.2-.5-6.7,1.15a26.23,26.23,0,0,0-6.8,4.3A.74.74,0,0,1,123.5,97.72Z"/><path d="M153.9,80.77h2.6l.65,36.45h-2.6Z"/><path d="M161.7,109.12l-.1-2.6h.55a7.63,7.63,0,0,1,0-1.25,19.14,19.14,0,0,1,3.1-10.2q3.25-4.95,9.75-4.85,8.15.15,11.4,4.9,2.8,4.15,2,12.25a1.24,1.24,0,0,1-.48.85,1.29,1.29,0,0,1-1,.3.38.38,0,0,1-.15,0l-21.7.55a8.84,8.84,0,0,0,2.5,4.55,7.16,7.16,0,0,0,3.05,1.75,23,23,0,0,0,4.3.6,13.18,13.18,0,0,0,4.65-.45,12.93,12.93,0,0,0,4-2.25,1.19,1.19,0,0,1,.93-.3,1.33,1.33,0,0,1,1.17,1.42,1.23,1.23,0,0,1-.5.88,14.45,14.45,0,0,1-4.8,2.72,16.29,16.29,0,0,1-5.55.58,24.9,24.9,0,0,1-5.1-.75,9,9,0,0,1-4-2.3,11.84,11.84,0,0,1-3.35-6.35Zm3-2.7,21.15-.5q.45-6.25-1.65-9.35-2.45-3.65-9.25-3.75-5.1-.1-7.55,3.65a16.45,16.45,0,0,0-2.7,8.9A5.54,5.54,0,0,0,164.75,106.42Z"/></svg>