<svg id="Layer_1" data-name="Layer 1" xmlns="http://www.w3.org/2000/svg" viewBox="0 0 245 206"><defs><style>.cls-1{fill:#f9a94a;stroke:#000;stroke-miterlimit:10;stroke-width:7px;}</style></defs><title>Artboard 1</title><rect class="cls-1" width="245" height="206"/><path d="M78.83,91.22q-.1.55-.42,2.13T78,95.57l-.4,2q-.25,1.35-.33,2.17t-.15,2a15.48,15.48,0,0,0,0,2.15q.08,1,.23,2a14,14,0,0,0,1,3.53,7.94,7.94,0,0,0,1.77,2.72,10.33,10.33,0,0,0,6.23,2.68,8.91,8.91,0,0,0,6.42-1.43,11.35,11.35,0,0,0,3-3.82,22.85,22.85,0,0,0,2-5.68,22.23,22.23,0,0,0,.47-6A13.62,13.62,0,0,0,97.18,93a1.16,1.16,0,0,1-.08-1,1.22,1.22,0,0,1,.65-.75,1.3,1.3,0,0,1,1-.05,1.13,1.13,0,0,1,.73.68,14.68,14.68,0,0,1,1.38,5.85A27.14,27.14,0,0,1,98,110.82a13.16,13.16,0,0,1-3.8,4.6,11.74,11.74,0,0,1-8.2,1.9A12.83,12.83,0,0,1,78.28,114a10.32,10.32,0,0,1-2.3-3.5,19.12,19.12,0,0,1-1.25-4.25,21.8,21.8,0,0,1-.23-2.83q0-1.47,0-2.48t.32-2.77q.27-1.77.43-2.37l.5-2.65q.45-2.1.55-2.4a1.25,1.25,0,0,1,.55-.85,1.19,1.19,0,0,1,1-.18,1.33,1.33,0,0,1,.83.58A1.08,1.08,0,0,1,78.83,91.22Z"/><path d="M108.58,82.22h2.6l-.1,11.35q.65-.6,1.38-1.2t1.7-1.33q1-.72,1.28-1,5.3-4,11.5-.15l.75.5.8.5.8.5q.5.35.8.6l.7.6a8.87,8.87,0,0,1,.83.72,7.27,7.27,0,0,1,.67.78,12.77,12.77,0,0,1,2.73,5.6,14.67,14.67,0,0,1,.07,6.08,16.43,16.43,0,0,1-2.2,5.47,14.31,14.31,0,0,1-4,4.2,12.38,12.38,0,0,1-5.45,2.08,11.45,11.45,0,0,1-6.37-1.08,27.09,27.09,0,0,1-6.15-3.7l-.05,4.6h-2.6ZM111,97.42l-.1,11.9a24.53,24.53,0,0,0,7.15,4.75,9.39,9.39,0,0,0,9.35-.75,11.55,11.55,0,0,0,3.25-3.45,13.37,13.37,0,0,0,1.82-4.6,12.61,12.61,0,0,0,0-5,10.31,10.31,0,0,0-2.17-4.55q-.25-.3-.53-.57a8,8,0,0,0-.65-.58l-.6-.5a7.6,7.6,0,0,0-.7-.52,7.15,7.15,0,0,0-.68-.42l-.8-.5c-.4-.27-.67-.43-.8-.5a8.44,8.44,0,0,0-4.35-1.53A6.87,6.87,0,0,0,117,92.17l-1.55,1.15q-1.1.8-1.58,1.2t-1.17,1.1A9.94,9.94,0,0,0,111.58,97,1.23,1.23,0,0,1,111,97.42Z"/><path d="M139.92,109.12l-.1-2.6h.55a7.63,7.63,0,0,1,0-1.25,19.14,19.14,0,0,1,3.1-10.2q3.25-4.95,9.75-4.85,8.15.15,11.4,4.9,2.8,4.15,2,12.25a1.24,1.24,0,0,1-.48.85,1.29,1.29,0,0,1-1,.3.38.38,0,0,1-.15,0l-21.7.55a8.84,8.84,0,0,0,2.5,4.55,7.16,7.16,0,0,0,3.05,1.75,23,23,0,0,0,4.3.6,13.18,13.18,0,0,0,4.65-.45,12.93,12.93,0,0,0,4-2.25,1.19,1.19,0,0,1,.93-.3,1.33,1.33,0,0,1,1.17,1.42,1.23,1.23,0,0,1-.5.88,14.45,14.45,0,0,1-4.8,2.72,16.29,16.29,0,0,1-5.55.58,24.9,24.9,0,0,1-5.1-.75,9,9,0,0,1-4-2.3,11.84,11.84,0,0,1-3.35-6.35Zm3-2.7,21.15-.5q.45-6.25-1.65-9.35-2.45-3.65-9.25-3.75-5.1-.1-7.55,3.65a16.45,16.45,0,0,0-2.7,8.9A5.54,5.54,0,0,0,143,106.42Z"/></svg>