<svg id="Layer_1" data-name="Layer 1" xmlns="http://www.w3.org/2000/svg" viewBox="0 0 245 206"><defs><style>.cls-1{fill:#0083ca;}.cls-1,.cls-2{stroke:#000;stroke-miterlimit:10;stroke-width:7px;}.cls-2{fill:#a967aa;}</style></defs><title>Artboard 1</title><rect class="cls-1" width="245" height="206"/><rect class="cls-2" x="1" width="245" height="206"/><path d="M72.48,86.7a30.33,30.33,0,0,0-.3,3.82q-.05,2.18,0,3.55t.27,4.38q.2,3,.3,4,.1,2.9.13,5.55a28.46,28.46,0,0,1-.5,5.47,19.27,19.27,0,0,1-1.67,5.13,9.48,9.48,0,0,1-3.58,4,13.07,13.07,0,0,1-5.27,2,12.35,12.35,0,0,1-5.62-.5,9,9,0,0,1-4.42-3.1,1.36,1.36,0,0,1-.23-1,1.25,1.25,0,0,1,.5-.85,1.22,1.22,0,0,1,1-.25,1.39,1.39,0,0,1,.88.47,6.34,6.34,0,0,0,3.22,2.25,10.46,10.46,0,0,0,8.55-1.15,7.3,7.3,0,0,0,2.73-3,22.32,22.32,0,0,0,1.85-8.1q-3.55,4.25-11,4.25H56.38L55,113.65q-1,0-1.62-.12c-.4,0-.87-.12-1.43-.22s-1.06-.22-1.52-.35a8.38,8.38,0,0,1-4.55-3.37A11.62,11.62,0,0,1,44,104a17.78,17.78,0,0,1,.4-5.57,20.39,20.39,0,0,1,1.85-5.12,11.79,11.79,0,0,1,3-3.52,13.71,13.71,0,0,1,4.07-2.23,22.12,22.12,0,0,1,4.4-1,22.87,22.87,0,0,1,4.4-.12,14.39,14.39,0,0,1,7.45,2.3q.1-1.3.25-2.45a1.27,1.27,0,0,1,.52-.85,1.32,1.32,0,0,1,1-.23,1.19,1.19,0,0,1,.85.5A1.42,1.42,0,0,1,72.48,86.7ZM69.33,92Q67.08,89.4,62,89a18.53,18.53,0,0,0-8,1.1,9.82,9.82,0,0,0-5.45,4.5,17.93,17.93,0,0,0-2,9.2q.45,5.3,4.6,6.6a7.45,7.45,0,0,0,1.25.32l1.2.2a13,13,0,0,0,1.45.1l1.25,0h2.9q6.6,0,9.25-3.6a1.16,1.16,0,0,1,.85-.52,1.24,1.24,0,0,1,.95.22h.05q0-2-.15-4.55-.1-1.1-.25-3.25t-.25-3.9q-.1-1.75-.15-3.25Z"/><path d="M80.43,88l2.6-.1.15,4.75a10.9,10.9,0,0,1,5.45-4.4,6.65,6.65,0,0,1,5.25.25A9,9,0,0,1,98,93.4a1.3,1.3,0,0,1,0,1,1.21,1.21,0,0,1-.7.7,1.3,1.3,0,0,1-1,0,1.2,1.2,0,0,1-.7-.7,6.56,6.56,0,0,0-2.9-3.55,4,4,0,0,0-3.25-.15,8.47,8.47,0,0,0-3.4,2.45,10.32,10.32,0,0,0-2.25,4.1,1.07,1.07,0,0,1-.5.7l.5,15.35-2.6.1Z"/><path d="M127.13,107.85a13.73,13.73,0,0,1-4.7,3.67,19.86,19.86,0,0,1-6.15,1.93,18.36,18.36,0,0,1-5,0,10.48,10.48,0,0,1-4.5-1.8,7.68,7.68,0,0,1-3-3.85,4.12,4.12,0,0,1-.33-1.3q-.07-.75-.07-1.2t0-1.28q0-.82,0-.92v-.55q0-2.05.13-3.2a16.2,16.2,0,0,1,.55-3,11.86,11.86,0,0,1,1.38-3.25,16.7,16.7,0,0,1,4.75-4.87,18,18,0,0,1,6.35-2.82q6.25-1.35,10.6,2.2a1.29,1.29,0,0,1,1.1-.2,1.6,1.6,0,0,1,.9.65q.1.2.2.45t.2.85q.1.7.15,2.05,0,1.15.05,2.95a22.6,22.6,0,0,1,0,6.35q0,1.9-.05,2.6,0,5.9.2,8.55a1.23,1.23,0,0,1-.3,1,1.31,1.31,0,0,1-.9.45,1.21,1.21,0,0,1-.95-.3,1.3,1.3,0,0,1-.45-.9Q127.17,110.15,127.13,107.85Zm.05-13.25q-.25-1.7-.4-3.15l-.1-.6a8.24,8.24,0,0,0-4.25-2.77,11.13,11.13,0,0,0-5.3-.08,15.64,15.64,0,0,0-5.4,2.4,14.1,14.1,0,0,0-4.05,4.15,9.25,9.25,0,0,0-1.12,2.75,14.29,14.29,0,0,0-.42,2.55q-.05,1-.1,3.25,0,.4,0,1.13c0,.48,0,.83,0,1a7.74,7.74,0,0,0,0,.8,4.79,4.79,0,0,0,.15.82,5.79,5.79,0,0,0,3.55,3.43,12.29,12.29,0,0,0,6.2.53,16,16,0,0,0,6.3-2.18,8.88,8.88,0,0,0,3.8-4,17.7,17.7,0,0,0,1.15-4.15q0-3.75,0-5.85Z"/><path d="M137.42,86.9H140v3.5a24.64,24.64,0,0,1,6.25-3.65q5.25-1.95,8.2-1.25a10.11,10.11,0,0,1,5.35,3.15,14.29,14.29,0,0,1,3,5.75,17.07,17.07,0,0,1,.5,6.4,14,14,0,0,1-1.9,5.9A12.33,12.33,0,0,1,157.2,111a22,22,0,0,1-5.92,2.58,13.12,13.12,0,0,1-5.85.17,13.67,13.67,0,0,1-5.35-2.32l0,11.2h-2.6Zm2.6,6.75,0,15.35a1.23,1.23,0,0,1,1.3.15,10.66,10.66,0,0,0,9.2,2,18.8,18.8,0,0,0,5.13-2.2,10.49,10.49,0,0,0,3.55-3.5,11.78,11.78,0,0,0,1.53-4.85,14.27,14.27,0,0,0-.45-5.45A10.83,10.83,0,0,0,158,90.47,7.94,7.94,0,0,0,153.88,88q-2.2-.5-6.7,1.15a26.23,26.23,0,0,0-6.8,4.3A.73.73,0,0,1,140,93.65Z"/><path d="M168,105l-.1-2.6h.55a7.63,7.63,0,0,1,0-1.25,19.14,19.14,0,0,1,3.1-10.2q3.25-4.95,9.75-4.85,8.15.15,11.4,4.9,2.8,4.15,2,12.25a1.23,1.23,0,0,1-.48.85,1.29,1.29,0,0,1-1,.3.37.37,0,0,1-.15-.05l-21.7.55a8.84,8.84,0,0,0,2.5,4.55,7.18,7.18,0,0,0,3.05,1.75,23,23,0,0,0,4.3.6,13.18,13.18,0,0,0,4.65-.45,12.89,12.89,0,0,0,4-2.25,1.18,1.18,0,0,1,.93-.3,1.33,1.33,0,0,1,1.17,1.42,1.22,1.22,0,0,1-.5.88,14.45,14.45,0,0,1-4.8,2.73,16.31,16.31,0,0,1-5.55.58,24.9,24.9,0,0,1-5.1-.75,9,9,0,0,1-4-2.3,11.84,11.84,0,0,1-3.35-6.35Zm3-2.7,21.15-.5q.45-6.25-1.65-9.35-2.45-3.65-9.25-3.75-5.1-.1-7.55,3.65a16.45,16.45,0,0,0-2.7,8.9A5.54,5.54,0,0,0,171.07,102.35Z"/></svg>