<svg id="Layer_1" data-name="Layer 1" xmlns="http://www.w3.org/2000/svg" viewBox="0 0 245 206"><defs><style>.cls-1{fill:#0083ca;}.cls-1,.cls-2{stroke:#000;stroke-miterlimit:10;stroke-width:7px;}.cls-2{fill:#a967aa;}</style></defs><title>Artboard 1</title><rect class="cls-1" width="245" height="206"/><rect class="cls-2" x="1" width="245" height="206"/><path d="M72.75,86.7a30.33,30.33,0,0,0-.3,3.82q-.05,2.18,0,3.55t.27,4.38q.2,3,.3,4,.1,2.9.13,5.55a28.46,28.46,0,0,1-.5,5.47A19.27,19.27,0,0,1,71,118.65a9.48,9.48,0,0,1-3.58,4,13.07,13.07,0,0,1-5.27,2,12.35,12.35,0,0,1-5.62-.5A9,9,0,0,1,52.1,121a1.36,1.36,0,0,1-.23-1,1.25,1.25,0,0,1,.5-.85,1.22,1.22,0,0,1,1-.25,1.39,1.39,0,0,1,.88.47,6.34,6.34,0,0,0,3.22,2.25A10.46,10.46,0,0,0,66,120.5a7.3,7.3,0,0,0,2.73-3,22.32,22.32,0,0,0,1.85-8.1q-3.55,4.25-11,4.25H56.65l-1.42-.05q-1,0-1.62-.12c-.4,0-.87-.12-1.43-.22s-1.06-.22-1.52-.35a8.38,8.38,0,0,1-4.55-3.37A11.62,11.62,0,0,1,44.3,104a17.78,17.78,0,0,1,.4-5.57,20.39,20.39,0,0,1,1.85-5.12,11.79,11.79,0,0,1,3-3.52,13.71,13.71,0,0,1,4.07-2.23,22.12,22.12,0,0,1,4.4-1,22.87,22.87,0,0,1,4.4-.12,14.39,14.39,0,0,1,7.45,2.3q.1-1.3.25-2.45a1.27,1.27,0,0,1,.52-.85,1.32,1.32,0,0,1,1-.23,1.19,1.19,0,0,1,.85.5A1.42,1.42,0,0,1,72.75,86.7ZM69.6,92q-2.25-2.65-7.35-3a18.53,18.53,0,0,0-8,1.1,9.82,9.82,0,0,0-5.45,4.5,17.93,17.93,0,0,0-2,9.2q.45,5.3,4.6,6.6a7.45,7.45,0,0,0,1.25.32l1.2.2a13,13,0,0,0,1.45.1l1.25,0h2.9q6.6,0,9.25-3.6a1.16,1.16,0,0,1,.85-.52,1.24,1.24,0,0,1,.95.22h.05q0-2-.15-4.55-.1-1.1-.25-3.25T70,95.5q-.1-1.75-.15-3.25Z"/><path d="M80.7,88l2.6-.1.15,4.75a10.9,10.9,0,0,1,5.45-4.4,6.65,6.65,0,0,1,5.25.25,9,9,0,0,1,4.15,4.9,1.3,1.3,0,0,1,0,1,1.21,1.21,0,0,1-.7.7,1.3,1.3,0,0,1-1,0,1.2,1.2,0,0,1-.7-.7A6.56,6.56,0,0,0,93,90.85a4,4,0,0,0-3.25-.15,8.47,8.47,0,0,0-3.4,2.45,10.32,10.32,0,0,0-2.25,4.1,1.07,1.07,0,0,1-.5.7l.5,15.35-2.6.1Z"/><path d="M127.4,107.85a13.71,13.71,0,0,1-4.7,3.67,19.86,19.86,0,0,1-6.15,1.93,18.36,18.36,0,0,1-5,0,10.48,10.48,0,0,1-4.5-1.8,7.68,7.68,0,0,1-3-3.85,4.12,4.12,0,0,1-.33-1.3q-.07-.75-.07-1.2t0-1.28q0-.82,0-.92v-.55q0-2.05.13-3.2a16.2,16.2,0,0,1,.55-3,11.86,11.86,0,0,1,1.38-3.25,16.7,16.7,0,0,1,4.75-4.87,18,18,0,0,1,6.35-2.82q6.25-1.35,10.6,2.2a1.29,1.29,0,0,1,1.1-.2,1.59,1.59,0,0,1,.9.65q.1.2.2.45t.2.85q.1.7.15,2.05,0,1.15,0,2.95a22.53,22.53,0,0,1,0,6.35q0,1.9,0,2.6,0,5.9.2,8.55a1.22,1.22,0,0,1-.3,1,1.31,1.31,0,0,1-.9.45,1.22,1.22,0,0,1-1-.3,1.3,1.3,0,0,1-.45-.9Q127.45,110.15,127.4,107.85Zm.05-13.25q-.25-1.7-.4-3.15l-.1-.6a8.24,8.24,0,0,0-4.25-2.77,11.13,11.13,0,0,0-5.3-.08,15.64,15.64,0,0,0-5.4,2.4,14.1,14.1,0,0,0-4.05,4.15,9.25,9.25,0,0,0-1.12,2.75,14.29,14.29,0,0,0-.42,2.55q-.05,1-.1,3.25,0,.4,0,1.13c0,.48,0,.83,0,1a7.74,7.74,0,0,0,0,.8,4.79,4.79,0,0,0,.15.82,5.79,5.79,0,0,0,3.55,3.43,12.29,12.29,0,0,0,6.2.53,16,16,0,0,0,6.3-2.18,8.87,8.87,0,0,0,3.8-4,17.7,17.7,0,0,0,1.15-4.15q0-3.75,0-5.85Z"/><path d="M137.7,86.9h2.6v3.5a24.64,24.64,0,0,1,6.25-3.65q5.25-1.95,8.2-1.25a10.11,10.11,0,0,1,5.35,3.15,14.29,14.29,0,0,1,3,5.75,17.07,17.07,0,0,1,.5,6.4,14,14,0,0,1-1.9,5.9,12.33,12.33,0,0,1-4.27,4.32,22,22,0,0,1-5.92,2.58,13.12,13.12,0,0,1-5.85.17,13.67,13.67,0,0,1-5.35-2.32l0,11.2h-2.6Zm2.6,6.75,0,15.35a1.23,1.23,0,0,1,1.3.15,10.66,10.66,0,0,0,9.2,2,18.8,18.8,0,0,0,5.13-2.2,10.49,10.49,0,0,0,3.55-3.5,11.78,11.78,0,0,0,1.53-4.85,14.27,14.27,0,0,0-.45-5.45,10.83,10.83,0,0,0-2.37-4.62A7.94,7.94,0,0,0,154.15,88q-2.2-.5-6.7,1.15a26.23,26.23,0,0,0-6.8,4.3A.73.73,0,0,1,140.3,93.65Z"/><path d="M172.6,87.15q-.1.55-.42,2.13t-.42,2.23l-.4,2q-.25,1.35-.33,2.17t-.15,2a15.18,15.18,0,0,0,0,2.15q.07,1,.22,2a14,14,0,0,0,1,3.52,8,8,0,0,0,1.78,2.73,10.33,10.33,0,0,0,6.22,2.67,8.92,8.92,0,0,0,6.43-1.42,11.36,11.36,0,0,0,3-3.83,22.86,22.86,0,0,0,2-5.67,22.25,22.25,0,0,0,.47-6,13.61,13.61,0,0,0-1.08-4.87,1.16,1.16,0,0,1-.07-1,1.21,1.21,0,0,1,.65-.75,1.3,1.3,0,0,1,1-.05,1.13,1.13,0,0,1,.73.68,14.69,14.69,0,0,1,1.38,5.85,27.15,27.15,0,0,1-2.83,13.1,13.16,13.16,0,0,1-3.8,4.6,11.74,11.74,0,0,1-8.2,1.9A12.83,12.83,0,0,1,172,109.9a10.3,10.3,0,0,1-2.3-3.5,19,19,0,0,1-1.25-4.25,21.69,21.69,0,0,1-.23-2.82q0-1.47,0-2.48t.33-2.77q.27-1.77.42-2.37l.5-2.65q.45-2.1.55-2.4a1.25,1.25,0,0,1,.55-.85,1.19,1.19,0,0,1,1-.18,1.33,1.33,0,0,1,.82.58A1.08,1.08,0,0,1,172.6,87.15Z"/></svg>