<svg id="Layer_1" data-name="Layer 1" xmlns="http://www.w3.org/2000/svg" viewBox="0 0 245 206"><defs><style>.cls-1{fill:#f472bb;stroke:#000;stroke-miterlimit:10;stroke-width:7px;}.cls-2{fill:#fff;}</style></defs><title>anyi bu</title><rect class="cls-1" x="2.87" y="0.9" width="245" height="206"/><path d="M69.93,106.35a10.69,10.69,0,0,1-3.67,2.87,15.48,15.48,0,0,1-4.8,1.5,14.3,14.3,0,0,1-3.94,0,8.19,8.19,0,0,1-3.51-1.4,6,6,0,0,1-2.3-3,3.21,3.21,0,0,1-.25-1q-.06-.59-.06-.94t0-1c0-.43,0-.67,0-.72v-.43q0-1.6.1-2.5a12.66,12.66,0,0,1,.43-2.3A9.25,9.25,0,0,1,53,94.89a13,13,0,0,1,3.71-3.8,14.06,14.06,0,0,1,5-2.2A9.31,9.31,0,0,1,70,90.6a1,1,0,0,1,.86-.16,1.24,1.24,0,0,1,.7.51c.05.1.1.22.16.35s.1.4.16.66.09.9.12,1.6,0,1.37,0,2.3a17.56,17.56,0,0,1,0,5q0,1.48,0,2,0,4.6.16,6.67a1,1,0,0,1-.23.74,1,1,0,0,1-.7.35,1,1,0,0,1-.74-.23,1,1,0,0,1-.35-.7Q70,108.15,69.93,106.35ZM70,96q-.2-1.33-.31-2.46l-.08-.47a6.43,6.43,0,0,0-3.32-2.16,8.68,8.68,0,0,0-4.13-.06,12.19,12.19,0,0,0-4.21,1.87A11,11,0,0,0,54.76,96a7.21,7.21,0,0,0-.88,2.15,11.21,11.21,0,0,0-.33,2q0,.78-.08,2.53,0,.31,0,.88c0,.38,0,.65,0,.82a6.14,6.14,0,0,0,0,.62,3.78,3.78,0,0,0,.12.64,4.51,4.51,0,0,0,2.77,2.67,9.58,9.58,0,0,0,4.84.41,12.5,12.5,0,0,0,4.91-1.7,6.92,6.92,0,0,0,3-3.1,13.79,13.79,0,0,0,.9-3.24q0-2.93,0-4.56Z"/><path d="M76.75,89.82l2-.08.12,2.53a11.37,11.37,0,0,1,5.69-3.9,14.3,14.3,0,0,1,3.24-.55,6.67,6.67,0,0,1,3.16.64,6.55,6.55,0,0,1,2.61,2.2,13.07,13.07,0,0,1,1.74,3.22,17,17,0,0,1,.88,3.22,20.67,20.67,0,0,1,.21,3.39,32.67,32.67,0,0,1-.18,3.28l-.39,3.31q-.23,2-.31,3.16a1,1,0,0,1-.35.7,1,1,0,0,1-.74.23,1,1,0,0,1-.7-.35,1,1,0,0,1-.23-.74q.12-1.44.35-3.35l.31-3.28q.16-1.25.2-3a18.18,18.18,0,0,0-.16-3,13.51,13.51,0,0,0-.76-2.79A12.74,12.74,0,0,0,92,91.84,4.59,4.59,0,0,0,89.06,90a7,7,0,0,0-3.84.31,10.05,10.05,0,0,0-3.59,2,6.77,6.77,0,0,0-2.07,3,1,1,0,0,1-.47.55l.78,14.59-2,.08Z"/><path d="M104.72,90.91q-.2.78-.35,1.68a14.36,14.36,0,0,0-.2,1.5q0,.61-.14,1.74t-.14,1.72a20.83,20.83,0,0,0,.23,6.4A8.37,8.37,0,0,0,107,108.5a4,4,0,0,0,3.55,1q3.51-.66,5-5a35.35,35.35,0,0,0,1.29-8.19q.19-3,.23-4.45v-.08a1.4,1.4,0,0,1-.08-.35,1.33,1.33,0,0,1,.66-1.52,1,1,0,0,1,.94,0,1.25,1.25,0,0,1,.43.39,1.54,1.54,0,0,1,.12.31.73.73,0,0,0,0,.23v2.22q0,4.06-.12,6.43-.27,5.54-.12,10.65,0,.12.1,1.31a16.55,16.55,0,0,1,.06,2,6.22,6.22,0,0,1-.27,1.6,5.74,5.74,0,0,1-1.74,2.54,7.21,7.21,0,0,1-2.71,1.48,5.44,5.44,0,0,1-3,.16,4.9,4.9,0,0,1-2.73-1.6,1,1,0,0,1-.23-.74,1,1,0,0,1,.35-.7,1,1,0,0,1,.74-.23,1,1,0,0,1,.7.35,3.17,3.17,0,0,0,3.63.82,5.05,5.05,0,0,0,1.93-1,3.81,3.81,0,0,0,1.37-2.81,13,13,0,0,0-.08-1.6q-.1-1-.1-1.5l-.08-3.51a8,8,0,0,1-5.85,4.76,6.59,6.59,0,0,1-5.27-1.44,11.85,11.85,0,0,1-2.36-2.85,9.67,9.67,0,0,1-1.21-3.12,22,22,0,0,1-.35-3.32,22.31,22.31,0,0,1,.14-3.39q0-.51.12-1.64l.16-1.87q.08-.66.23-1.66a17,17,0,0,1,.39-1.85,1,1,0,0,1,.47-.6.92.92,0,0,1,.76-.1,1,1,0,0,1,.62.47A1,1,0,0,1,104.72,90.91Z"/><path d="M123.79,85.68a1.71,1.71,0,0,1,.2-2,1.84,1.84,0,0,1,1.72-.86,2.58,2.58,0,0,1,.62-.08,2.46,2.46,0,0,1,1.87,3.59,1.48,1.48,0,0,1-.35.43,2,2,0,0,1-2,.9,1.92,1.92,0,0,1-1.37-.62,2.48,2.48,0,0,1-.66-1.33A0,0,0,0,1,123.79,85.68Zm3,4.84a16.36,16.36,0,0,1,.49,2.87q.14,1.58.14,2.73t-.06,2.94q-.06,1.79-.06,2.57,0,1.4.12,4.17t.12,4.17a1,1,0,1,1-2,0q0-1.4-.12-4.17t-.12-4.17q0-.94.06-2.69t.06-2.83q0-1.07-.12-2.48a14,14,0,0,0-.43-2.57,1,1,0,0,1,.1-.78,1,1,0,0,1,.62-.47.92.92,0,0,1,.76.1A1,1,0,0,1,126.75,90.52Z"/><path class="cls-2" d="M146.25,83.19h2L148.2,92q.51-.47,1.07-.94t1.33-1q.76-.57,1-.76,4.13-3.16,9-.12l.58.39.62.39.62.39q.39.27.62.47l.55.47a6.93,6.93,0,0,1,.64.57,5.62,5.62,0,0,1,.53.6,10,10,0,0,1,2.13,4.37,11.44,11.44,0,0,1,.06,4.74,12.81,12.81,0,0,1-1.72,4.27,11.15,11.15,0,0,1-3.1,3.28,9.64,9.64,0,0,1-4.25,1.62,8.93,8.93,0,0,1-5-.84,21.16,21.16,0,0,1-4.8-2.89l0,3.59h-2ZM148.16,95l-.08,9.28a19.17,19.17,0,0,0,5.58,3.71,7.33,7.33,0,0,0,7.29-.59,9,9,0,0,0,2.54-2.69,10.44,10.44,0,0,0,1.42-3.59,9.88,9.88,0,0,0,0-3.9,8.05,8.05,0,0,0-1.7-3.55q-.2-.23-.41-.45a6.17,6.17,0,0,0-.51-.45l-.47-.39a6,6,0,0,0-.55-.41,5.76,5.76,0,0,0-.53-.33l-.62-.39q-.47-.31-.62-.39a6.57,6.57,0,0,0-3.39-1.19,5.35,5.35,0,0,0-3.24,1.23l-1.21.9q-.86.62-1.23.94t-.92.86a7.74,7.74,0,0,0-.9,1.05A1,1,0,0,1,148.16,95Z"/><path class="cls-2" d="M174.06,90.21q-.08.43-.33,1.66t-.33,1.74l-.31,1.52q-.2,1.05-.25,1.7t-.12,1.52a12,12,0,0,0,0,1.68q.06.8.18,1.58a10.92,10.92,0,0,0,.76,2.75,6.2,6.2,0,0,0,1.38,2.13,8.06,8.06,0,0,0,4.86,2.09,7,7,0,0,0,5-1.11,8.84,8.84,0,0,0,2.36-3,17.82,17.82,0,0,0,1.58-4.43,17.37,17.37,0,0,0,.37-4.66,10.61,10.61,0,0,0-.84-3.8.91.91,0,0,1-.06-.76,1,1,0,0,1,.51-.58,1,1,0,0,1,.78,0,.88.88,0,0,1,.57.53,11.46,11.46,0,0,1,1.07,4.56,21.19,21.19,0,0,1-2.2,10.22,10.26,10.26,0,0,1-3,3.59,9.15,9.15,0,0,1-6.4,1.48,10,10,0,0,1-6-2.61,8,8,0,0,1-1.79-2.73,14.89,14.89,0,0,1-1-3.31,17,17,0,0,1-.18-2.2q0-1.15,0-1.93t.25-2.16q.21-1.38.33-1.85l.39-2.07q.35-1.64.43-1.87a1,1,0,0,1,.43-.66.93.93,0,0,1,.76-.14,1,1,0,0,1,.64.45A.84.84,0,0,1,174.06,90.21Z"/></svg>