<svg id="Layer_1" data-name="Layer 1" xmlns="http://www.w3.org/2000/svg" viewBox="0 0 245 206"><defs><style>.cls-1{fill:#f14183;stroke:#000;stroke-miterlimit:10;stroke-width:7px;}.cls-2{fill:#fff;}</style></defs><title>anyi cholu</title><rect class="cls-1" x="2.87" y="0.9" width="245" height="206"/><path d="M104.16,78.6a10.69,10.69,0,0,1-3.67,2.87,15.48,15.48,0,0,1-4.8,1.5,14.3,14.3,0,0,1-3.94,0,8.19,8.19,0,0,1-3.51-1.4,6,6,0,0,1-2.3-3,3.21,3.21,0,0,1-.25-1q-.06-.59-.06-.94t0-1c0-.43,0-.67,0-.72v-.43q0-1.6.1-2.5a12.66,12.66,0,0,1,.43-2.3,9.25,9.25,0,0,1,1.07-2.53A13,13,0,0,1,91,63.33a14.06,14.06,0,0,1,5-2.2,9.31,9.31,0,0,1,8.27,1.72,1,1,0,0,1,.86-.16,1.24,1.24,0,0,1,.7.51c.05.1.1.22.16.35s.1.4.16.66.09.9.12,1.6,0,1.37,0,2.3a17.56,17.56,0,0,1,0,5q0,1.48,0,2,0,4.6.16,6.67a1,1,0,0,1-.23.74,1,1,0,0,1-.7.35,1,1,0,0,1-.74-.23,1,1,0,0,1-.35-.7Q104.2,80.39,104.16,78.6Zm0-10.33q-.2-1.33-.31-2.46l-.08-.47a6.43,6.43,0,0,0-3.32-2.16,8.68,8.68,0,0,0-4.13-.06A12.19,12.19,0,0,0,92.15,65,11,11,0,0,0,89,68.23a7.21,7.21,0,0,0-.88,2.15,11.21,11.21,0,0,0-.33,2q0,.78-.08,2.53,0,.31,0,.88c0,.38,0,.65,0,.82a6.14,6.14,0,0,0,0,.62,3.78,3.78,0,0,0,.12.64,4.51,4.51,0,0,0,2.77,2.67,9.58,9.58,0,0,0,4.84.41,12.5,12.5,0,0,0,4.91-1.7,6.92,6.92,0,0,0,3-3.1,13.79,13.79,0,0,0,.9-3.24q0-2.93,0-4.56Z"/><path d="M111,62.06l2-.08.12,2.53a11.37,11.37,0,0,1,5.69-3.9,14.3,14.3,0,0,1,3.24-.55,6.67,6.67,0,0,1,3.16.64,6.55,6.55,0,0,1,2.61,2.2,13.09,13.09,0,0,1,1.74,3.22,17,17,0,0,1,.88,3.22,20.61,20.61,0,0,1,.21,3.39,32.65,32.65,0,0,1-.18,3.28l-.39,3.31q-.23,2-.31,3.16a1,1,0,0,1-.35.7,1,1,0,0,1-.74.23,1,1,0,0,1-.7-.35,1,1,0,0,1-.23-.74q.12-1.44.35-3.35l.31-3.28q.16-1.25.2-3a18.18,18.18,0,0,0-.16-3,13.5,13.5,0,0,0-.76-2.79,12.76,12.76,0,0,0-1.5-2.81,4.59,4.59,0,0,0-2.91-1.87,7,7,0,0,0-3.84.31,10.05,10.05,0,0,0-3.59,2,6.77,6.77,0,0,0-2.07,3,1,1,0,0,1-.47.55l.78,14.59-2,.08Z"/><path d="M138.95,63.16q-.2.78-.35,1.68a14.5,14.5,0,0,0-.2,1.5c0,.4-.07,1-.14,1.74s-.11,1.33-.14,1.72a20.78,20.78,0,0,0,.23,6.4,8.37,8.37,0,0,0,2.85,4.56,4,4,0,0,0,3.55,1q3.51-.66,5-5A35.43,35.43,0,0,0,151,68.58q.19-3,.23-4.45v-.08a1.67,1.67,0,0,1,.58-1.87,1,1,0,0,1,.94,0,1.25,1.25,0,0,1,.43.39,1.7,1.7,0,0,1,.12.31.7.7,0,0,0,0,.23v2.22q0,4.06-.12,6.43-.27,5.54-.12,10.65,0,.12.1,1.31a16.66,16.66,0,0,1,.06,2,6.28,6.28,0,0,1-.27,1.6,5.73,5.73,0,0,1-1.74,2.54,7.22,7.22,0,0,1-2.71,1.48,5.45,5.45,0,0,1-3,.16,4.91,4.91,0,0,1-2.73-1.6,1,1,0,0,1-.23-.74,1,1,0,0,1,.35-.7,1,1,0,0,1,.74-.23,1,1,0,0,1,.7.35,3.17,3.17,0,0,0,3.63.82,5.06,5.06,0,0,0,1.93-1,3.8,3.8,0,0,0,1.36-2.81,12.82,12.82,0,0,0-.08-1.6c-.07-.66-.1-1.16-.1-1.5L151,79a8,8,0,0,1-5.85,4.76,6.43,6.43,0,0,1-2.81-.16,6.37,6.37,0,0,1-2.46-1.29,11.79,11.79,0,0,1-2.36-2.85,9.68,9.68,0,0,1-1.21-3.12A21.93,21.93,0,0,1,136,73a22.25,22.25,0,0,1,.14-3.39q0-.51.12-1.64l.16-1.87q.08-.66.23-1.66a17,17,0,0,1,.39-1.85,1,1,0,0,1,.47-.6.92.92,0,0,1,.76-.1,1,1,0,0,1,.63.47A1,1,0,0,1,138.95,63.16Z"/><path d="M158,57.93a1.71,1.71,0,0,1,.19-2,1.84,1.84,0,0,1,1.72-.86,2.58,2.58,0,0,1,.62-.08,2.46,2.46,0,0,1,1.87,3.59,1.46,1.46,0,0,1-.35.43,2,2,0,0,1-2,.9,1.92,1.92,0,0,1-1.37-.62,2.47,2.47,0,0,1-.66-1.33A0,0,0,0,1,158,57.93Zm3,4.84a16.36,16.36,0,0,1,.49,2.87q.14,1.58.14,2.73t-.06,2.94q-.06,1.79-.06,2.57,0,1.4.12,4.17t.12,4.17a1,1,0,1,1-2,0q0-1.4-.12-4.17t-.12-4.17q0-.94.06-2.69t.06-2.83q0-1.07-.12-2.48a14,14,0,0,0-.43-2.57,1,1,0,0,1,.1-.78,1,1,0,0,1,.62-.47.92.92,0,0,1,.76.1A1,1,0,0,1,161,62.77Z"/><path class="cls-2" d="M90.45,113.93a6.1,6.1,0,0,0-2.63-3.16,7.72,7.72,0,0,0-4-1,10.07,10.07,0,0,0-4.29,1.07A10.18,10.18,0,0,0,76,113.58a10.53,10.53,0,0,0-1.79,3.63,10.73,10.73,0,0,0-.39,4,7,7,0,0,0,1.29,3.55,5.56,5.56,0,0,0,3,2,21.56,21.56,0,0,0,6.55.82,7.13,7.13,0,0,0,3.33-.76,10.81,10.81,0,0,0,2.83-2.51,1,1,0,0,1,.7-.35,1,1,0,0,1,.74.23,1,1,0,0,1,.35.7,1,1,0,0,1-.23.74,13.8,13.8,0,0,1-3.47,3,8.63,8.63,0,0,1-4.25,1,23.28,23.28,0,0,1-7.1-.9,7.32,7.32,0,0,1-4.1-2.71,9.17,9.17,0,0,1-1.72-4.54,12.88,12.88,0,0,1,.47-4.84,12,12,0,0,1,2.18-4.29,11.29,11.29,0,0,1,4.11-3.28,12.69,12.69,0,0,1,5.17-1.29A9.5,9.5,0,0,1,88.87,109a8.12,8.12,0,0,1,3.45,4.11,1,1,0,0,1,0,.78.94.94,0,0,1-.55.55,1,1,0,0,1-.78,0A.94.94,0,0,1,90.45,113.93Z"/><path class="cls-2" d="M98.29,102.16h2l0,10.26a12.7,12.7,0,0,1,1.64-2,8.28,8.28,0,0,1,6.4-2.07,11,11,0,0,1,3.43.78,7.54,7.54,0,0,1,2.73,1.83q2.42,2.61,2.81,9,.12,2,0,5,0,.55,0,1.44t0,1.56q0,.66,0,1.21a1,1,0,1,1-2,0q0-.55,0-1.23t0-1.58q0-.9,0-1.44.08-2.89,0-4.84-.35-5.62-2.26-7.68a6.87,6.87,0,0,0-4.8-2,6.29,6.29,0,0,0-4.87,1.52,10.19,10.19,0,0,0-2,2.67,9.34,9.34,0,0,0-1,3.18,2.75,2.75,0,0,1-.12.35l-.08,11.82h-2Z"/><path class="cls-2" d="M140.64,109.72a.88.88,0,0,1,.31.16,7.88,7.88,0,0,1,1.17,1.29,11.75,11.75,0,0,1,.72,1.09q.21.39.68,1.4a13.24,13.24,0,0,1,1.13,4.87,12.62,12.62,0,0,1-.74,5,10.06,10.06,0,0,1-2.89,4.17,8.83,8.83,0,0,1-4.8,2,21.89,21.89,0,0,1-4.17-.12,11.49,11.49,0,0,1-7.45-3.32,10.71,10.71,0,0,1-3.16-7.6,13.1,13.1,0,0,1,.9-4.87,11.55,11.55,0,0,1,2.38-3.8,11.17,11.17,0,0,1,3.45-2.44,11,11,0,0,1,4.08-1,11.29,11.29,0,0,1,4.31.68A11.88,11.88,0,0,1,140.64,109.72Zm-.55,2.3a11.16,11.16,0,0,0-3.43-2.55,9.12,9.12,0,0,0-3.69-.92,8.88,8.88,0,0,0-3.55.66,9,9,0,0,0-5.15,5.19,11.1,11.1,0,0,0-.8,4.25,8.73,8.73,0,0,0,2.61,6.2,9.47,9.47,0,0,0,6.2,2.69,17.26,17.26,0,0,0,3.71.12,7,7,0,0,0,3.74-1.56,7.72,7.72,0,0,0,2.26-3.32,11.07,11.07,0,0,0,.62-4.17,10.2,10.2,0,0,0-1-4.09,15.35,15.35,0,0,0-1.21-2.26A1,1,0,0,1,140.1,112Z"/><path class="cls-2" d="M150.12,101.1h2l.51,28.43h-2Z"/><path class="cls-2" d="M159.56,109.25q-.08.43-.33,1.66t-.33,1.74l-.31,1.52q-.2,1.05-.25,1.7t-.12,1.52a12,12,0,0,0,0,1.68q.06.8.18,1.58a10.92,10.92,0,0,0,.76,2.75,6.2,6.2,0,0,0,1.38,2.13,8.06,8.06,0,0,0,4.86,2.09,7,7,0,0,0,5-1.11,8.84,8.84,0,0,0,2.36-3,17.82,17.82,0,0,0,1.58-4.43,17.36,17.36,0,0,0,.37-4.66,10.61,10.61,0,0,0-.84-3.8.91.91,0,0,1-.06-.76,1,1,0,0,1,.51-.58,1,1,0,0,1,.78,0,.88.88,0,0,1,.57.53,11.46,11.46,0,0,1,1.07,4.56,21.19,21.19,0,0,1-2.2,10.22,10.25,10.25,0,0,1-3,3.59,9.15,9.15,0,0,1-6.4,1.48,10,10,0,0,1-6-2.61,8,8,0,0,1-1.79-2.73,14.9,14.9,0,0,1-1-3.32,17,17,0,0,1-.18-2.2q0-1.15,0-1.93t.25-2.16q.21-1.38.33-1.85l.39-2.07q.35-1.64.43-1.87a1,1,0,0,1,.43-.66.93.93,0,0,1,.76-.14,1,1,0,0,1,.64.45A.84.84,0,0,1,159.56,109.25Z"/></svg>