<svg id="Layer_1" data-name="Layer 1" xmlns="http://www.w3.org/2000/svg" viewBox="0 0 666.14 103.54"><defs><style>.cls-1{fill:#f472bb;stroke:#000;stroke-miterlimit:10;stroke-width:7px;}.cls-2{fill:#fff;}</style></defs><title>bu = to be</title><rect class="cls-1" x="0.12" y="0.04" width="665.56" height="104.09"/><path class="cls-2" d="M216.27,26.57h2.34l-.09,10.22q.58-.54,1.24-1.08t1.53-1.19q.88-.65,1.15-.88,4.77-3.64,10.35-.13l.68.45.72.45.72.45c.3.21.54.39.72.54l.63.54a7.94,7.94,0,0,1,.74.65,6.51,6.51,0,0,1,.61.7,11.49,11.49,0,0,1,2.45,5,13.19,13.19,0,0,1,.07,5.47,14.79,14.79,0,0,1-2,4.93,12.88,12.88,0,0,1-3.58,3.78,11.13,11.13,0,0,1-4.91,1.87,10.3,10.3,0,0,1-5.74-1,24.41,24.41,0,0,1-5.54-3.33l0,4.14H216Zm2.2,13.68L218.39,51a22.1,22.1,0,0,0,6.44,4.27,8.45,8.45,0,0,0,8.42-.67,10.39,10.39,0,0,0,2.92-3.1,12,12,0,0,0,1.64-4.14,11.38,11.38,0,0,0,0-4.5,9.28,9.28,0,0,0-2-4.09q-.23-.27-.47-.52a7.22,7.22,0,0,0-.58-.52l-.54-.45a6.87,6.87,0,0,0-.63-.47,6.52,6.52,0,0,0-.61-.38l-.72-.45q-.54-.36-.72-.45a7.59,7.59,0,0,0-3.92-1.37,6.18,6.18,0,0,0-3.73,1.42l-1.4,1q-1,.72-1.42,1.08t-1.06,1a9,9,0,0,0-1,1.22A1.1,1.1,0,0,1,218.48,40.25Z"/><path class="cls-2" d="M248.36,34.67q-.09.5-.38,1.91t-.38,2l-.36,1.75q-.23,1.22-.29,2T246.8,44a13.89,13.89,0,0,0,0,1.93q.07.92.2,1.82a12.62,12.62,0,0,0,.88,3.17,7.15,7.15,0,0,0,1.6,2.45,9.29,9.29,0,0,0,5.6,2.41,8,8,0,0,0,5.78-1.28,10.22,10.22,0,0,0,2.72-3.44A20.54,20.54,0,0,0,265.41,46a20,20,0,0,0,.43-5.38,12.25,12.25,0,0,0-1-4.39,1,1,0,0,1-.07-.88,1.09,1.09,0,0,1,.58-.68,1.17,1.17,0,0,1,.9,0,1,1,0,0,1,.65.61,13.22,13.22,0,0,1,1.24,5.27,21.39,21.39,0,0,1-.52,6,21.49,21.49,0,0,1-2,5.81,11.84,11.84,0,0,1-3.42,4.14,10.56,10.56,0,0,1-7.38,1.71,11.55,11.55,0,0,1-7-3A9.29,9.29,0,0,1,245.79,52a17.21,17.21,0,0,1-1.12-3.83,19.62,19.62,0,0,1-.2-2.54q0-1.33,0-2.23t.29-2.5q.25-1.6.38-2.14l.45-2.39q.41-1.89.5-2.16a1.12,1.12,0,0,1,.5-.77,1.07,1.07,0,0,1,.88-.16,1.2,1.2,0,0,1,.74.52A1,1,0,0,1,248.36,34.67Z"/><path class="cls-2" d="M288,42.14a14.35,14.35,0,0,1,2.81-.45q1.46-.09,3.62,0l2.66,0a80.27,80.27,0,0,0,9.58-.81,1.12,1.12,0,0,1,.81.23,1.15,1.15,0,0,1,.22,1.58,1.17,1.17,0,0,1-.76.45,83.27,83.27,0,0,1-9.85.81l-2.77,0q-2,0-3.29,0a17.09,17.09,0,0,0-2.5.36,1,1,0,0,1-.85-.11,1.1,1.1,0,0,1-.52-.7,1.08,1.08,0,0,1,.14-.86A1,1,0,0,1,288,42.14Zm.72,9.18,2.45-.34q1.24-.16,2.74-.23t2.39-.13q.88-.07,2.75-.09l2.36,0h5.13a1.13,1.13,0,0,1,0,2.25h-4.46l-2.11,0-2.29,0-2.09.09-2.25.14q-.92.07-2.07.2t-2.18.31a1.19,1.19,0,0,1-.83-.22,1,1,0,0,1-.45-.72,1.11,1.11,0,0,1,.2-.83A1.13,1.13,0,0,1,288.72,51.32Z"/><path class="cls-2" d="M326.07,48.57l-.27-2.34,4.46-.54-.72-19.17,2.34-.09.72,19,4.91-.58.27,2.34-5.08.58.4,10.53-2.34.09L330.35,48Z"/><path class="cls-2" d="M364.68,35.21a1,1,0,0,1,.36.18,9,9,0,0,1,1.35,1.48,13.55,13.55,0,0,1,.83,1.26q.25.45.79,1.62a15.3,15.3,0,0,1,1.31,5.63,14.56,14.56,0,0,1-.85,5.72,11.61,11.61,0,0,1-3.33,4.81,10.18,10.18,0,0,1-5.54,2.34,25.23,25.23,0,0,1-4.81-.13,13.25,13.25,0,0,1-8.59-3.83,12.36,12.36,0,0,1-3.65-8.77,15.11,15.11,0,0,1,1-5.62,13.32,13.32,0,0,1,2.75-4.39,12.89,12.89,0,0,1,4-2.81,12.67,12.67,0,0,1,4.7-1.15,13,13,0,0,1,5,.79A13.72,13.72,0,0,1,364.68,35.21Zm-.63,2.66a12.88,12.88,0,0,0-4-2.95,10.52,10.52,0,0,0-4.25-1.06,10.24,10.24,0,0,0-4.1.77,10.42,10.42,0,0,0-5.94,6,12.81,12.81,0,0,0-.92,4.91,10.07,10.07,0,0,0,3,7.15,10.92,10.92,0,0,0,7.15,3.1,20,20,0,0,0,4.27.14,8,8,0,0,0,4.32-1.8,8.9,8.9,0,0,0,2.61-3.82,12.77,12.77,0,0,0,.72-4.81,11.78,11.78,0,0,0-1.12-4.73,17.78,17.78,0,0,0-1.4-2.61A1.18,1.18,0,0,1,364.05,37.86Z"/><path class="cls-2" d="M389.79,26.57h2.34L392,36.78q.58-.54,1.24-1.08t1.53-1.19q.88-.65,1.15-.88,4.77-3.64,10.35-.13l.67.45.72.45.72.45q.45.31.72.54l.63.54a8,8,0,0,1,.74.65,6.67,6.67,0,0,1,.61.7,11.5,11.5,0,0,1,2.45,5,13.19,13.19,0,0,1,.07,5.47,14.8,14.8,0,0,1-2,4.93,12.89,12.89,0,0,1-3.58,3.78,11.12,11.12,0,0,1-4.9,1.87,10.3,10.3,0,0,1-5.74-1,24.4,24.4,0,0,1-5.53-3.33l0,4.14h-2.34ZM392,40.25,391.9,51a22.09,22.09,0,0,0,6.43,4.27,8.45,8.45,0,0,0,8.42-.67,10.38,10.38,0,0,0,2.92-3.1,12,12,0,0,0,1.64-4.14,11.36,11.36,0,0,0,0-4.5,9.28,9.28,0,0,0-2-4.09q-.23-.27-.47-.52a7.48,7.48,0,0,0-.58-.52l-.54-.45a7.08,7.08,0,0,0-.63-.47,6.5,6.5,0,0,0-.61-.38l-.72-.45c-.36-.24-.6-.39-.72-.45a7.59,7.59,0,0,0-3.92-1.37,6.18,6.18,0,0,0-3.74,1.42l-1.39,1q-1,.72-1.42,1.08t-1.06,1a9,9,0,0,0-1,1.22A1.11,1.11,0,0,1,392,40.25Z"/><path class="cls-2" d="M418,50.78l-.09-2.34h.49a7,7,0,0,1,0-1.12,17.23,17.23,0,0,1,2.79-9.18q2.93-4.45,8.78-4.36,7.33.13,10.26,4.41,2.52,3.74,1.8,11a1.11,1.11,0,0,1-.43.77,1.17,1.17,0,0,1-.88.27.34.34,0,0,1-.13,0l-19.53.5a8,8,0,0,0,2.25,4.1,6.45,6.45,0,0,0,2.75,1.57,20.68,20.68,0,0,0,3.87.54,11.86,11.86,0,0,0,4.18-.4,11.64,11.64,0,0,0,3.6-2,1.06,1.06,0,0,1,.83-.27,1.2,1.2,0,0,1,1.06,1.28,1.1,1.1,0,0,1-.45.79,13,13,0,0,1-4.32,2.45,14.69,14.69,0,0,1-5,.52,22.48,22.48,0,0,1-4.59-.68,8.11,8.11,0,0,1-3.56-2.07,10.67,10.67,0,0,1-3-5.72Zm2.75-2.43,19-.45q.41-5.62-1.48-8.42-2.21-3.28-8.33-3.37a7.36,7.36,0,0,0-6.79,3.29,14.8,14.8,0,0,0-2.43,8A4.93,4.93,0,0,0,420.75,48.35Z"/></svg>