<svg id="Layer_1" data-name="Layer 1" xmlns="http://www.w3.org/2000/svg" viewBox="0 0 666.14 103.54"><defs><style>.cls-1{fill:#f14183;stroke:#000;stroke-miterlimit:10;stroke-width:7px;}.cls-2{fill:#fff;}</style></defs><title>choo = to like</title><rect class="cls-1" x="0.12" y="0.04" width="665.56" height="104.09"/><path class="cls-2" d="M177.42,40.07a7,7,0,0,0-3-3.65,8.91,8.91,0,0,0-4.66-1.12,11.62,11.62,0,0,0-4.95,1.24,11.75,11.75,0,0,0-4,3.13,12.16,12.16,0,0,0-2.07,4.19,12.38,12.38,0,0,0-.45,4.63,8,8,0,0,0,1.49,4.1,6.41,6.41,0,0,0,3.51,2.29,24.86,24.86,0,0,0,7.56.94,8.23,8.23,0,0,0,3.85-.88,12.46,12.46,0,0,0,3.26-2.9,1.18,1.18,0,0,1,.81-.41,1.1,1.1,0,0,1,.85.27,1.18,1.18,0,0,1,.41.81,1.1,1.1,0,0,1-.27.85,15.93,15.93,0,0,1-4,3.42,10,10,0,0,1-4.91,1.17,26.89,26.89,0,0,1-8.19-1A8.45,8.45,0,0,1,157.89,54a10.58,10.58,0,0,1-2-5.24,14.87,14.87,0,0,1,.54-5.58A13.8,13.8,0,0,1,159,38.22a13,13,0,0,1,4.75-3.78,14.65,14.65,0,0,1,6-1.48,11,11,0,0,1,5.92,1.46,9.37,9.37,0,0,1,4,4.75,1.17,1.17,0,0,1,0,.9,1.09,1.09,0,0,1-.63.63,1.17,1.17,0,0,1-.9,0A1.08,1.08,0,0,1,177.42,40.07Z"/><path class="cls-2" d="M186.46,26.48h2.34l0,11.83A14.62,14.62,0,0,1,190.65,36,9.55,9.55,0,0,1,198,33.59a12.71,12.71,0,0,1,4,.9,8.71,8.71,0,0,1,3.15,2.11q2.79,3,3.24,10.35.13,2.34,0,5.76,0,.63,0,1.67t0,1.8q0,.77,0,1.4a1.17,1.17,0,1,1-2.34,0q0-.63,0-1.42t0-1.82q0-1,0-1.67.09-3.33,0-5.58-.41-6.48-2.61-8.86a7.93,7.93,0,0,0-5.54-2.29,7.26,7.26,0,0,0-5.62,1.75A11.78,11.78,0,0,0,190,40.76a10.77,10.77,0,0,0-1.17,3.67,3.26,3.26,0,0,1-.13.4l-.09,13.64h-2.34Z"/><path class="cls-2" d="M235.33,35.21a1,1,0,0,1,.36.18A9,9,0,0,1,237,36.87a13.55,13.55,0,0,1,.83,1.26q.25.45.79,1.62A15.3,15.3,0,0,1,240,45.38a14.56,14.56,0,0,1-.85,5.72,11.61,11.61,0,0,1-3.33,4.81,10.18,10.18,0,0,1-5.54,2.34,25.23,25.23,0,0,1-4.81-.13,13.25,13.25,0,0,1-8.59-3.83,12.36,12.36,0,0,1-3.65-8.77,15.11,15.11,0,0,1,1-5.62A13.32,13.32,0,0,1,217,35.5a12.89,12.89,0,0,1,4-2.81,12.67,12.67,0,0,1,4.7-1.15,13,13,0,0,1,5,.79A13.72,13.72,0,0,1,235.33,35.21Zm-.63,2.66a12.88,12.88,0,0,0-4-2.95,10.52,10.52,0,0,0-4.25-1.06,10.24,10.24,0,0,0-4.1.77,10.42,10.42,0,0,0-5.94,6,12.81,12.81,0,0,0-.92,4.91,10.07,10.07,0,0,0,3,7.15,10.92,10.92,0,0,0,7.15,3.1,20,20,0,0,0,4.27.14,8,8,0,0,0,4.32-1.8,8.9,8.9,0,0,0,2.61-3.82,12.77,12.77,0,0,0,.72-4.81,11.78,11.78,0,0,0-1.12-4.73,17.78,17.78,0,0,0-1.4-2.61A1.18,1.18,0,0,1,234.7,37.86Z"/><path class="cls-2" d="M266.87,35.21a1,1,0,0,1,.36.18,9,9,0,0,1,1.35,1.48,13.55,13.55,0,0,1,.83,1.26q.25.45.79,1.62a15.3,15.3,0,0,1,1.31,5.63,14.56,14.56,0,0,1-.85,5.72,11.61,11.61,0,0,1-3.33,4.81,10.18,10.18,0,0,1-5.54,2.34,25.23,25.23,0,0,1-4.81-.13,13.25,13.25,0,0,1-8.59-3.83,12.36,12.36,0,0,1-3.65-8.77,15.11,15.11,0,0,1,1-5.62,13.32,13.32,0,0,1,2.75-4.39,12.89,12.89,0,0,1,4-2.81,12.67,12.67,0,0,1,4.7-1.15,13,13,0,0,1,5,.79A13.72,13.72,0,0,1,266.87,35.21Zm-.63,2.66a12.88,12.88,0,0,0-4-2.95A10.52,10.52,0,0,0,258,33.86a10.24,10.24,0,0,0-4.1.77,10.42,10.42,0,0,0-5.94,6,12.81,12.81,0,0,0-.92,4.91,10.07,10.07,0,0,0,3,7.15,10.92,10.92,0,0,0,7.15,3.1,20,20,0,0,0,4.27.14,8,8,0,0,0,4.32-1.8,8.9,8.9,0,0,0,2.61-3.82,12.77,12.77,0,0,0,.72-4.81A11.78,11.78,0,0,0,268,40.74a17.78,17.78,0,0,0-1.4-2.61A1.18,1.18,0,0,1,266.24,37.86Z"/><path class="cls-2" d="M291.35,42.14a14.35,14.35,0,0,1,2.81-.45q1.46-.09,3.62,0l2.66,0a80.27,80.27,0,0,0,9.58-.81,1.12,1.12,0,0,1,.81.23,1.15,1.15,0,0,1,.22,1.58,1.17,1.17,0,0,1-.76.45,83.27,83.27,0,0,1-9.85.81l-2.77,0q-2,0-3.29,0a17.09,17.09,0,0,0-2.5.36,1,1,0,0,1-.85-.11,1.1,1.1,0,0,1-.52-.7,1.08,1.08,0,0,1,.14-.86A1,1,0,0,1,291.35,42.14Zm.72,9.18,2.45-.34q1.24-.16,2.74-.23t2.39-.13q.88-.07,2.75-.09l2.36,0h5.13a1.13,1.13,0,0,1,0,2.25h-4.46l-2.11,0-2.29,0-2.09.09-2.25.14q-.92.07-2.07.2t-2.18.31a1.19,1.19,0,0,1-.83-.22,1,1,0,0,1-.45-.72,1.11,1.11,0,0,1,.2-.83A1.13,1.13,0,0,1,292.07,51.32Z"/><path class="cls-2" d="M329.42,48.57l-.27-2.34,4.46-.54-.72-19.17,2.34-.09.72,19,4.91-.58.27,2.34-5.08.58.4,10.53-2.34.09L333.7,48Z"/><path class="cls-2" d="M368,35.21a1,1,0,0,1,.36.18,9,9,0,0,1,1.35,1.48,13.55,13.55,0,0,1,.83,1.26q.25.45.79,1.62a15.3,15.3,0,0,1,1.31,5.63,14.56,14.56,0,0,1-.85,5.72,11.61,11.61,0,0,1-3.33,4.81,10.18,10.18,0,0,1-5.54,2.34,25.23,25.23,0,0,1-4.81-.13,13.25,13.25,0,0,1-8.59-3.83,12.36,12.36,0,0,1-3.65-8.77,15.11,15.11,0,0,1,1-5.62,13.32,13.32,0,0,1,2.75-4.39,12.89,12.89,0,0,1,4-2.81,12.67,12.67,0,0,1,4.7-1.15,13,13,0,0,1,5,.79A13.72,13.72,0,0,1,368,35.21Zm-.63,2.66a12.88,12.88,0,0,0-4-2.95,10.52,10.52,0,0,0-4.25-1.06,10.24,10.24,0,0,0-4.1.77,10.42,10.42,0,0,0-5.94,6,12.81,12.81,0,0,0-.92,4.91,10.07,10.07,0,0,0,3,7.15,10.92,10.92,0,0,0,7.15,3.1,20,20,0,0,0,4.27.14,8,8,0,0,0,4.32-1.8,8.9,8.9,0,0,0,2.61-3.82,12.77,12.77,0,0,0,.72-4.81,11.78,11.78,0,0,0-1.12-4.73,17.78,17.78,0,0,0-1.4-2.61A1.18,1.18,0,0,1,367.4,37.86Z"/><path class="cls-2" d="M397,36.33q-.09.23-.61,1.85t-.74,2.43L395,42.9q-.4,1.49-.63,2.75a22.48,22.48,0,0,0-.32,2.43,11.11,11.11,0,0,0,.63,5.35,5.09,5.09,0,0,0,3.56,2.83,8.42,8.42,0,0,0,3.38.31q2.56-.45,4.32-5.22a33.51,33.51,0,0,0,1.67-7.2q0-.85,0-1.21t.18-2v-.5q0-2.11.09-3v-.13c0-.3-.06-.45-.09-.45a3.54,3.54,0,0,1,.09-.85,1.3,1.3,0,0,1,.58-.67,1.53,1.53,0,0,1,.9-.18,1.25,1.25,0,0,1,1,.85l.09.45v.81q0,.72-.14,2.11-.09.59-.18,1.67,0,1.44-.13,2.43,0,.41-.09.85-.18,3.1-.18,4.81A27.89,27.89,0,0,0,410,52.4a3.37,3.37,0,0,0,.58,1.67,6.07,6.07,0,0,0,3.06,1.53q7.2,1.71,10.17-4.91A17.78,17.78,0,0,0,425.16,44a19.77,19.77,0,0,0-.88-6.77,1.22,1.22,0,0,1,.09-.92,1.1,1.1,0,0,1,.7-.56,1.18,1.18,0,0,1,.9.09,1.1,1.1,0,0,1,.56.68,22.16,22.16,0,0,1,.95,7.56,20.18,20.18,0,0,1-1.58,7.51A11.27,11.27,0,0,1,421,57.19a10.81,10.81,0,0,1-7.92.65,8.3,8.3,0,0,1-4.23-2.16,5.5,5.5,0,0,1-1.12-2.56q-2.16,5.18-5.76,5.8a10.77,10.77,0,0,1-4.27-.4,7.26,7.26,0,0,1-5.13-4.14,13,13,0,0,1-.86-6.48q.13-1.3.36-2.65t.63-2.93l.72-2.38q.23-.85.74-2.48t.56-1.84a1.09,1.09,0,0,1,.56-.68,1.17,1.17,0,0,1,.9-.09,1.1,1.1,0,0,1,.7.56A1.22,1.22,0,0,1,397,36.33Z"/><path class="cls-2" d="M453.58,53.3a12.35,12.35,0,0,1-4.23,3.31,17.87,17.87,0,0,1-5.54,1.73,16.5,16.5,0,0,1-4.54,0,9.45,9.45,0,0,1-4-1.62,6.92,6.92,0,0,1-2.66-3.47,3.7,3.7,0,0,1-.29-1.17q-.07-.68-.07-1.08c0-.27,0-.65,0-1.15s0-.77,0-.83v-.5q0-1.84.11-2.88a14.6,14.6,0,0,1,.5-2.65,10.68,10.68,0,0,1,1.24-2.93,15,15,0,0,1,4.28-4.39,16.21,16.21,0,0,1,5.71-2.54,10.74,10.74,0,0,1,9.54,2,1.16,1.16,0,0,1,1-.18,1.43,1.43,0,0,1,.81.58c.06.12.12.26.18.41s.12.47.18.76.1,1,.13,1.85,0,1.58,0,2.65a20.3,20.3,0,0,1,0,5.72q0,1.71,0,2.34,0,5.31.18,7.69a1.1,1.1,0,0,1-.27.85,1.18,1.18,0,0,1-.81.41,1.09,1.09,0,0,1-.85-.27,1.17,1.17,0,0,1-.41-.81Q453.62,55.37,453.58,53.3Zm0-11.92q-.23-1.53-.36-2.83l-.09-.54a7.42,7.42,0,0,0-3.83-2.5,10,10,0,0,0-4.77-.07,14.08,14.08,0,0,0-4.86,2.16,12.67,12.67,0,0,0-3.64,3.73,8.32,8.32,0,0,0-1,2.48,12.81,12.81,0,0,0-.38,2.29q0,.9-.09,2.92,0,.36,0,1c0,.44,0,.75,0,.94a7,7,0,0,0,0,.72,4.27,4.27,0,0,0,.13.74,5.21,5.21,0,0,0,3.2,3.08,11.05,11.05,0,0,0,5.58.47,14.42,14.42,0,0,0,5.67-2,8,8,0,0,0,3.42-3.58,15.9,15.9,0,0,0,1-3.73q0-3.37,0-5.27Z"/><path class="cls-2" d="M461.45,34.22l2.34-.09.13,2.93a13.12,13.12,0,0,1,6.57-4.5,16.5,16.5,0,0,1,3.74-.63,7.7,7.7,0,0,1,3.64.74,7.56,7.56,0,0,1,3,2.54,15.07,15.07,0,0,1,2,3.71,19.59,19.59,0,0,1,1,3.71,23.85,23.85,0,0,1,.25,3.92,37.74,37.74,0,0,1-.2,3.78l-.45,3.82q-.27,2.3-.36,3.65a1.18,1.18,0,0,1-.4.81,1.1,1.1,0,0,1-.86.27,1.18,1.18,0,0,1-.81-.4,1.09,1.09,0,0,1-.27-.85q.13-1.66.41-3.87l.36-3.78q.18-1.44.22-3.44a21,21,0,0,0-.18-3.51,15.56,15.56,0,0,0-.88-3.22A14.71,14.71,0,0,0,479,36.56a5.3,5.3,0,0,0-3.35-2.16,8.11,8.11,0,0,0-4.43.36,11.6,11.6,0,0,0-4.14,2.36,7.8,7.8,0,0,0-2.38,3.44,1.11,1.11,0,0,1-.54.63l.9,16.83-2.34.09Z"/><path class="cls-2" d="M488.77,48.57l-.27-2.34,4.46-.54-.72-19.17,2.34-.09.72,19,4.91-.58.27,2.34-5.08.58.41,10.53-2.34.09L493,48Z"/></svg>