<svg id="Layer_1" data-name="Layer 1" xmlns="http://www.w3.org/2000/svg" viewBox="0 0 666.14 103.54"><defs><style>.cls-1{fill:#73165d;stroke:#000;stroke-miterlimit:10;stroke-width:7px;}.cls-2{fill:#fff;}</style></defs><title>funanya = to like</title><rect class="cls-1" x="0.12" y="0.04" width="665.56" height="104.09"/><path class="cls-2" d="M158.43,31A5.63,5.63,0,0,0,155,28.41a7.15,7.15,0,0,0-4.61.18,5.5,5.5,0,0,0-3.19,2.92q-1.31,2.79-1,8.15.09,1.71.45,4.63.27,2.52.36,3.47h.45l5.85-.14a1.17,1.17,0,1,1,0,2.34l-5.8.13h-.36q0,1,0,3.06,0,2.88.09,4.32a1.1,1.1,0,0,1-.27.85,1.18,1.18,0,0,1-.81.41,1.1,1.1,0,0,1-.85-.27,1.17,1.17,0,0,1-.4-.81q-.09-1.53-.09-4.54v-3q-1.85,0-3.28-.09a1.22,1.22,0,0,1-.79-.41,1,1,0,0,1-.29-.83,1.24,1.24,0,0,1,.4-.81,1.06,1.06,0,0,1,.85-.29q1.35.09,2.93.09l-.36-3.2q-.36-3.19-.45-4.77-.32-6,1.17-9.27a7.69,7.69,0,0,1,3.15-3.44,9.16,9.16,0,0,1,4.41-1.3,9.79,9.79,0,0,1,4.5,1,7.64,7.64,0,0,1,3.42,3.1,1.11,1.11,0,0,1,.09.88,1.2,1.2,0,0,1-.54.72,1.06,1.06,0,0,1-.88.11A1.29,1.29,0,0,1,158.43,31Z"/><path class="cls-2" d="M168.64,34.67q-.09.5-.38,1.91t-.38,2l-.36,1.75q-.23,1.22-.29,2T167.09,44a13.89,13.89,0,0,0,0,1.93q.07.92.2,1.82a12.62,12.62,0,0,0,.88,3.17,7.15,7.15,0,0,0,1.6,2.45,9.29,9.29,0,0,0,5.6,2.41,8,8,0,0,0,5.78-1.28,10.22,10.22,0,0,0,2.72-3.44A20.54,20.54,0,0,0,185.7,46a20,20,0,0,0,.43-5.38,12.25,12.25,0,0,0-1-4.39,1,1,0,0,1-.07-.88,1.09,1.09,0,0,1,.58-.68,1.17,1.17,0,0,1,.9,0,1,1,0,0,1,.65.61,13.22,13.22,0,0,1,1.24,5.27,21.39,21.39,0,0,1-.52,6,21.49,21.49,0,0,1-2,5.81,11.84,11.84,0,0,1-3.42,4.14,10.56,10.56,0,0,1-7.38,1.71,11.55,11.55,0,0,1-7-3A9.29,9.29,0,0,1,166.08,52,17.21,17.21,0,0,1,165,48.17a19.62,19.62,0,0,1-.2-2.54q0-1.33,0-2.23t.29-2.5q.25-1.6.38-2.14l.45-2.39q.41-1.89.5-2.16a1.12,1.12,0,0,1,.5-.77,1.07,1.07,0,0,1,.88-.16,1.2,1.2,0,0,1,.74.52A1,1,0,0,1,168.64,34.67Z"/><path class="cls-2" d="M193.75,34.22l2.34-.09.13,2.93a13.12,13.12,0,0,1,6.57-4.5,16.5,16.5,0,0,1,3.73-.63,7.7,7.7,0,0,1,3.65.74,7.56,7.56,0,0,1,3,2.54,15.09,15.09,0,0,1,2,3.71,19.52,19.52,0,0,1,1,3.71,23.74,23.74,0,0,1,.25,3.92,37.59,37.59,0,0,1-.2,3.78l-.45,3.82q-.27,2.3-.36,3.65a1.18,1.18,0,0,1-.41.81,1.1,1.1,0,0,1-.85.27,1.18,1.18,0,0,1-.81-.4,1.09,1.09,0,0,1-.27-.85q.14-1.66.41-3.87l.36-3.78q.18-1.44.23-3.44a21,21,0,0,0-.18-3.51A15.56,15.56,0,0,0,213,39.8a14.67,14.67,0,0,0-1.73-3.24,5.3,5.3,0,0,0-3.35-2.16,8.11,8.11,0,0,0-4.43.36,11.6,11.6,0,0,0-4.14,2.36A7.81,7.81,0,0,0,197,40.56a1.11,1.11,0,0,1-.54.63l.9,16.83-2.34.09Z"/><path class="cls-2" d="M242.53,53.3a12.34,12.34,0,0,1-4.23,3.31,17.86,17.86,0,0,1-5.53,1.73,16.5,16.5,0,0,1-4.54,0,9.45,9.45,0,0,1-4.05-1.62,6.92,6.92,0,0,1-2.65-3.47,3.7,3.7,0,0,1-.29-1.17q-.07-.68-.07-1.08c0-.27,0-.65,0-1.15s0-.77,0-.83v-.5q0-1.84.11-2.88a14.55,14.55,0,0,1,.5-2.65A10.67,10.67,0,0,1,223,40.07a15,15,0,0,1,4.27-4.39A16.22,16.22,0,0,1,233,33.14a10.74,10.74,0,0,1,9.54,2,1.16,1.16,0,0,1,1-.18,1.43,1.43,0,0,1,.81.58q.09.18.18.41t.18.76q.09.63.14,1.85,0,1,0,2.65a20.26,20.26,0,0,1,0,5.72q0,1.71,0,2.34,0,5.31.18,7.69a1.1,1.1,0,0,1-.27.85,1.18,1.18,0,0,1-.81.41,1.09,1.09,0,0,1-.85-.27,1.17,1.17,0,0,1-.41-.81Q242.58,55.37,242.53,53.3Zm0-11.92q-.23-1.53-.36-2.83l-.09-.54a7.42,7.42,0,0,0-3.83-2.5,10,10,0,0,0-4.77-.07,14.07,14.07,0,0,0-4.86,2.16A12.69,12.69,0,0,0,225,41.33a8.33,8.33,0,0,0-1,2.48,12.9,12.9,0,0,0-.38,2.29q0,.9-.09,2.92,0,.36,0,1c0,.44,0,.75,0,.94a7,7,0,0,0,0,.72,4.32,4.32,0,0,0,.13.74,5.21,5.21,0,0,0,3.2,3.08,11.05,11.05,0,0,0,5.58.47,14.42,14.42,0,0,0,5.67-2,8,8,0,0,0,3.42-3.58,15.92,15.92,0,0,0,1-3.73q0-3.37,0-5.27Z"/><path class="cls-2" d="M250.41,34.22l2.34-.09.13,2.93a13.12,13.12,0,0,1,6.57-4.5,16.5,16.5,0,0,1,3.73-.63,7.7,7.7,0,0,1,3.65.74,7.56,7.56,0,0,1,3,2.54,15.09,15.09,0,0,1,2,3.71,19.52,19.52,0,0,1,1,3.71,23.74,23.74,0,0,1,.25,3.92,37.59,37.59,0,0,1-.2,3.78l-.45,3.82q-.27,2.3-.36,3.65a1.18,1.18,0,0,1-.41.81,1.1,1.1,0,0,1-.85.27,1.18,1.18,0,0,1-.81-.4,1.09,1.09,0,0,1-.27-.85q.14-1.66.41-3.87l.36-3.78q.18-1.44.23-3.44a21,21,0,0,0-.18-3.51,15.56,15.56,0,0,0-.88-3.22A14.67,14.67,0,0,0,268,36.56a5.3,5.3,0,0,0-3.35-2.16,8.11,8.11,0,0,0-4.43.36A11.6,11.6,0,0,0,256,37.12a7.81,7.81,0,0,0-2.39,3.44,1.11,1.11,0,0,1-.54.63L254,58l-2.34.09Z"/><path class="cls-2" d="M282.67,35.48q-.23.9-.41,1.94a16.5,16.5,0,0,0-.22,1.73q0,.7-.16,2t-.16,2a24,24,0,0,0,.27,7.38,9.65,9.65,0,0,0,3.29,5.27,4.58,4.58,0,0,0,4.1,1.13q4-.76,5.71-5.71a40.79,40.79,0,0,0,1.48-9.45q.22-3.51.27-5.13v-.09a1.6,1.6,0,0,1-.09-.41,1.53,1.53,0,0,1,.77-1.75,1.14,1.14,0,0,1,1.08,0,1.44,1.44,0,0,1,.5.45,1.78,1.78,0,0,1,.14.36.84.84,0,0,0,0,.27V38q0,4.68-.14,7.42-.31,6.39-.13,12.29,0,.13.11,1.51a19.16,19.16,0,0,1,.07,2.36,7.19,7.19,0,0,1-.32,1.84,6.62,6.62,0,0,1-2,2.93,8.33,8.33,0,0,1-3.13,1.71,6.29,6.29,0,0,1-3.51.18,5.65,5.65,0,0,1-3.15-1.85,1.09,1.09,0,0,1-.27-.85,1.17,1.17,0,0,1,.4-.81,1.09,1.09,0,0,1,.85-.27,1.18,1.18,0,0,1,.81.41q1.48,1.75,4.19.94a5.85,5.85,0,0,0,2.23-1.19,4.4,4.4,0,0,0,1.57-3.24,14.91,14.91,0,0,0-.09-1.84q-.11-1.15-.11-1.73l-.09-4a9.26,9.26,0,0,1-6.75,5.49,7.43,7.43,0,0,1-3.24-.18,7.35,7.35,0,0,1-2.83-1.48A13.67,13.67,0,0,1,281,54.29a11.17,11.17,0,0,1-1.4-3.6,25.31,25.31,0,0,1-.4-3.82,25.71,25.71,0,0,1,.16-3.92q0-.58.14-1.89l.18-2.16q.09-.76.27-1.91a19.68,19.68,0,0,1,.45-2.14,1.2,1.2,0,0,1,.54-.7,1.06,1.06,0,0,1,.88-.11,1.2,1.2,0,0,1,.72.54A1.1,1.1,0,0,1,282.67,35.48Z"/><path class="cls-2" d="M325.37,53.3a12.34,12.34,0,0,1-4.23,3.31,17.86,17.86,0,0,1-5.53,1.73,16.5,16.5,0,0,1-4.54,0A9.45,9.45,0,0,1,307,56.72a6.92,6.92,0,0,1-2.65-3.47,3.7,3.7,0,0,1-.29-1.17Q304,51.41,304,51c0-.27,0-.65,0-1.15s0-.77,0-.83v-.5q0-1.84.11-2.88a14.55,14.55,0,0,1,.5-2.65,10.67,10.67,0,0,1,1.24-2.93,15,15,0,0,1,4.27-4.39,16.22,16.22,0,0,1,5.72-2.54,10.74,10.74,0,0,1,9.54,2,1.16,1.16,0,0,1,1-.18,1.43,1.43,0,0,1,.81.58q.09.18.18.41t.18.76q.09.63.14,1.85,0,1,0,2.65a20.26,20.26,0,0,1,0,5.72q0,1.71,0,2.34,0,5.31.18,7.69a1.1,1.1,0,0,1-.27.85,1.18,1.18,0,0,1-.81.41,1.09,1.09,0,0,1-.85-.27,1.17,1.17,0,0,1-.41-.81Q325.42,55.37,325.37,53.3Zm0-11.92q-.23-1.53-.36-2.83L325,38a7.42,7.42,0,0,0-3.83-2.5,10,10,0,0,0-4.77-.07,14.07,14.07,0,0,0-4.86,2.16,12.69,12.69,0,0,0-3.65,3.73,8.33,8.33,0,0,0-1,2.48,12.9,12.9,0,0,0-.38,2.29q0,.9-.09,2.92,0,.36,0,1c0,.44,0,.75,0,.94a7,7,0,0,0,0,.72,4.32,4.32,0,0,0,.13.74,5.21,5.21,0,0,0,3.2,3.08,11.05,11.05,0,0,0,5.58.47A14.42,14.42,0,0,0,321,54a8,8,0,0,0,3.42-3.58,15.92,15.92,0,0,0,1-3.73q0-3.37,0-5.27Z"/><path class="cls-2" d="M347.78,42.14a14.35,14.35,0,0,1,2.81-.45q1.46-.09,3.62,0l2.66,0a80.27,80.27,0,0,0,9.58-.81,1.12,1.12,0,0,1,.81.23,1.15,1.15,0,0,1,.22,1.58,1.17,1.17,0,0,1-.76.45,83.27,83.27,0,0,1-9.85.81l-2.77,0q-2,0-3.29,0a17.09,17.09,0,0,0-2.5.36,1,1,0,0,1-.85-.11,1.1,1.1,0,0,1-.52-.7,1.08,1.08,0,0,1,.14-.86A1,1,0,0,1,347.78,42.14Zm.72,9.18L351,51q1.24-.16,2.74-.23t2.39-.13q.88-.07,2.75-.09l2.36,0h5.13a1.13,1.13,0,0,1,0,2.25h-4.46l-2.11,0-2.29,0-2.09.09-2.25.14q-.92.07-2.07.2t-2.18.31a1.19,1.19,0,0,1-.83-.22,1,1,0,0,1-.45-.72,1.11,1.11,0,0,1,.2-.83A1.13,1.13,0,0,1,348.5,51.32Z"/><path class="cls-2" d="M385.85,48.57l-.27-2.34,4.46-.54-.72-19.17,2.34-.09.72,19,4.91-.58.27,2.34-5.08.58.41,10.53-2.34.09L390.13,48Z"/><path class="cls-2" d="M424.46,35.21a1,1,0,0,1,.36.18,9,9,0,0,1,1.35,1.48,13.58,13.58,0,0,1,.83,1.26q.25.45.79,1.62a15.29,15.29,0,0,1,1.3,5.63,14.55,14.55,0,0,1-.85,5.72,11.61,11.61,0,0,1-3.33,4.81,10.18,10.18,0,0,1-5.54,2.34,25.23,25.23,0,0,1-4.81-.13,13.26,13.26,0,0,1-8.6-3.83,12.36,12.36,0,0,1-3.64-8.77,15.11,15.11,0,0,1,1-5.62,13.31,13.31,0,0,1,2.75-4.39,12.88,12.88,0,0,1,4-2.81,12.67,12.67,0,0,1,4.7-1.15,13,13,0,0,1,5,.79A13.71,13.71,0,0,1,424.46,35.21Zm-.63,2.66a12.87,12.87,0,0,0-4-2.95,10.52,10.52,0,0,0-4.25-1.06,10.24,10.24,0,0,0-4.09.77,10.42,10.42,0,0,0-5.94,6,12.81,12.81,0,0,0-.92,4.91,10.07,10.07,0,0,0,3,7.15,10.92,10.92,0,0,0,7.16,3.1,20,20,0,0,0,4.28.14,8,8,0,0,0,4.32-1.8A8.9,8.9,0,0,0,426,50.28a12.77,12.77,0,0,0,.72-4.81,11.77,11.77,0,0,0-1.12-4.73,17.84,17.84,0,0,0-1.39-2.61A1.18,1.18,0,0,1,423.83,37.86Z"/><path class="cls-2" d="M448.9,25.26h2.34l.58,32.8h-2.34Z"/><path class="cls-2" d="M457.18,29.45a2,2,0,0,1,.22-2.3,2.12,2.12,0,0,1,2-1,3,3,0,0,1,.72-.09,2.47,2.47,0,0,1,2.16,1.48,2.49,2.49,0,0,1,0,2.65,1.69,1.69,0,0,1-.41.5,2.29,2.29,0,0,1-2.29,1A2.22,2.22,0,0,1,458,31a2.86,2.86,0,0,1-.76-1.53A0,0,0,0,1,457.18,29.45ZM460.6,35a18.73,18.73,0,0,1,.56,3.31q.16,1.82.16,3.15t-.07,3.4q-.07,2.07-.07,3,0,1.62.13,4.81t.14,4.81a1.17,1.17,0,1,1-2.34,0q0-1.62-.13-4.81t-.13-4.81q0-1.08.07-3.1t.07-3.26q0-1.24-.13-2.86a16.09,16.09,0,0,0-.5-3,1.1,1.1,0,0,1,.11-.9,1.2,1.2,0,0,1,.72-.54,1.06,1.06,0,0,1,.88.11A1.19,1.19,0,0,1,460.6,35Z"/><path class="cls-2" d="M469.86,24.77h2.34L472,46.68l12.2-12.33L485.8,36l-7.29,7.42,6.3,14-2.16,1-5.9-13.14-4.81,4.86-.09,7.79h-2.34Z"/><path class="cls-2" d="M489.94,50.78l-.09-2.34h.49a7,7,0,0,1,0-1.12,17.23,17.23,0,0,1,2.79-9.18q2.93-4.45,8.78-4.36,7.33.13,10.26,4.41,2.52,3.74,1.8,11a1.11,1.11,0,0,1-.43.77,1.17,1.17,0,0,1-.88.27.34.34,0,0,1-.13,0l-19.53.5a8,8,0,0,0,2.25,4.1A6.45,6.45,0,0,0,498,56.36a20.68,20.68,0,0,0,3.87.54,11.86,11.86,0,0,0,4.18-.4,11.64,11.64,0,0,0,3.6-2,1.06,1.06,0,0,1,.83-.27,1.2,1.2,0,0,1,1.06,1.28,1.1,1.1,0,0,1-.45.79,13,13,0,0,1-4.32,2.45,14.69,14.69,0,0,1-5,.52,22.48,22.48,0,0,1-4.59-.68,8.11,8.11,0,0,1-3.56-2.07,10.67,10.67,0,0,1-3-5.72Zm2.75-2.43,19-.45q.41-5.62-1.48-8.42-2.21-3.28-8.33-3.37a7.36,7.36,0,0,0-6.79,3.29,14.8,14.8,0,0,0-2.43,8A4.93,4.93,0,0,0,492.68,48.35Z"/></svg>