<svg id="Layer_1" data-name="Layer 1" xmlns="http://www.w3.org/2000/svg" viewBox="0 0 245 206"><defs><style>.cls-1{fill:#f472bb;stroke:#000;stroke-miterlimit:10;stroke-width:7px;}.cls-2{fill:#fff;}</style></defs><title>ha bu</title><rect class="cls-1" x="2.87" y="0.9" width="245" height="206"/><path d="M68.78,83.11h2l0,10.26a12.64,12.64,0,0,1,1.64-2,8.28,8.28,0,0,1,6.4-2.07,11,11,0,0,1,3.43.78A7.54,7.54,0,0,1,85,91.88q2.42,2.61,2.81,9,.12,2,0,5,0,.55,0,1.44t0,1.56q0,.66,0,1.21a1,1,0,1,1-2,0q0-.55,0-1.23t0-1.58q0-.9,0-1.44.08-2.89,0-4.84-.35-5.62-2.26-7.68a6.87,6.87,0,0,0-4.8-2,6.29,6.29,0,0,0-4.87,1.52,10.18,10.18,0,0,0-2,2.67,9.34,9.34,0,0,0-1,3.18,2.66,2.66,0,0,1-.12.35l-.08,11.82h-2Z"/><path d="M110.43,106.35a10.69,10.69,0,0,1-3.67,2.87,15.49,15.49,0,0,1-4.8,1.5,14.3,14.3,0,0,1-3.94,0,8.19,8.19,0,0,1-3.51-1.4,6,6,0,0,1-2.3-3,3.2,3.2,0,0,1-.25-1q-.06-.59-.06-.94t0-1c0-.43,0-.67,0-.72v-.43q0-1.6.1-2.5a12.66,12.66,0,0,1,.43-2.3,9.23,9.23,0,0,1,1.07-2.53,13,13,0,0,1,3.71-3.8,14.05,14.05,0,0,1,5-2.2,9.31,9.31,0,0,1,8.27,1.72,1,1,0,0,1,.86-.16,1.24,1.24,0,0,1,.7.51c.05.1.1.22.16.35s.1.4.16.66.09.9.12,1.6,0,1.37,0,2.3a17.6,17.6,0,0,1,0,5q0,1.48,0,2,0,4.6.16,6.67a1,1,0,0,1-.23.74,1,1,0,0,1-.7.35,1,1,0,0,1-.74-.23,1,1,0,0,1-.35-.7Q110.47,108.15,110.43,106.35Zm0-10.33q-.2-1.33-.31-2.46l-.08-.47a6.43,6.43,0,0,0-3.32-2.16,8.68,8.68,0,0,0-4.13-.06,12.18,12.18,0,0,0-4.21,1.87A11,11,0,0,0,95.26,96a7.22,7.22,0,0,0-.88,2.15,11.2,11.2,0,0,0-.33,2q0,.78-.08,2.53,0,.31,0,.88c0,.38,0,.65,0,.82a6,6,0,0,0,0,.62,3.68,3.68,0,0,0,.12.64,4.51,4.51,0,0,0,2.77,2.67,9.58,9.58,0,0,0,4.84.41,12.5,12.5,0,0,0,4.91-1.7,6.91,6.91,0,0,0,3-3.1,13.79,13.79,0,0,0,.9-3.24q0-2.93,0-4.56Z"/><path class="cls-2" d="M130.4,83.19h2L132.35,92q.51-.47,1.07-.94t1.33-1q.76-.57,1-.76,4.13-3.16,9-.12l.58.39.62.39.62.39q.39.27.62.47l.55.47a6.93,6.93,0,0,1,.64.57,5.62,5.62,0,0,1,.53.6A10,10,0,0,1,151,96.84a11.44,11.44,0,0,1,.06,4.74,12.81,12.81,0,0,1-1.72,4.27,11.15,11.15,0,0,1-3.1,3.28,9.64,9.64,0,0,1-4.25,1.62,8.93,8.93,0,0,1-5-.84,21.14,21.14,0,0,1-4.8-2.89l0,3.59h-2ZM132.31,95l-.08,9.28a19.15,19.15,0,0,0,5.58,3.71,7.33,7.33,0,0,0,7.29-.59,9,9,0,0,0,2.54-2.69,10.44,10.44,0,0,0,1.42-3.59,9.88,9.88,0,0,0,0-3.9,8.05,8.05,0,0,0-1.7-3.55q-.2-.23-.41-.45a6.17,6.17,0,0,0-.51-.45l-.47-.39a6,6,0,0,0-.55-.41,5.76,5.76,0,0,0-.53-.33l-.62-.39q-.47-.31-.62-.39a6.57,6.57,0,0,0-3.39-1.19A5.35,5.35,0,0,0,137,90.95l-1.21.9q-.86.62-1.23.94t-.92.86a7.74,7.74,0,0,0-.9,1.05A1,1,0,0,1,132.31,95Z"/><path class="cls-2" d="M158.2,90.21q-.08.43-.33,1.66t-.33,1.74l-.31,1.52q-.2,1.05-.25,1.7t-.12,1.52a12,12,0,0,0,0,1.68q.06.8.18,1.58a10.92,10.92,0,0,0,.76,2.75,6.2,6.2,0,0,0,1.38,2.13,8.06,8.06,0,0,0,4.86,2.09,7,7,0,0,0,5-1.11,8.84,8.84,0,0,0,2.36-3A17.82,17.82,0,0,0,173,100a17.37,17.37,0,0,0,.37-4.66,10.61,10.61,0,0,0-.84-3.8.91.91,0,0,1-.06-.76,1,1,0,0,1,.51-.58,1,1,0,0,1,.78,0,.88.88,0,0,1,.57.53,11.46,11.46,0,0,1,1.07,4.56,21.19,21.19,0,0,1-2.2,10.22,10.26,10.26,0,0,1-3,3.59,9.15,9.15,0,0,1-6.4,1.48,10,10,0,0,1-6-2.61,8,8,0,0,1-1.79-2.73,14.89,14.89,0,0,1-1-3.31,17,17,0,0,1-.18-2.2q0-1.15,0-1.93t.25-2.16q.21-1.38.33-1.85l.39-2.07q.35-1.64.43-1.87a1,1,0,0,1,.43-.66.93.93,0,0,1,.76-.14,1,1,0,0,1,.64.45A.84.84,0,0,1,158.2,90.21Z"/></svg>