<svg id="Layer_1" data-name="Layer 1" xmlns="http://www.w3.org/2000/svg" viewBox="0 0 245 206"><defs><style>.cls-1{fill:#f14183;stroke:#000;stroke-miterlimit:10;stroke-width:7px;}.cls-2{fill:#fff;}</style></defs><title>ha cholu</title><rect class="cls-1" x="2.87" y="0.9" width="245" height="206"/><path d="M42.58,84.36h2l0,10.26a12.64,12.64,0,0,1,1.64-2,8.28,8.28,0,0,1,6.4-2.07A11,11,0,0,1,56,91.3a7.54,7.54,0,0,1,2.73,1.83q2.42,2.61,2.81,9,.12,2,0,5,0,.55,0,1.44t0,1.56q0,.66,0,1.21a1,1,0,1,1-2,0q0-.55,0-1.23t0-1.58q0-.9,0-1.44.08-2.89,0-4.84-.35-5.62-2.26-7.68a6.87,6.87,0,0,0-4.8-2,6.29,6.29,0,0,0-4.87,1.52,10.18,10.18,0,0,0-2,2.67,9.34,9.34,0,0,0-1,3.18,2.66,2.66,0,0,1-.12.35l-.08,11.82h-2Z"/><path d="M84.23,107.6a10.69,10.69,0,0,1-3.67,2.87,15.49,15.49,0,0,1-4.8,1.5,14.3,14.3,0,0,1-3.94,0,8.19,8.19,0,0,1-3.51-1.4,6,6,0,0,1-2.3-3,3.2,3.2,0,0,1-.25-1q-.06-.59-.06-.94t0-1c0-.43,0-.67,0-.72v-.43q0-1.6.1-2.5a12.66,12.66,0,0,1,.43-2.3,9.23,9.23,0,0,1,1.07-2.53A13,13,0,0,1,71,92.33a14.05,14.05,0,0,1,5-2.2,9.31,9.31,0,0,1,8.27,1.72,1,1,0,0,1,.86-.16,1.24,1.24,0,0,1,.7.51c.05.1.1.22.16.35s.1.4.16.66.09.9.12,1.6,0,1.37,0,2.3a17.6,17.6,0,0,1,0,5q0,1.48,0,2,0,4.6.16,6.67a1,1,0,0,1-.23.74,1,1,0,0,1-.7.35,1,1,0,0,1-.74-.23,1,1,0,0,1-.35-.7Q84.27,109.39,84.23,107.6Zm0-10.33q-.2-1.33-.31-2.46l-.08-.47a6.43,6.43,0,0,0-3.32-2.16,8.68,8.68,0,0,0-4.13-.06A12.18,12.18,0,0,0,72.22,94a11,11,0,0,0-3.16,3.24,7.22,7.22,0,0,0-.88,2.15,11.2,11.2,0,0,0-.33,2q0,.78-.08,2.53,0,.31,0,.88c0,.38,0,.65,0,.82a6,6,0,0,0,0,.62,3.68,3.68,0,0,0,.12.64,4.51,4.51,0,0,0,2.77,2.67,9.58,9.58,0,0,0,4.84.41,12.5,12.5,0,0,0,4.91-1.7,6.91,6.91,0,0,0,3-3.1,13.79,13.79,0,0,0,.9-3.24q0-2.93,0-4.56Z"/><path class="cls-2" d="M121,96.13A6.1,6.1,0,0,0,118.41,93a7.72,7.72,0,0,0-4-1,10.07,10.07,0,0,0-4.29,1.07,10.17,10.17,0,0,0-3.47,2.71,10.52,10.52,0,0,0-1.79,3.63,10.73,10.73,0,0,0-.39,4,7,7,0,0,0,1.29,3.55,5.56,5.56,0,0,0,3,2,21.56,21.56,0,0,0,6.55.82,7.14,7.14,0,0,0,3.33-.76,10.8,10.8,0,0,0,2.83-2.52,1,1,0,0,1,.7-.35,1,1,0,0,1,.74.23,1,1,0,0,1,.35.7,1,1,0,0,1-.23.74,13.79,13.79,0,0,1-3.47,3,8.62,8.62,0,0,1-4.25,1,23.29,23.29,0,0,1-7.1-.9,7.32,7.32,0,0,1-4.09-2.71,9.16,9.16,0,0,1-1.72-4.54,12.88,12.88,0,0,1,.47-4.84,12,12,0,0,1,2.18-4.29,11.29,11.29,0,0,1,4.11-3.28A12.69,12.69,0,0,1,114.34,90a9.5,9.5,0,0,1,5.13,1.27,8.13,8.13,0,0,1,3.45,4.11,1,1,0,0,1,0,.78.94.94,0,0,1-.55.55,1,1,0,0,1-.78,0A.94.94,0,0,1,121,96.13Z"/><path class="cls-2" d="M128.88,84.36h2l0,10.26a12.64,12.64,0,0,1,1.64-2,8.28,8.28,0,0,1,6.4-2.07,11,11,0,0,1,3.43.78,7.55,7.55,0,0,1,2.73,1.83q2.42,2.61,2.81,9,.12,2,0,5,0,.55,0,1.44c0,.6,0,1.12,0,1.56s0,.85,0,1.21a1,1,0,1,1-2,0q0-.55,0-1.23t0-1.58c0-.6,0-1.08,0-1.44q.08-2.89,0-4.84-.35-5.62-2.26-7.68a6.87,6.87,0,0,0-4.8-2,6.29,6.29,0,0,0-4.87,1.52,10.18,10.18,0,0,0-2,2.67,9.34,9.34,0,0,0-1,3.18,2.66,2.66,0,0,1-.12.35l-.08,11.82h-2Z"/><path class="cls-2" d="M171.24,91.92a.88.88,0,0,1,.31.16,7.88,7.88,0,0,1,1.17,1.29,11.75,11.75,0,0,1,.72,1.09q.21.39.68,1.4a13.24,13.24,0,0,1,1.13,4.88,12.61,12.61,0,0,1-.74,5,10.06,10.06,0,0,1-2.89,4.17,8.82,8.82,0,0,1-4.8,2,21.88,21.88,0,0,1-4.17-.12,11.49,11.49,0,0,1-7.45-3.31,10.71,10.71,0,0,1-3.16-7.6,13.09,13.09,0,0,1,.9-4.88,11.55,11.55,0,0,1,2.38-3.8,11.18,11.18,0,0,1,3.45-2.44,11,11,0,0,1,4.08-1,11.29,11.29,0,0,1,4.31.68A11.88,11.88,0,0,1,171.24,91.92Zm-.55,2.3a11.16,11.16,0,0,0-3.43-2.55,9.12,9.12,0,0,0-3.69-.92,8.89,8.89,0,0,0-3.55.66,9,9,0,0,0-5.15,5.19,11.1,11.1,0,0,0-.8,4.25,8.73,8.73,0,0,0,2.61,6.2,9.47,9.47,0,0,0,6.2,2.69,17.32,17.32,0,0,0,3.71.12,7,7,0,0,0,3.74-1.56A7.71,7.71,0,0,0,172.6,105a11.07,11.07,0,0,0,.62-4.17,10.2,10.2,0,0,0-1-4.09A15.35,15.35,0,0,0,171,94.46,1,1,0,0,1,170.69,94.22Z"/><path class="cls-2" d="M180.71,83.3h2l.51,28.43h-2Z"/><path class="cls-2" d="M190.15,91.45q-.08.43-.33,1.66t-.33,1.74l-.31,1.52q-.2,1.05-.25,1.7t-.12,1.52a12,12,0,0,0,0,1.68q.06.8.18,1.58a10.92,10.92,0,0,0,.76,2.75,6.2,6.2,0,0,0,1.38,2.13A8.06,8.06,0,0,0,196,109.8a7,7,0,0,0,5-1.11,8.84,8.84,0,0,0,2.36-3,17.82,17.82,0,0,0,1.58-4.43,17.37,17.37,0,0,0,.37-4.66,10.61,10.61,0,0,0-.84-3.8.91.91,0,0,1-.06-.76,1,1,0,0,1,.51-.58,1,1,0,0,1,.78,0,.88.88,0,0,1,.57.53,11.46,11.46,0,0,1,1.07,4.56,21.19,21.19,0,0,1-2.2,10.22,10.26,10.26,0,0,1-3,3.59,9.15,9.15,0,0,1-6.4,1.48,10,10,0,0,1-6-2.61,8,8,0,0,1-1.79-2.73,14.89,14.89,0,0,1-1-3.31,17,17,0,0,1-.18-2.2q0-1.15,0-1.93t.25-2.16q.21-1.38.33-1.85l.39-2.07q.35-1.64.43-1.87a1,1,0,0,1,.43-.66.93.93,0,0,1,.76-.14,1,1,0,0,1,.64.45A.84.84,0,0,1,190.15,91.45Z"/></svg>