<svg id="Layer_1" data-name="Layer 1" xmlns="http://www.w3.org/2000/svg" viewBox="0 0 245 206"><defs><style>.cls-1{fill:#f472bb;stroke:#000;stroke-miterlimit:10;stroke-width:7px;}.cls-2{fill:#fff;}</style></defs><title>i am</title><rect class="cls-1" x="2.87" y="0.9" width="245" height="206"/><path d="M81.36,85.41v-2l8,0v2H85.92l.27,23.36,3,0v2l-7.37-.12v-2l2.42,0L84,85.41Z"/><path class="cls-2" d="M123.71,106.35a10.69,10.69,0,0,1-3.67,2.87,15.48,15.48,0,0,1-4.8,1.5,14.3,14.3,0,0,1-3.94,0,8.19,8.19,0,0,1-3.51-1.4,6,6,0,0,1-2.3-3,3.2,3.2,0,0,1-.25-1q-.06-.58-.06-.94c0-.23,0-.57,0-1s0-.67,0-.72v-.43q0-1.6.1-2.5a12.67,12.67,0,0,1,.43-2.3,9.23,9.23,0,0,1,1.07-2.53,13,13,0,0,1,3.71-3.8,14,14,0,0,1,5-2.2,9.31,9.31,0,0,1,8.27,1.72,1,1,0,0,1,.86-.16,1.24,1.24,0,0,1,.7.51c.05.1.1.22.16.35s.1.4.16.66.09.9.12,1.6,0,1.37,0,2.3a17.57,17.57,0,0,1,0,5q0,1.48,0,2,0,4.6.16,6.67a1,1,0,0,1-.23.74,1,1,0,0,1-.7.35,1,1,0,0,1-.74-.23,1,1,0,0,1-.35-.7Q123.75,108.15,123.71,106.35Zm0-10.33q-.2-1.33-.31-2.46l-.08-.47A6.43,6.43,0,0,0,120,90.93a8.67,8.67,0,0,0-4.13-.06,12.18,12.18,0,0,0-4.21,1.87A11,11,0,0,0,108.54,96a7.2,7.2,0,0,0-.88,2.14,11.21,11.21,0,0,0-.33,2q0,.78-.08,2.53,0,.31,0,.88c0,.38,0,.65,0,.82a6.13,6.13,0,0,0,0,.62,3.78,3.78,0,0,0,.12.64,4.52,4.52,0,0,0,2.77,2.67,9.57,9.57,0,0,0,4.84.41,12.5,12.5,0,0,0,4.91-1.7,6.92,6.92,0,0,0,3-3.1,13.78,13.78,0,0,0,.9-3.24q0-2.93,0-4.56Z"/><path class="cls-2" d="M131,90.6l2-.08.12,1.91a9.61,9.61,0,0,1,1.87-2,9,9,0,0,1,4.15-1.95,7.58,7.58,0,0,1,4.48.51,6.35,6.35,0,0,1,3.26,3.2,6.69,6.69,0,0,1,5.85-2.81,7.56,7.56,0,0,1,3.65,1.13,9.16,9.16,0,0,1,2.94,2.93q1.37,2.07,1.6,8,0,1.37,0,2.91t0,3.14q0,1.6,0,2.07a1,1,0,1,1-2,0q0-.51,0-2.07t0-3.06q0-1.5,0-2.87-.23-5.38-1.29-7a7.23,7.23,0,0,0-2.26-2.26,5.37,5.37,0,0,0-2.69-.86A4.92,4.92,0,0,0,148,94.3a1.08,1.08,0,0,1-.27.31,22.51,22.51,0,0,1,.16,6.86q0,.35-.51,4.06-.31,2.38-.35,3.82a.89.89,0,0,1-.31.7,1.09,1.09,0,0,1-.74.27.89.89,0,0,1-.7-.31,1.09,1.09,0,0,1-.27-.74,35.75,35.75,0,0,1,.39-4l.51-4a17.88,17.88,0,0,0-.51-7.45,4.65,4.65,0,0,0-2.14-2.73,5.2,5.2,0,0,0-3.43-.62A7.37,7.37,0,0,0,136.27,92a8.23,8.23,0,0,0-1.48,1.56q-.59.82-1.48,2.34l.82,14.78-2,.08-.78-14.51a1,1,0,0,1,0-.82Z"/></svg>