<svg id="Layer_1" data-name="Layer 1" xmlns="http://www.w3.org/2000/svg" viewBox="0 0 245 206"><defs><style>.cls-1{fill:#f472bb;stroke:#000;stroke-miterlimit:10;stroke-width:7px;}.cls-2{fill:#fff;}</style></defs><title>i bu</title><rect class="cls-1" x="2.87" y="0.9" width="245" height="206"/><circle cx="90.38" cy="117.38" r="1.63"/><path d="M89.39,82.06h2l.51,28.43h-2Z"/><path class="cls-2" d="M109.63,83.19h2L111.58,92q.51-.47,1.07-.94t1.33-1q.76-.57,1-.76,4.13-3.16,9-.12l.58.39.62.39.62.39q.39.27.62.47l.55.47a7,7,0,0,1,.64.57,5.62,5.62,0,0,1,.53.6,10,10,0,0,1,2.13,4.37,11.44,11.44,0,0,1,.06,4.74,12.83,12.83,0,0,1-1.72,4.27,11.17,11.17,0,0,1-3.1,3.28,9.65,9.65,0,0,1-4.25,1.62,8.93,8.93,0,0,1-5-.84,21.15,21.15,0,0,1-4.8-2.89l0,3.59h-2ZM111.54,95l-.08,9.28A19.15,19.15,0,0,0,117,108a7.33,7.33,0,0,0,7.29-.59,9,9,0,0,0,2.53-2.69,10.43,10.43,0,0,0,1.42-3.59,9.87,9.87,0,0,0,0-3.9,8,8,0,0,0-1.7-3.55q-.2-.23-.41-.45a6.34,6.34,0,0,0-.51-.45l-.47-.39a6.08,6.08,0,0,0-.55-.41,5.68,5.68,0,0,0-.53-.33l-.62-.39q-.47-.31-.62-.39a6.57,6.57,0,0,0-3.39-1.19,5.35,5.35,0,0,0-3.24,1.23l-1.21.9q-.86.62-1.23.94t-.92.86a7.78,7.78,0,0,0-.9,1.05A1,1,0,0,1,111.54,95Z"/><path class="cls-2" d="M137.44,90.21q-.08.43-.33,1.66t-.33,1.74l-.31,1.52q-.2,1.05-.25,1.7t-.12,1.52a12,12,0,0,0,0,1.68q.06.8.18,1.58a10.92,10.92,0,0,0,.76,2.75,6.2,6.2,0,0,0,1.38,2.13,8.06,8.06,0,0,0,4.86,2.09,7,7,0,0,0,5-1.11,8.84,8.84,0,0,0,2.36-3,17.82,17.82,0,0,0,1.58-4.43,17.37,17.37,0,0,0,.37-4.66,10.61,10.61,0,0,0-.84-3.8.91.91,0,0,1-.06-.76,1,1,0,0,1,.51-.58,1,1,0,0,1,.78,0,.88.88,0,0,1,.57.53,11.46,11.46,0,0,1,1.07,4.56,21.19,21.19,0,0,1-2.2,10.22,10.26,10.26,0,0,1-3,3.59,9.15,9.15,0,0,1-6.4,1.48,10,10,0,0,1-6-2.61,8,8,0,0,1-1.79-2.73,14.89,14.89,0,0,1-1-3.31,17,17,0,0,1-.18-2.2q0-1.15,0-1.93t.25-2.16q.21-1.38.33-1.85l.39-2.07q.35-1.64.43-1.87a1,1,0,0,1,.43-.66.93.93,0,0,1,.76-.14,1,1,0,0,1,.64.45A.84.84,0,0,1,137.44,90.21Z"/></svg>