<svg id="Layer_1" data-name="Layer 1" xmlns="http://www.w3.org/2000/svg" viewBox="0 0 245 206"><defs><style>.cls-1{fill:#f14183;stroke:#000;stroke-miterlimit:10;stroke-width:7px;}.cls-2{fill:#fff;}</style></defs><title>i cholu</title><rect class="cls-1" x="2.87" y="0.9" width="245" height="206"/><path d="M63.19,83.3h2l.51,28.43h-2Z"/><path class="cls-2" d="M100.28,96.13A6.1,6.1,0,0,0,97.64,93a7.72,7.72,0,0,0-4-1,10.07,10.07,0,0,0-4.29,1.07,10.18,10.18,0,0,0-3.47,2.71,10.53,10.53,0,0,0-1.79,3.63,10.73,10.73,0,0,0-.39,4A7,7,0,0,0,85,107a5.55,5.55,0,0,0,3,2,21.56,21.56,0,0,0,6.55.82,7.13,7.13,0,0,0,3.33-.76,10.8,10.8,0,0,0,2.83-2.52,1,1,0,0,1,.7-.35,1,1,0,0,1,.74.23,1,1,0,0,1,.35.7,1,1,0,0,1-.23.74,13.8,13.8,0,0,1-3.47,3,8.62,8.62,0,0,1-4.25,1,23.28,23.28,0,0,1-7.1-.9,7.32,7.32,0,0,1-4.1-2.71,9.17,9.17,0,0,1-1.72-4.54,12.88,12.88,0,0,1,.47-4.84,12,12,0,0,1,2.18-4.29,11.29,11.29,0,0,1,4.11-3.28A12.69,12.69,0,0,1,93.57,90a9.5,9.5,0,0,1,5.13,1.27,8.12,8.12,0,0,1,3.45,4.11,1,1,0,0,1,0,.78.94.94,0,0,1-.55.55,1,1,0,0,1-.78,0A.94.94,0,0,1,100.28,96.13Z"/><path class="cls-2" d="M108.12,84.35h2l0,10.26a12.7,12.7,0,0,1,1.64-2,8.28,8.28,0,0,1,6.4-2.07,11,11,0,0,1,3.43.78,7.54,7.54,0,0,1,2.73,1.83q2.42,2.61,2.81,9,.12,2,0,5,0,.55,0,1.44t0,1.56q0,.66,0,1.21a1,1,0,1,1-2,0q0-.55,0-1.23t0-1.58q0-.9,0-1.44.08-2.89,0-4.84-.35-5.62-2.26-7.68a6.87,6.87,0,0,0-4.8-2,6.29,6.29,0,0,0-4.87,1.52,10.19,10.19,0,0,0-2,2.67,9.34,9.34,0,0,0-1,3.18,2.75,2.75,0,0,1-.12.35L110,112.08h-2Z"/><path class="cls-2" d="M150.47,91.92a.89.89,0,0,1,.31.16A7.92,7.92,0,0,1,152,93.36a12,12,0,0,1,.72,1.09c.14.26.37.73.68,1.4a13.22,13.22,0,0,1,1.13,4.88,12.6,12.6,0,0,1-.74,5,10,10,0,0,1-2.89,4.17,8.82,8.82,0,0,1-4.8,2,21.87,21.87,0,0,1-4.17-.12,11.49,11.49,0,0,1-7.45-3.31,10.71,10.71,0,0,1-3.16-7.6,13.1,13.1,0,0,1,.9-4.88,11.55,11.55,0,0,1,2.38-3.8A11.17,11.17,0,0,1,138,89.74a11,11,0,0,1,4.08-1,11.29,11.29,0,0,1,4.31.68A11.89,11.89,0,0,1,150.47,91.92Zm-.55,2.3a11.15,11.15,0,0,0-3.43-2.55,9.12,9.12,0,0,0-3.69-.92,8.88,8.88,0,0,0-3.55.66,9,9,0,0,0-5.15,5.19,11.1,11.1,0,0,0-.8,4.25,8.73,8.73,0,0,0,2.61,6.2,9.47,9.47,0,0,0,6.2,2.69,17.32,17.32,0,0,0,3.71.12,7,7,0,0,0,3.74-1.56,7.71,7.71,0,0,0,2.26-3.31,11.07,11.07,0,0,0,.62-4.17,10.21,10.21,0,0,0-1-4.09,15.54,15.54,0,0,0-1.21-2.26A1,1,0,0,1,149.92,94.22Z"/><path class="cls-2" d="M159.95,83.3h2l.51,28.43h-2Z"/><path class="cls-2" d="M169.38,91.45q-.08.43-.33,1.66t-.33,1.74l-.31,1.52q-.2,1.05-.25,1.7T168,99.58a12,12,0,0,0,0,1.68q.06.8.18,1.58a10.92,10.92,0,0,0,.76,2.75,6.2,6.2,0,0,0,1.38,2.13,8.06,8.06,0,0,0,4.86,2.09,7,7,0,0,0,5-1.11,8.84,8.84,0,0,0,2.36-3,17.82,17.82,0,0,0,1.58-4.43,17.37,17.37,0,0,0,.37-4.66,10.61,10.61,0,0,0-.84-3.8.91.91,0,0,1-.06-.76,1,1,0,0,1,.51-.58,1,1,0,0,1,.78,0,.88.88,0,0,1,.57.53,11.46,11.46,0,0,1,1.07,4.56,21.19,21.19,0,0,1-2.2,10.22,10.26,10.26,0,0,1-3,3.59,9.15,9.15,0,0,1-6.4,1.48,10,10,0,0,1-6-2.61,8,8,0,0,1-1.79-2.73,14.89,14.89,0,0,1-1-3.31,17,17,0,0,1-.18-2.2q0-1.15,0-1.93t.25-2.16q.21-1.38.33-1.85l.39-2.07q.35-1.64.43-1.87a1,1,0,0,1,.43-.66.93.93,0,0,1,.76-.14,1,1,0,0,1,.64.45A.84.84,0,0,1,169.38,91.45Z"/><circle cx="64.38" cy="117.88" r="2.13"/></svg>