<svg id="Layer_1" data-name="Layer 1" xmlns="http://www.w3.org/2000/svg" viewBox="0 0 245 206"><defs><style>.cls-1{fill:#f9a94a;stroke:#000;stroke-miterlimit:10;stroke-width:7px;}</style></defs><title>Artboard 1</title><rect class="cls-1" width="245" height="206"/><path d="M59.8,84.32q0,1.55-.5,6.85-.45,5.55-.55,7.85-.25,9.45,2.25,13a6.85,6.85,0,0,0,3.27,2.45,10.89,10.89,0,0,0,4.68.7A11,11,0,0,0,73.53,114a6.32,6.32,0,0,0,2.88-2.87,26.31,26.31,0,0,0,2.35-8.48,42.26,42.26,0,0,0,.15-9.37,17.75,17.75,0,0,0-.35-2.05q-.25-1.1-.45-1.77t-.68-2.15q-.48-1.47-.62-2a1.14,1.14,0,0,1,.1-.92,1.21,1.21,0,0,1,.73-.62,1.2,1.2,0,0,1,1,.1,1.22,1.22,0,0,1,.63.75q.1.35.6,1.88t.7,2.25q.2.73.5,2A17,17,0,0,1,81.4,93,44.37,44.37,0,0,1,81.25,103a30.88,30.88,0,0,1-2.55,9.2,8.85,8.85,0,0,1-3.87,3.9,13.93,13.93,0,0,1-5.73,1.6,14.22,14.22,0,0,1-5.85-.92,9.06,9.06,0,0,1-4.35-3.33q-3-4.25-2.65-14.5.1-2.75.55-8t.5-6.7a1.09,1.09,0,0,1,.4-.85,1.33,1.33,0,0,1,.9-.35,1.09,1.09,0,0,1,.85.4A1.34,1.34,0,0,1,59.8,84.32Z"/><path d="M87.5,90.72l2.6-.1.15,3.25a14.58,14.58,0,0,1,7.3-5,18.35,18.35,0,0,1,4.15-.7,8.55,8.55,0,0,1,4,.83,8.4,8.4,0,0,1,3.35,2.82,16.76,16.76,0,0,1,2.23,4.13,21.76,21.76,0,0,1,1.13,4.12,26.51,26.51,0,0,1,.27,4.35,41.71,41.71,0,0,1-.23,4.2l-.5,4.25q-.3,2.55-.4,4a1.31,1.31,0,0,1-.45.9,1.22,1.22,0,0,1-.95.3,1.31,1.31,0,0,1-.9-.45,1.21,1.21,0,0,1-.3-1q.15-1.85.45-4.3l.4-4.2q.2-1.6.25-3.83a23.28,23.28,0,0,0-.2-3.9,17.27,17.27,0,0,0-1-3.58,16.32,16.32,0,0,0-1.92-3.6,5.89,5.89,0,0,0-3.73-2.4,9,9,0,0,0-4.92.4,12.89,12.89,0,0,0-4.6,2.63,8.67,8.67,0,0,0-2.65,3.83,1.23,1.23,0,0,1-.6.7l1,18.7-2.6.1Z"/><path d="M118.7,85.42a2.2,2.2,0,0,1,.25-2.55,2.35,2.35,0,0,1,2.2-1.1,3.3,3.3,0,0,1,.8-.1,3.15,3.15,0,0,1,2.4,4.6,1.91,1.91,0,0,1-.45.55A2.55,2.55,0,0,1,121.35,88a2.46,2.46,0,0,1-1.75-.8,3.17,3.17,0,0,1-.85-1.7A0,0,0,0,1,118.7,85.42Zm3.8,6.2a20.82,20.82,0,0,1,.63,3.67q.18,2,.18,3.5t-.08,3.77q-.07,2.3-.08,3.3,0,1.8.15,5.35t.15,5.35a1.3,1.3,0,1,1-2.6,0q0-1.8-.15-5.35t-.15-5.35q0-1.2.07-3.45t.08-3.63q0-1.37-.15-3.17a17.94,17.94,0,0,0-.55-3.3,1.22,1.22,0,0,1,.13-1,1.33,1.33,0,0,1,.8-.6,1.18,1.18,0,0,1,1,.13A1.33,1.33,0,0,1,122.5,91.62Z"/><path d="M129.9,106.67l-.3-2.6,5-.6-.8-21.3,2.6-.1.8,21.1,5.45-.65.3,2.6-5.65.65.45,11.7-2.6.1-.45-11.5Z"/><path d="M166.15,92a5.51,5.51,0,0,1,.25-5,9.66,9.66,0,0,1,4-3.8,12.33,12.33,0,0,1,3.42-1.3,10.25,10.25,0,0,1,3.78-.1,7.73,7.73,0,0,1,3.45,1.4,7.27,7.27,0,0,1,3,7,10.79,10.79,0,0,1-2.75,6.25,7.75,7.75,0,0,1,1.3.15,7.33,7.33,0,0,1,4.6,4.65,13.16,13.16,0,0,1,.9,6.2,9.59,9.59,0,0,1-2.17,5.35,10.91,10.91,0,0,1-4.4,3.25,14.32,14.32,0,0,1-5.32,1,14.13,14.13,0,0,1-5.3-1,10.66,10.66,0,0,1-4.32-3.22,9.08,9.08,0,0,1-2-5.33,1.22,1.22,0,0,1,.3-1,1.31,1.31,0,0,1,.9-.45,1.23,1.23,0,0,1,1,.3,1.31,1.31,0,0,1,.45.9,6.84,6.84,0,0,0,2.83,5.25,10.19,10.19,0,0,0,6.23,1.9,10.43,10.43,0,0,0,6.3-1.93,7.22,7.22,0,0,0,3-5.37,10.36,10.36,0,0,0-.7-4.9,4.8,4.8,0,0,0-3-3.15h-1.15q-1.2,0-2.55.1l-.85.1a11.73,11.73,0,0,1-1.6.8,2.37,2.37,0,0,1-.95.25,1.75,1.75,0,0,1-1-.25,1.32,1.32,0,0,1-.65-1.2,1.67,1.67,0,0,1,1-1.5,4.78,4.78,0,0,1,1.1-.35,8.43,8.43,0,0,1,1.2-.25A16.84,16.84,0,0,0,179,95a7.73,7.73,0,0,0,2.45-5.1,5,5,0,0,0-2-4.7,6.08,6.08,0,0,0-3.75-1,9.19,9.19,0,0,0-4.15,1.18A6.8,6.8,0,0,0,168.77,88a3.32,3.32,0,0,0-.22,3,1.3,1.3,0,0,1,0,1,1.21,1.21,0,0,1-.7.7,1.3,1.3,0,0,1-1,0A1.2,1.2,0,0,1,166.15,92Z"/></svg>