<svg id="Layer_1" data-name="Layer 1" xmlns="http://www.w3.org/2000/svg" viewBox="0 0 245 206"><defs><style>.cls-1{fill:#f9a94a;stroke:#000;stroke-miterlimit:10;stroke-width:7px;}</style></defs><title>Artboard 1</title><rect class="cls-1" width="245" height="206"/><path d="M63.55,85.42a2.2,2.2,0,0,1,.25-2.55,2.35,2.35,0,0,1,2.2-1.1,3.3,3.3,0,0,1,.8-.1,3.15,3.15,0,0,1,2.4,4.6,1.9,1.9,0,0,1-.45.55A2.55,2.55,0,0,1,66.2,88a2.46,2.46,0,0,1-1.75-.8,3.17,3.17,0,0,1-.85-1.7A0,0,0,0,1,63.55,85.42Zm3.8,6.2A20.82,20.82,0,0,1,68,95.29q.18,2,.18,3.5t-.08,3.77q-.07,2.3-.08,3.3,0,1.8.15,5.35t.15,5.35a1.3,1.3,0,1,1-2.6,0q0-1.8-.15-5.35t-.15-5.35q0-1.2.07-3.45t.08-3.63q0-1.37-.15-3.17a17.94,17.94,0,0,0-.55-3.3,1.22,1.22,0,0,1,.13-1,1.33,1.33,0,0,1,.8-.6,1.18,1.18,0,0,1,1,.13A1.33,1.33,0,0,1,67.35,91.62Z"/><path d="M75.5,90.72l2.6-.1.15,3.25a14.58,14.58,0,0,1,7.3-5,18.35,18.35,0,0,1,4.15-.7,8.55,8.55,0,0,1,4,.83,8.4,8.4,0,0,1,3.35,2.82,16.76,16.76,0,0,1,2.23,4.13,21.76,21.76,0,0,1,1.13,4.12,26.51,26.51,0,0,1,.27,4.35,41.71,41.71,0,0,1-.23,4.2l-.5,4.25q-.3,2.55-.4,4a1.31,1.31,0,0,1-.45.9,1.22,1.22,0,0,1-.95.3,1.31,1.31,0,0,1-.9-.45,1.21,1.21,0,0,1-.3-1q.15-1.85.45-4.3l.4-4.2q.2-1.6.25-3.83a23.28,23.28,0,0,0-.2-3.9,17.27,17.27,0,0,0-1-3.58A16.32,16.32,0,0,0,95,93.32a5.89,5.89,0,0,0-3.73-2.4,9,9,0,0,0-4.92.4,12.89,12.89,0,0,0-4.6,2.63,8.67,8.67,0,0,0-2.65,3.83,1.23,1.23,0,0,1-.6.7l1,18.7-2.6.1Z"/><path d="M105.85,106.67l-.3-2.6,4.95-.6-.8-21.3,2.6-.1.8,21.1,5.45-.65.3,2.6-5.65.65.45,11.7-2.6.1-.45-11.5Z"/><path d="M126.4,92.07,129,92l.15,4.75a10.9,10.9,0,0,1,5.45-4.4,6.65,6.65,0,0,1,5.25.25,9,9,0,0,1,4.15,4.9,1.3,1.3,0,0,1,0,1,1.21,1.21,0,0,1-.7.7,1.3,1.3,0,0,1-1,0,1.2,1.2,0,0,1-.7-.7,6.56,6.56,0,0,0-2.9-3.55,4,4,0,0,0-3.25-.15,8.47,8.47,0,0,0-3.4,2.45,10.31,10.31,0,0,0-2.25,4.1,1.07,1.07,0,0,1-.5.7l.5,15.35-2.6.1Z"/><path d="M174,91.82a1.14,1.14,0,0,1,.4.2,10,10,0,0,1,1.5,1.65,15.17,15.17,0,0,1,.92,1.4q.27.5.88,1.8a17,17,0,0,1,1.45,6.25,16.18,16.18,0,0,1-1,6.35,12.9,12.9,0,0,1-3.7,5.35,11.31,11.31,0,0,1-6.15,2.6,28,28,0,0,1-5.35-.15,14.73,14.73,0,0,1-9.55-4.25,13.73,13.73,0,0,1-4-9.75A16.8,16.8,0,0,1,150.55,97a14.81,14.81,0,0,1,3-4.87A14.32,14.32,0,0,1,158,89a14.07,14.07,0,0,1,5.22-1.27,14.47,14.47,0,0,1,5.53.88A15.23,15.23,0,0,1,174,91.82Zm-.7,3a14.3,14.3,0,0,0-4.4-3.27,11.69,11.69,0,0,0-4.73-1.18,11.37,11.37,0,0,0-4.55.85,11.57,11.57,0,0,0-6.6,6.65,14.23,14.23,0,0,0-1,5.45,11.19,11.19,0,0,0,3.35,8,12.14,12.14,0,0,0,8,3.45,22.16,22.16,0,0,0,4.75.15,8.92,8.92,0,0,0,4.8-2,9.88,9.88,0,0,0,2.9-4.25,14.19,14.19,0,0,0,.8-5.35A13.09,13.09,0,0,0,175.3,98a19.71,19.71,0,0,0-1.55-2.9A1.32,1.32,0,0,1,173.3,94.77Z"/></svg>