<svg id="Layer_1" data-name="Layer 1" xmlns="http://www.w3.org/2000/svg" viewBox="0 0 245 206"><defs><style>.cls-1{fill:#f9a94a;stroke:#000;stroke-miterlimit:10;stroke-width:7px;}</style></defs><title>Artboard 1</title><rect class="cls-1" width="245" height="206"/><path d="M60.9,84.32q0,1.55-.5,6.85Q60,96.72,59.85,99q-.25,9.45,2.25,13a6.85,6.85,0,0,0,3.27,2.45,10.89,10.89,0,0,0,4.68.7A11,11,0,0,0,74.63,114a6.32,6.32,0,0,0,2.88-2.87,26.31,26.31,0,0,0,2.35-8.48A42.26,42.26,0,0,0,80,93.27a17.75,17.75,0,0,0-.35-2.05q-.25-1.1-.45-1.77t-.68-2.15q-.48-1.47-.62-2a1.14,1.14,0,0,1,.1-.92,1.21,1.21,0,0,1,.73-.62,1.2,1.2,0,0,1,1,.1,1.22,1.22,0,0,1,.63.75q.1.35.6,1.88t.7,2.25q.2.73.5,2A17,17,0,0,1,82.5,93,44.37,44.37,0,0,1,82.35,103a30.88,30.88,0,0,1-2.55,9.2,8.85,8.85,0,0,1-3.87,3.9,13.93,13.93,0,0,1-5.73,1.6,14.22,14.22,0,0,1-5.85-.92A9.06,9.06,0,0,1,60,113.47q-3-4.25-2.65-14.5.1-2.75.55-8t.5-6.7a1.09,1.09,0,0,1,.4-.85,1.33,1.33,0,0,1,.9-.35,1.09,1.09,0,0,1,.85.4A1.34,1.34,0,0,1,60.9,84.32Z"/><path d="M88.6,90.72l2.6-.1.15,3.25a14.58,14.58,0,0,1,7.3-5,18.35,18.35,0,0,1,4.15-.7,8.55,8.55,0,0,1,4,.83,8.4,8.4,0,0,1,3.35,2.82,16.76,16.76,0,0,1,2.23,4.13,21.76,21.76,0,0,1,1.13,4.12,26.51,26.51,0,0,1,.27,4.35,41.71,41.71,0,0,1-.23,4.2l-.5,4.25q-.3,2.55-.4,4a1.31,1.31,0,0,1-.45.9,1.22,1.22,0,0,1-.95.3,1.31,1.31,0,0,1-.9-.45,1.21,1.21,0,0,1-.3-1q.15-1.85.45-4.3l.4-4.2q.2-1.6.25-3.83a23.28,23.28,0,0,0-.2-3.9,17.27,17.27,0,0,0-1-3.58,16.32,16.32,0,0,0-1.92-3.6,5.89,5.89,0,0,0-3.73-2.4,9,9,0,0,0-4.92.4,12.89,12.89,0,0,0-4.6,2.63,8.67,8.67,0,0,0-2.65,3.83,1.23,1.23,0,0,1-.6.7l1,18.7-2.6.1Z"/><path d="M119.8,85.42a2.2,2.2,0,0,1,.25-2.55,2.35,2.35,0,0,1,2.2-1.1,3.3,3.3,0,0,1,.8-.1,3.15,3.15,0,0,1,2.4,4.6,1.89,1.89,0,0,1-.45.55A2.55,2.55,0,0,1,122.45,88a2.46,2.46,0,0,1-1.75-.8,3.17,3.17,0,0,1-.85-1.7A0,0,0,0,1,119.8,85.42Zm3.8,6.2a20.86,20.86,0,0,1,.63,3.67q.17,2,.17,3.5t-.08,3.77q-.07,2.3-.08,3.3,0,1.8.15,5.35t.15,5.35a1.3,1.3,0,1,1-2.6,0q0-1.8-.15-5.35t-.15-5.35q0-1.2.07-3.45t.08-3.63q0-1.37-.15-3.17a17.94,17.94,0,0,0-.55-3.3,1.22,1.22,0,0,1,.13-1,1.33,1.33,0,0,1,.8-.6,1.18,1.18,0,0,1,1,.13A1.33,1.33,0,0,1,123.6,91.62Z"/><path d="M131,106.67l-.3-2.6,5-.6-.8-21.3,2.6-.1.8,21.1,5.45-.65.3,2.6-5.65.65.45,11.7-2.6.1-.45-11.5Z"/><path d="M166.5,95.07s0-.46-.12-1.27-.13-1.4-.15-1.75a13.29,13.29,0,0,1,0-1.52,7.25,7.25,0,0,1,.33-1.75,8.78,8.78,0,0,1,3.35-4.37,12.94,12.94,0,0,1,11-1.83,8.57,8.57,0,0,1,4.5,3q2.55,3.15.9,8.35a28,28,0,0,1-3.65,7,25.93,25.93,0,0,1-3.55,3.9q-2.55,2.4-3.4,3.4l-2.8,4-1,1.55.55-.1,4.9-.55a55,55,0,0,0,6.4-.8,1.08,1.08,0,0,1,1,.15,1.33,1.33,0,0,1,.57.83,1.19,1.19,0,0,1-.17,1,1.25,1.25,0,0,1-.85.55,46.81,46.81,0,0,1-6.7.9q-.65,0-4.75.55-1.6.2-2.3.25-.5,0-.75,0a.86.86,0,0,1-.35,0l-.3-.08a1.22,1.22,0,0,1-.8-.55,1.29,1.29,0,0,1-.2-.85,1,1,0,0,1,0-.3,2,2,0,0,0,.1-.25,1.08,1.08,0,0,0,.2-.35l.6-.9,1.75-2.55q2.4-3.5,2.9-4.1a48.62,48.62,0,0,1,3.65-3.7,22.66,22.66,0,0,0,3.2-3.5,24.42,24.42,0,0,0,3.25-6.35q1.25-3.85-.4-5.95a6.31,6.31,0,0,0-3.32-2.1,10.58,10.58,0,0,0-4.48-.25,10,10,0,0,0-4.2,1.67,6.12,6.12,0,0,0-2.4,3.13,4.56,4.56,0,0,0-.25,1.25,8.59,8.59,0,0,0,0,1.1q0,.4.13,1.5t.15,1.45a1.23,1.23,0,0,1-.3.92A1.27,1.27,0,0,1,167,96,1.27,1.27,0,0,1,166.5,95.07Z"/></svg>