<svg id="Layer_1" data-name="Layer 1" xmlns="http://www.w3.org/2000/svg" viewBox="0 0 245 206"><defs><style>.cls-1{fill:#f14183;stroke:#000;stroke-miterlimit:10;stroke-width:7px;}.cls-2{fill:#fff;}</style></defs><title>o cholu</title><rect class="cls-1" x="2.87" y="0.9" width="245" height="206"/><path d="M71.36,91.92a.88.88,0,0,1,.31.16,7.81,7.81,0,0,1,1.17,1.29,11.7,11.7,0,0,1,.72,1.09q.21.39.68,1.4a13.26,13.26,0,0,1,1.13,4.88,12.61,12.61,0,0,1-.74,5,10.06,10.06,0,0,1-2.89,4.17,8.82,8.82,0,0,1-4.8,2,21.88,21.88,0,0,1-4.17-.12,11.49,11.49,0,0,1-7.45-3.31,10.71,10.71,0,0,1-3.16-7.6,13.1,13.1,0,0,1,.9-4.88,11.55,11.55,0,0,1,2.38-3.8,11.17,11.17,0,0,1,3.45-2.44,11,11,0,0,1,4.08-1,11.29,11.29,0,0,1,4.31.68A11.88,11.88,0,0,1,71.36,91.92Zm-.55,2.3a11.16,11.16,0,0,0-3.43-2.55,9.12,9.12,0,0,0-3.69-.92,8.88,8.88,0,0,0-3.55.66A9,9,0,0,0,55,96.6a11.1,11.1,0,0,0-.8,4.25,8.73,8.73,0,0,0,2.61,6.2,9.47,9.47,0,0,0,6.2,2.69,17.32,17.32,0,0,0,3.71.12,7,7,0,0,0,3.74-1.56A7.72,7.72,0,0,0,72.72,105a11.07,11.07,0,0,0,.62-4.17,10.21,10.21,0,0,0-1-4.09,15.4,15.4,0,0,0-1.21-2.26A1,1,0,0,1,70.81,94.22Z"/><path class="cls-2" d="M110,96.13A6.1,6.1,0,0,0,107.34,93a7.72,7.72,0,0,0-4-1A10.07,10.07,0,0,0,99,93.07a10.18,10.18,0,0,0-3.47,2.71,10.53,10.53,0,0,0-1.79,3.63,10.73,10.73,0,0,0-.39,4A7,7,0,0,0,94.64,107a5.55,5.55,0,0,0,3,2,21.56,21.56,0,0,0,6.55.82,7.13,7.13,0,0,0,3.33-.76,10.8,10.8,0,0,0,2.83-2.52,1,1,0,0,1,.7-.35,1,1,0,0,1,.74.23,1,1,0,0,1,.35.7,1,1,0,0,1-.23.74,13.8,13.8,0,0,1-3.47,3,8.62,8.62,0,0,1-4.25,1,23.28,23.28,0,0,1-7.1-.9A7.32,7.32,0,0,1,93,108.2a9.17,9.17,0,0,1-1.72-4.54,12.88,12.88,0,0,1,.47-4.84A12,12,0,0,1,94,94.53a11.29,11.29,0,0,1,4.11-3.28A12.69,12.69,0,0,1,103.26,90a9.5,9.5,0,0,1,5.13,1.27,8.12,8.12,0,0,1,3.45,4.11,1,1,0,0,1,0,.78.94.94,0,0,1-.55.55,1,1,0,0,1-.78,0A.94.94,0,0,1,110,96.13Z"/><path class="cls-2" d="M117.81,84.35h2l0,10.26a12.7,12.7,0,0,1,1.64-2,8.28,8.28,0,0,1,6.4-2.07,11,11,0,0,1,3.43.78A7.54,7.54,0,0,1,134,93.13q2.42,2.61,2.81,9,.12,2,0,5,0,.55,0,1.44c0,.6,0,1.12,0,1.56s0,.85,0,1.21a1,1,0,1,1-2,0q0-.55,0-1.23t0-1.58q0-.9,0-1.44.08-2.89,0-4.84-.35-5.62-2.26-7.68a6.87,6.87,0,0,0-4.8-2,6.29,6.29,0,0,0-4.87,1.52,10.19,10.19,0,0,0-2,2.67,9.34,9.34,0,0,0-1,3.18,2.75,2.75,0,0,1-.12.35l-.08,11.82h-2Z"/><path class="cls-2" d="M160.16,91.92a.88.88,0,0,1,.31.16,7.88,7.88,0,0,1,1.17,1.29,11.75,11.75,0,0,1,.72,1.09q.21.39.68,1.4a13.24,13.24,0,0,1,1.13,4.88,12.61,12.61,0,0,1-.74,5,10.06,10.06,0,0,1-2.89,4.17,8.82,8.82,0,0,1-4.8,2,21.88,21.88,0,0,1-4.17-.12,11.49,11.49,0,0,1-7.45-3.31,10.71,10.71,0,0,1-3.16-7.6,13.09,13.09,0,0,1,.9-4.88,11.55,11.55,0,0,1,2.38-3.8,11.18,11.18,0,0,1,3.45-2.44,11,11,0,0,1,4.08-1,11.29,11.29,0,0,1,4.31.68A11.88,11.88,0,0,1,160.16,91.92Zm-.55,2.3a11.16,11.16,0,0,0-3.43-2.55,9.12,9.12,0,0,0-3.69-.92,8.89,8.89,0,0,0-3.55.66,9,9,0,0,0-5.15,5.19,11.1,11.1,0,0,0-.8,4.25,8.73,8.73,0,0,0,2.61,6.2,9.47,9.47,0,0,0,6.2,2.69,17.32,17.32,0,0,0,3.71.12,7,7,0,0,0,3.74-1.56,7.71,7.71,0,0,0,2.26-3.31,11.07,11.07,0,0,0,.62-4.17,10.2,10.2,0,0,0-1-4.09A15.35,15.35,0,0,0,160,94.46,1,1,0,0,1,159.62,94.22Z"/><path class="cls-2" d="M169.64,83.3h2l.51,28.43h-2Z"/><path class="cls-2" d="M179.08,91.45q-.08.43-.33,1.66t-.33,1.74l-.31,1.52q-.2,1.05-.25,1.7t-.12,1.52a12,12,0,0,0,0,1.68q.06.8.18,1.58a10.92,10.92,0,0,0,.76,2.75,6.2,6.2,0,0,0,1.38,2.13,8.06,8.06,0,0,0,4.86,2.09,7,7,0,0,0,5-1.11,8.84,8.84,0,0,0,2.36-3,17.82,17.82,0,0,0,1.58-4.43,17.37,17.37,0,0,0,.37-4.66,10.61,10.61,0,0,0-.84-3.8.91.91,0,0,1-.06-.76,1,1,0,0,1,.51-.58,1,1,0,0,1,.78,0,.88.88,0,0,1,.57.53,11.46,11.46,0,0,1,1.07,4.56,21.19,21.19,0,0,1-2.2,10.22,10.26,10.26,0,0,1-3,3.59,9.15,9.15,0,0,1-6.4,1.48,10,10,0,0,1-6-2.61,8,8,0,0,1-1.79-2.73,14.89,14.89,0,0,1-1-3.31,17,17,0,0,1-.18-2.2q0-1.15,0-1.93t.25-2.16q.21-1.38.33-1.85l.39-2.07q.35-1.64.43-1.87a1,1,0,0,1,.43-.66.93.93,0,0,1,.76-.14,1,1,0,0,1,.64.45A.84.84,0,0,1,179.08,91.45Z"/></svg>