<svg id="Layer_1" data-name="Layer 1" xmlns="http://www.w3.org/2000/svg" viewBox="0 0 245 206"><defs><style>.cls-1{fill:#00a9a3;stroke:#000;stroke-miterlimit:10;stroke-width:7px;}</style></defs><title>Artboard 1</title><rect class="cls-1" width="245" height="206"/><path d="M88.32,81.58l2.2,7.2,2.75,8.5,2.35,7.1q.6,1.85,1.35,4.9l.7,2.9q.45-1.15.75-2,.55-1.6,3.35-8.6a88.66,88.66,0,0,0,3-8.55q1.25-4.5,1.7-7a10.48,10.48,0,0,0,.15-1.9c0-.37,0-.58,0-.65v-.25a1.69,1.69,0,0,1,.3-.6,1.28,1.28,0,0,1,1-.45,1.19,1.19,0,0,1,.8.3,1.35,1.35,0,0,1,.3.45,3.63,3.63,0,0,1,.35,1.45q0,.65.15,1.8,0,.35.05,1c0,.42,0,.69,0,.83a8.46,8.46,0,0,0,.1,1.1l.3,2.3q.3,1.95.4,2.45l.3,2.15q.3,1.7.45,2.35t.45,2.1q.3,1.45.55,2.3l.6,2.1q.35,1.2.75,2.2l.9,2.1q.55,1.25,1.75,3.5l.25-.9,1.1-4.35a202.88,202.88,0,0,0,5.05-25.45,1.17,1.17,0,0,1,.45-.82,1.23,1.23,0,0,1,.92-.27,1.2,1.2,0,0,1,.85.45,1.27,1.27,0,0,1,.27,1A176.68,176.68,0,0,1,120,107.93l-1.1,4.4q-.45,1.65-.75,2.65-.2.6-.35,1a2,2,0,0,1-.25.45,1.72,1.72,0,0,1-.6.6,1.62,1.62,0,0,1-1,.05,1.23,1.23,0,0,1-.75-.6,2.21,2.21,0,0,1-.3-.8,2.16,2.16,0,0,0,0-.22,2,2,0,0,1,0-.23q-.4.35-.85-.47a16.13,16.13,0,0,1-1-2.48q-.55-1.65-.75-2.15A40.9,40.9,0,0,1,110,104q-.93-3.37-1.35-5.75t-1-6.27l-.5,1.75q-1,3.5-3,8.75-3.2,8.15-3.3,8.5-.5,1.35-1.1,2.85a14.22,14.22,0,0,1-.8,1.7,3.24,3.24,0,0,1-.4.7,1.49,1.49,0,0,1-1,.7,1.19,1.19,0,0,1-1-.1,1.53,1.53,0,0,1-.65-.65,2.15,2.15,0,0,1-.15-.85v-.55q-.35-1.15-1.25-4.85-.75-2.9-1.3-4.7L90.88,98l-2.75-8.5-2.2-7.2a1.18,1.18,0,0,1,.1-1,1.23,1.23,0,0,1,.75-.6,1.18,1.18,0,0,1,1,.1A1.23,1.23,0,0,1,88.32,81.58Z"/><path d="M129.72,108.29l-.1-2.6h.55a7.63,7.63,0,0,1,0-1.25,19.14,19.14,0,0,1,3.1-10.2q3.25-4.95,9.75-4.85,8.15.15,11.4,4.9,2.8,4.15,2,12.25a1.23,1.23,0,0,1-.47.85,1.29,1.29,0,0,1-1,.3.38.38,0,0,1-.15,0l-21.7.55a8.83,8.83,0,0,0,2.5,4.55,7.16,7.16,0,0,0,3.05,1.75,23,23,0,0,0,4.3.6,13.18,13.18,0,0,0,4.65-.45,12.91,12.91,0,0,0,4-2.25,1.19,1.19,0,0,1,.93-.3,1.26,1.26,0,0,1,.88.47,1.27,1.27,0,0,1,.3,1,1.23,1.23,0,0,1-.5.88,14.46,14.46,0,0,1-4.8,2.72,16.29,16.29,0,0,1-5.55.58,24.91,24.91,0,0,1-5.1-.75,9,9,0,0,1-3.95-2.3,11.85,11.85,0,0,1-3.35-6.35Zm3-2.7,21.15-.5q.45-6.25-1.65-9.35Q149.83,92.09,143,92q-5.1-.1-7.55,3.65a16.45,16.45,0,0,0-2.7,8.9A5.54,5.54,0,0,0,132.77,105.58Z"/></svg>