<svg id="Layer_1" data-name="Layer 1" xmlns="http://www.w3.org/2000/svg" viewBox="0 0 245 206"><defs><style>.cls-1{fill:#00a9a3;stroke-width:7px;}.cls-1,.cls-2{stroke:#000;stroke-miterlimit:10;}.cls-2{fill:none;stroke-width:3px;}</style></defs><title>Artboard 1</title><rect class="cls-1" width="245" height="206"/><path d="M24.6,115.38a28.12,28.12,0,0,1,1.1-3.83q.7-1.92,1.8-4.47L29,103.53q4-10.45,5.6-14.1,1.1-2.45,2.8-5.6a4.66,4.66,0,0,1,.45-.65l.1-.12a.24.24,0,0,0,.05-.12v-.4a2,2,0,0,1,.15-.8,1.33,1.33,0,0,1,1.4-.9,1.64,1.64,0,0,1,1,.4,5.75,5.75,0,0,1,.4.45q.25.4.55,1a24.56,24.56,0,0,1,1.1,2.7q1.05,2.75,1.65,4.75,2.4,8,6.65,19.35a1.15,1.15,0,0,1,.5,1,1,1,0,0,1-.05.3l1.45,3.85a1.17,1.17,0,0,1,0,1,1.22,1.22,0,0,1-.7.65,1.18,1.18,0,0,1-1,0,1.13,1.13,0,0,1-.62-.67L49,111.68a16.25,16.25,0,0,1-1.9-.15q-1.85-.2-2.7-.2-3.4,0-15.1.4a1.39,1.39,0,0,1-.85-.3A40.58,40.58,0,0,0,27,116a1.16,1.16,0,0,1-.52.78,1.19,1.19,0,0,1-1,.15,1.26,1.26,0,0,1-.8-.55A1.15,1.15,0,0,1,24.6,115.38Zm4.7-6.15q11.55-.45,15-.4,1,0,3,.2l.65.1q-4-10.9-6.25-18.3-.6-2-1.55-4.55-.3-.8-.55-1.4a.58.58,0,0,1-.1.15q-1.7,3.15-2.7,5.4-1.55,3.5-5.6,14Q31,105.08,29.3,109.23Z"/><path d="M179.3,90.88l2.6-.1.15,2.45a12.24,12.24,0,0,1,2.4-2.5,11.49,11.49,0,0,1,5.33-2.5,9.73,9.73,0,0,1,5.75.65A8.14,8.14,0,0,1,199.7,93a8.59,8.59,0,0,1,7.5-3.6,9.67,9.67,0,0,1,4.67,1.45,11.75,11.75,0,0,1,3.78,3.75q1.75,2.65,2,10.25,0,1.75,0,3.72t0,4q0,2.05,0,2.65a1.3,1.3,0,1,1-2.6,0q0-.65,0-2.65t0-3.92q0-1.92,0-3.68-.3-6.9-1.65-9a9.27,9.27,0,0,0-2.9-2.9A6.89,6.89,0,0,0,207.1,92q-3.85-.2-6.05,3.65a1.37,1.37,0,0,1-.35.4,28.87,28.87,0,0,1,.2,8.8q-.05.45-.65,5.2-.4,3-.45,4.9a1.14,1.14,0,0,1-.4.9,1.4,1.4,0,0,1-1,.35,1.14,1.14,0,0,1-.9-.4,1.39,1.39,0,0,1-.35-1,46.11,46.11,0,0,1,.5-5.15l.65-5.1A22.91,22.91,0,0,0,197.7,95a6,6,0,0,0-2.75-3.5,6.66,6.66,0,0,0-4.4-.8,9.42,9.42,0,0,0-4.5,2,10.65,10.65,0,0,0-1.9,2q-.75,1.05-1.9,3l1,19-2.6.1-1-18.6a1.28,1.28,0,0,1,0-1.05Z"/><line class="cls-2" x1="59" y1="116.33" x2="173" y2="116.33"/></svg>