<svg id="Layer_1" data-name="Layer 1" xmlns="http://www.w3.org/2000/svg" viewBox="0 0 245 206"><defs><style>.cls-1{fill:#00a9a3;stroke:#000;stroke-miterlimit:10;stroke-width:7px;}</style></defs><title>Artboard 1</title><rect class="cls-1" width="245" height="206"/><path d="M65,81.33l2.3,1L57.43,106q0,.55.15,2.9a38.74,38.74,0,0,1,.08,4.08,14.31,14.31,0,0,1-.48,3.17,1.23,1.23,0,0,1-.6.75,1.18,1.18,0,0,1-1,.1,1.23,1.23,0,0,1-.75-.6,1.18,1.18,0,0,1-.1-1,10.12,10.12,0,0,0,.32-2q.08-1.12.08-1.93t-.1-2.3l-.15-2.2L39.93,84l2.1-1.4,13.7,21Z"/><path d="M97.23,91a1.14,1.14,0,0,1,.4.2,10,10,0,0,1,1.5,1.65,15.1,15.1,0,0,1,.93,1.4q.27.5.88,1.8a17,17,0,0,1,1.45,6.25,16.18,16.18,0,0,1-.95,6.35,12.9,12.9,0,0,1-3.7,5.35,11.31,11.31,0,0,1-6.15,2.6,28,28,0,0,1-5.35-.15,14.72,14.72,0,0,1-9.55-4.25,13.73,13.73,0,0,1-4.05-9.75,16.79,16.79,0,0,1,1.15-6.25,14.8,14.8,0,0,1,3.05-4.87,14.31,14.31,0,0,1,4.42-3.12,14.08,14.08,0,0,1,5.23-1.27,14.47,14.47,0,0,1,5.52.88A15.24,15.24,0,0,1,97.23,91Zm-.7,3a14.3,14.3,0,0,0-4.4-3.27,11.68,11.68,0,0,0-4.73-1.18,11.38,11.38,0,0,0-4.55.85A11.58,11.58,0,0,0,76.25,97a14.23,14.23,0,0,0-1,5.45,11.19,11.19,0,0,0,3.35,8,12.14,12.14,0,0,0,7.95,3.45,22.16,22.16,0,0,0,4.75.15,8.92,8.92,0,0,0,4.8-2,9.88,9.88,0,0,0,2.9-4.25,14.18,14.18,0,0,0,.8-5.35,13.08,13.08,0,0,0-1.25-5.25A19.71,19.71,0,0,0,97,94.23,1.32,1.32,0,0,1,96.53,93.93Z"/><path d="M111.28,90.38q-.1.55-.42,2.13t-.43,2.23l-.4,2q-.25,1.35-.33,2.17t-.15,2a15.48,15.48,0,0,0,0,2.15q.08,1,.23,2a14,14,0,0,0,1,3.53,7.94,7.94,0,0,0,1.77,2.72,10.33,10.33,0,0,0,6.23,2.68,8.92,8.92,0,0,0,6.43-1.43,11.34,11.34,0,0,0,3-3.82,22.83,22.83,0,0,0,2-5.68,22.21,22.21,0,0,0,.47-6,13.63,13.63,0,0,0-1.07-4.87,1.16,1.16,0,0,1-.08-1,1.21,1.21,0,0,1,.65-.75,1.3,1.3,0,0,1,1-.05,1.13,1.13,0,0,1,.73.68,14.69,14.69,0,0,1,1.38,5.85,27.15,27.15,0,0,1-2.83,13.1,13.15,13.15,0,0,1-3.8,4.6,11.74,11.74,0,0,1-8.2,1.9,12.83,12.83,0,0,1-7.75-3.35,10.32,10.32,0,0,1-2.3-3.5,19.12,19.12,0,0,1-1.25-4.25,21.8,21.8,0,0,1-.23-2.83q0-1.47,0-2.48t.32-2.77q.27-1.77.43-2.37l.5-2.65q.45-2.1.55-2.4a1.25,1.25,0,0,1,.55-.85,1.19,1.19,0,0,1,1-.18,1.33,1.33,0,0,1,.83.58A1.08,1.08,0,0,1,111.28,90.38Z"/><path d="M153.92,115.38a28.19,28.19,0,0,1,1.1-3.83q.7-1.92,1.8-4.47l1.45-3.55q4-10.45,5.6-14.1,1.1-2.45,2.8-5.6a4.71,4.71,0,0,1,.45-.65l.1-.12a.24.24,0,0,0,0-.12v-.4a2,2,0,0,1,.15-.8,1.33,1.33,0,0,1,1.4-.9,1.63,1.63,0,0,1,.95.4,5.76,5.76,0,0,1,.4.45q.25.4.55,1a24.65,24.65,0,0,1,1.1,2.7q1,2.75,1.65,4.75,2.4,8,6.65,19.35a1.15,1.15,0,0,1,.5,1,1,1,0,0,1,0,.3l1.45,3.85a1.17,1.17,0,0,1,0,1,1.22,1.22,0,0,1-.7.65,1.18,1.18,0,0,1-1,0,1.13,1.13,0,0,1-.62-.67l-1.45-3.85a16.25,16.25,0,0,1-1.9-.15q-1.85-.2-2.7-.2-3.4,0-15.1.4a1.39,1.39,0,0,1-.85-.3,40.37,40.37,0,0,0-1.4,4.55,1.16,1.16,0,0,1-.53.78,1.19,1.19,0,0,1-1,.15,1.26,1.26,0,0,1-.8-.55A1.16,1.16,0,0,1,153.92,115.38Zm4.7-6.15q11.55-.45,15-.4,1,0,3,.2l.65.1q-4.05-10.9-6.25-18.3-.6-2-1.55-4.55-.3-.8-.55-1.4a.6.6,0,0,1-.1.15q-1.7,3.15-2.7,5.4-1.55,3.5-5.6,14Q160.32,105.08,158.63,109.23Z"/><path d="M189.12,79.93h2.6l.65,36.45h-2.6Z"/><path d="M199.32,79.93h2.6l.65,36.45H200Z"/></svg>