<svg id="Layer_1" data-name="Layer 1" xmlns="http://www.w3.org/2000/svg" viewBox="0 0 245 206"><defs><style>.cls-1{fill:#00a9a3;stroke:#000;stroke-miterlimit:10;stroke-width:7px;}</style></defs><title>Artboard 1</title><rect class="cls-1" width="245" height="206"/><path d="M93.83,81.28h2.6l0,13.15a16.23,16.23,0,0,1,2.1-2.6,10.62,10.62,0,0,1,8.2-2.65,14.11,14.11,0,0,1,4.4,1,9.67,9.67,0,0,1,3.5,2.35q3.1,3.35,3.6,11.5.15,2.6.05,6.4,0,.7,0,1.85t0,2q0,.85,0,1.55a1.3,1.3,0,1,1-2.6,0q0-.7,0-1.58t.05-2q0-1.15,0-1.85.1-3.7-.05-6.2-.45-7.2-2.9-9.85a8.81,8.81,0,0,0-6.15-2.55,8.06,8.06,0,0,0-6.25,1.95,13.07,13.07,0,0,0-2.5,3.43,12,12,0,0,0-1.3,4.07,3.62,3.62,0,0,1-.15.45l-.1,15.15h-2.6Z"/><path d="M147.23,111.08a13.74,13.74,0,0,1-4.7,3.67,19.87,19.87,0,0,1-6.15,1.92,18.29,18.29,0,0,1-5.05,0,10.5,10.5,0,0,1-4.5-1.8,7.69,7.69,0,0,1-3-3.85,4.15,4.15,0,0,1-.33-1.3q-.07-.75-.07-1.2t0-1.28c0-.55,0-.86,0-.92v-.55q0-2.05.13-3.2a16.15,16.15,0,0,1,.55-3,11.87,11.87,0,0,1,1.38-3.25,16.7,16.7,0,0,1,4.75-4.87,18,18,0,0,1,6.35-2.82q6.25-1.35,10.6,2.2a1.29,1.29,0,0,1,1.1-.2,1.6,1.6,0,0,1,.9.65q.1.2.2.45t.2.85q.1.7.15,2.05,0,1.15.05,2.95a22.6,22.6,0,0,1,0,6.35q0,1.9-.05,2.6,0,5.9.2,8.55a1.23,1.23,0,0,1-.3,1,1.31,1.31,0,0,1-.9.45,1.21,1.21,0,0,1-.95-.3,1.3,1.3,0,0,1-.45-.9Q147.28,113.39,147.23,111.08Zm.05-13.25q-.25-1.7-.4-3.15l-.1-.6a8.24,8.24,0,0,0-4.25-2.77,11.14,11.14,0,0,0-5.3-.08,15.65,15.65,0,0,0-5.4,2.4,14.1,14.1,0,0,0-4,4.15,9.25,9.25,0,0,0-1.12,2.75,14.25,14.25,0,0,0-.42,2.55q-.05,1-.1,3.25c0,.27,0,.64,0,1.13s0,.83,0,1a7.88,7.88,0,0,0,0,.8,4.79,4.79,0,0,0,.15.83,5.78,5.78,0,0,0,3.55,3.42,12.29,12.29,0,0,0,6.2.53,16,16,0,0,0,6.3-2.17,8.88,8.88,0,0,0,3.8-4,17.69,17.69,0,0,0,1.15-4.15q0-3.75,0-5.85Z"/></svg>