<svg id="Layer_1" data-name="Layer 1" xmlns="http://www.w3.org/2000/svg" viewBox="0 0 245 206"><defs><style>.cls-1{fill:#00a9a3;stroke:#000;stroke-miterlimit:10;stroke-width:7px;}</style></defs><title>Artboard 1</title><rect class="cls-1" width="245" height="206"/><path d="M51.48,51l2.5.1-.7,34.6-2.5-.1.15-7.9-18.75-.1v8h-2.5V50.73h2.5v24.4l18.8.1Z"/><path d="M58.53,77.28l-.1-2.6H59a7.74,7.74,0,0,1,0-1.25,19.14,19.14,0,0,1,3.1-10.2q3.25-4.95,9.75-4.85,8.15.15,11.4,4.9,2.8,4.15,2,12.25a1.23,1.23,0,0,1-.48.85,1.29,1.29,0,0,1-1,.3.38.38,0,0,1-.15-.05l-21.7.55a8.83,8.83,0,0,0,2.5,4.55,7.16,7.16,0,0,0,3,1.75,23,23,0,0,0,4.3.6,13.18,13.18,0,0,0,4.65-.45,12.92,12.92,0,0,0,4-2.25,1.18,1.18,0,0,1,.92-.3,1.33,1.33,0,0,1,1.18,1.42,1.22,1.22,0,0,1-.5.88,14.45,14.45,0,0,1-4.8,2.73,16.31,16.31,0,0,1-5.55.58,25,25,0,0,1-5.1-.75,9,9,0,0,1-4-2.3,11.85,11.85,0,0,1-3.35-6.35Zm3-2.7,21.15-.5q.45-6.25-1.65-9.35Q78.62,61.08,71.83,61q-5.1-.1-7.55,3.65a16.45,16.45,0,0,0-2.7,8.9A5.46,5.46,0,0,0,61.58,74.58Z"/><path d="M101.17,49.83l2.4.8L91.63,86.13l-2.4-.8Z"/><path d="M131.82,63.18a9.68,9.68,0,0,0-1.95-6.8,14.93,14.93,0,0,0-6-5,9.45,9.45,0,0,0-6.65-.85q-3.25,1-4.7,5a9.27,9.27,0,0,0-.65,3.2,7.92,7.92,0,0,0,.6,3.15,5.88,5.88,0,0,0,1.15,1.75,11.32,11.32,0,0,0,1.45,1.33,10.46,10.46,0,0,0,2,1.1q1.3.58,2.13.85t2.48.88l.9.3q1.6.5,2.63.92a20.78,20.78,0,0,1,2.4,1.23,9.23,9.23,0,0,1,2.17,1.67,8.48,8.48,0,0,1,1.42,2.27,8.82,8.82,0,0,1,.73,3.1,6.27,6.27,0,0,1-2,5,11.74,11.74,0,0,1-5,3.1,13.25,13.25,0,0,1-3.75.65,9.94,9.94,0,0,1-3.8-.65,6.66,6.66,0,0,1-3-2.2,5.23,5.23,0,0,1-.6-1,5.75,5.75,0,0,1-.4-1.15q-.15-.62-.23-1T113,78.83a5.82,5.82,0,0,0-.12-.8,1.33,1.33,0,0,1,.25-.93,1.16,1.16,0,0,1,.8-.5,1.23,1.23,0,0,1,.92.23,1.25,1.25,0,0,1,.53.8q0,.35.13,1c0,.42.09.73.13.93s.08.44.15.72A3.91,3.91,0,0,0,116,81a2.75,2.75,0,0,0,.35.58,4.79,4.79,0,0,0,3.25,1.75,9.77,9.77,0,0,0,4.55-.4,9.19,9.19,0,0,0,3.9-2.33,4.31,4.31,0,0,0,1.35-3.27,5.46,5.46,0,0,0-2-4.2,19.31,19.31,0,0,0-5.67-2.75l-1.52-.52-1.75-.57q-.33-.1-1.58-.6a13.59,13.59,0,0,1-1.75-.8l-1.4-.9a6.64,6.64,0,0,1-1.5-1.15q-.5-.55-1.1-1.35a9.42,9.42,0,0,1-1-1.65,10.4,10.4,0,0,1-.75-4.15,13.89,13.89,0,0,1,.7-4.1q1.9-5.2,6.4-6.5a11.64,11.64,0,0,1,8.45,1,18,18,0,0,1,7,6,11.89,11.89,0,0,1,2.33,8.4,1.18,1.18,0,0,1-.45.83,1.22,1.22,0,0,1-.92.27,1.19,1.19,0,0,1-.85-.45A1.26,1.26,0,0,1,131.82,63.18Z"/><path d="M141.57,50.28h2.6l-.05,13.15a16.23,16.23,0,0,1,2.1-2.6,10.62,10.62,0,0,1,8.2-2.65,14.1,14.1,0,0,1,4.4,1,9.67,9.67,0,0,1,3.5,2.35q3.1,3.35,3.6,11.5.15,2.6,0,6.4,0,.7,0,1.85t0,2q0,.85,0,1.55a1.3,1.3,0,1,1-2.6,0q0-.7,0-1.58t0-2q0-1.15,0-1.85.1-3.7,0-6.2-.45-7.2-2.9-9.85a8.81,8.81,0,0,0-6.15-2.55A8.06,8.06,0,0,0,148,62.73a13.08,13.08,0,0,0-2.5,3.43,12,12,0,0,0-1.3,4.07,3.71,3.71,0,0,1-.15.45L144,85.83h-2.6Z"/><path d="M170.57,77.28l-.1-2.6H171a7.63,7.63,0,0,1,0-1.25,19.14,19.14,0,0,1,3.1-10.2q3.25-4.95,9.75-4.85,8.15.15,11.4,4.9,2.8,4.15,2,12.25a1.23,1.23,0,0,1-.48.85,1.29,1.29,0,0,1-1,.3.38.38,0,0,1-.15-.05l-21.7.55a8.84,8.84,0,0,0,2.5,4.55,7.17,7.17,0,0,0,3.05,1.75,23,23,0,0,0,4.3.6,13.17,13.17,0,0,0,4.65-.45,12.91,12.91,0,0,0,4-2.25,1.19,1.19,0,0,1,.93-.3,1.33,1.33,0,0,1,1.17,1.42,1.23,1.23,0,0,1-.5.88,14.45,14.45,0,0,1-4.8,2.73,16.31,16.31,0,0,1-5.55.58,25,25,0,0,1-5.1-.75,9,9,0,0,1-4-2.3,11.84,11.84,0,0,1-3.35-6.35Zm3-2.7,21.15-.5q.45-6.25-1.65-9.35-2.45-3.65-9.25-3.75-5.1-.1-7.55,3.65a16.45,16.45,0,0,0-2.7,8.9A5.54,5.54,0,0,0,173.62,74.58Z"/><path d="M213.22,49.83l2.4.8-12,35.5-2.4-.8Z"/><path d="M106.58,113.24v-2.5l10.3-.05v2.5h-4.45l.35,30,3.85,0v2.5l-9.45-.15V143l3.1,0-.35-29.85Z"/><path d="M122,134.83l-.3-2.6,5-.6-.8-21.3,2.6-.1.8,21.1,5.45-.65.3,2.6-5.65.65.45,11.7-2.6.1-.45-11.5Z"/></svg>