<svg id="Layer_1" data-name="Layer 1" xmlns="http://www.w3.org/2000/svg" viewBox="0 0 245 206"><defs><style>.cls-1{fill:#00a9a3;stroke:#000;stroke-miterlimit:10;stroke-width:7px;}</style></defs><title>Artboard 1</title><rect class="cls-1" width="245" height="206"/><path d="M95.3,111.08a13.72,13.72,0,0,1-4.7,3.67,19.85,19.85,0,0,1-6.15,1.92,18.29,18.29,0,0,1-5,0,10.49,10.49,0,0,1-4.5-1.8A7.69,7.69,0,0,1,72,111a4.14,4.14,0,0,1-.33-1.3q-.07-.75-.07-1.2t0-1.28c0-.55,0-.86,0-.92v-.55q0-2.05.13-3.2a16.2,16.2,0,0,1,.55-3,11.86,11.86,0,0,1,1.38-3.25,16.7,16.7,0,0,1,4.75-4.87,18,18,0,0,1,6.35-2.82q6.25-1.35,10.6,2.2a1.29,1.29,0,0,1,1.1-.2,1.59,1.59,0,0,1,.9.65q.1.2.2.45t.2.85q.1.7.15,2.05,0,1.15,0,2.95A22.53,22.53,0,0,1,98,104q-.05,1.9,0,2.6,0,5.9.2,8.55a1.22,1.22,0,0,1-.3,1,1.31,1.31,0,0,1-.9.45,1.21,1.21,0,0,1-1-.3,1.3,1.3,0,0,1-.45-.9Q95.35,113.39,95.3,111.08Zm0-13.25q-.25-1.7-.4-3.15l-.1-.6a8.23,8.23,0,0,0-4.25-2.77,11.13,11.13,0,0,0-5.3-.08,15.64,15.64,0,0,0-5.4,2.4,14.1,14.1,0,0,0-4.05,4.15,9.25,9.25,0,0,0-1.12,2.75,14.29,14.29,0,0,0-.42,2.55q-.05,1-.1,3.25,0,.4,0,1.13t0,1a7.74,7.74,0,0,0,0,.8,4.79,4.79,0,0,0,.15.83,5.79,5.79,0,0,0,3.55,3.42,12.29,12.29,0,0,0,6.2.53,16,16,0,0,0,6.3-2.17,8.87,8.87,0,0,0,3.8-4,17.67,17.67,0,0,0,1.15-4.15q0-3.75,0-5.85Z"/><path d="M104.05,89.88l2.6-.1L106.8,93a14.58,14.58,0,0,1,7.3-5,18.35,18.35,0,0,1,4.15-.7,8.55,8.55,0,0,1,4,.83A8.39,8.39,0,0,1,125.65,91a16.78,16.78,0,0,1,2.23,4.13A21.76,21.76,0,0,1,129,99.23a26.51,26.51,0,0,1,.27,4.35,41.58,41.58,0,0,1-.22,4.2l-.5,4.25q-.3,2.55-.4,4a1.31,1.31,0,0,1-.45.9,1.22,1.22,0,0,1-.95.3,1.31,1.31,0,0,1-.9-.45,1.21,1.21,0,0,1-.3-1q.15-1.85.45-4.3l.4-4.2q.2-1.6.25-3.83a23.18,23.18,0,0,0-.2-3.9,17.3,17.3,0,0,0-1-3.58,16.32,16.32,0,0,0-1.92-3.6,5.89,5.89,0,0,0-3.73-2.4,9,9,0,0,0-4.92.4,12.89,12.89,0,0,0-4.6,2.63,8.67,8.67,0,0,0-2.65,3.83,1.23,1.23,0,0,1-.6.7l1,18.7-2.6.1Z"/><path d="M139.9,91.28q-.25,1-.45,2.15a18.45,18.45,0,0,0-.25,1.92q0,.78-.17,2.23t-.17,2.2a26.69,26.69,0,0,0,.3,8.2,10.73,10.73,0,0,0,3.65,5.85,5.1,5.1,0,0,0,4.55,1.25q4.5-.85,6.35-6.35a45.32,45.32,0,0,0,1.65-10.5q.25-3.9.3-5.7v-.1a1.78,1.78,0,0,1-.1-.45A1.7,1.7,0,0,1,156.4,90a1.27,1.27,0,0,1,1.2,0,1.61,1.61,0,0,1,.55.5,2,2,0,0,1,.15.4.92.92,0,0,0,0,.3v2.85q0,5.2-.15,8.25-.35,7.1-.15,13.65,0,.15.13,1.68a21.31,21.31,0,0,1,.07,2.63,8,8,0,0,1-.35,2,7.36,7.36,0,0,1-2.22,3.25,9.27,9.27,0,0,1-3.48,1.9,7,7,0,0,1-3.9.2,6.28,6.28,0,0,1-3.5-2,1.22,1.22,0,0,1-.3-1,1.3,1.3,0,0,1,.45-.9,1.21,1.21,0,0,1,1-.3,1.31,1.31,0,0,1,.9.45q1.65,1.95,4.65,1a6.49,6.49,0,0,0,2.48-1.32,4.81,4.81,0,0,0,1.47-2.12,4.88,4.88,0,0,0,.28-1.48,16.84,16.84,0,0,0-.1-2q-.12-1.27-.12-1.92l-.1-4.5a10.29,10.29,0,0,1-7.5,6.1,8.24,8.24,0,0,1-3.6-.2,8.15,8.15,0,0,1-3.15-1.65,15.21,15.21,0,0,1-3-3.65,12.41,12.41,0,0,1-1.55-4,28.12,28.12,0,0,1-.45-4.25,28.67,28.67,0,0,1,.17-4.35q0-.65.15-2.1l.2-2.4q.1-.85.3-2.12a21.82,21.82,0,0,1,.5-2.37,1.33,1.33,0,0,1,.6-.77,1.18,1.18,0,0,1,1-.12,1.33,1.33,0,0,1,.8.6A1.23,1.23,0,0,1,139.9,91.28Z"/><path d="M164.35,84.58A2.2,2.2,0,0,1,164.6,82a2.35,2.35,0,0,1,2.2-1.1,3.3,3.3,0,0,1,.8-.1,3.15,3.15,0,0,1,2.4,4.6,1.89,1.89,0,0,1-.45.55A2.55,2.55,0,0,1,167,87.13a2.46,2.46,0,0,1-1.75-.8,3.17,3.17,0,0,1-.85-1.7A0,0,0,0,1,164.35,84.58Zm3.8,6.2a20.86,20.86,0,0,1,.63,3.67q.17,2,.17,3.5t-.08,3.77q-.07,2.3-.08,3.3,0,1.8.15,5.35t.15,5.35a1.3,1.3,0,1,1-2.6,0q0-1.8-.15-5.35T166.2,105q0-1.2.08-3.45t.07-3.63q0-1.37-.15-3.17a18.06,18.06,0,0,0-.55-3.3,1.22,1.22,0,0,1,.13-1,1.33,1.33,0,0,1,.8-.6,1.18,1.18,0,0,1,1,.13A1.33,1.33,0,0,1,168.15,90.78Z"/></svg>