<svg id="Layer_1" data-name="Layer 1" xmlns="http://www.w3.org/2000/svg" viewBox="0 0 245 206"><defs><style>.cls-1{fill:#00a9a3;stroke:#000;stroke-miterlimit:10;stroke-width:7px;}</style></defs><title>Artboard 1</title><rect class="cls-1" width="245" height="206"/><path d="M61.1,84.08v-2.5l27.1-.3v2.5l-14,.15v32.85H71.7V84Z"/><path d="M95.4,81.28H98l0,13.15a16.23,16.23,0,0,1,2.1-2.6,10.62,10.62,0,0,1,8.2-2.65,14.11,14.11,0,0,1,4.4,1,9.67,9.67,0,0,1,3.5,2.35q3.1,3.35,3.6,11.5.15,2.6.05,6.4,0,.7,0,1.85t0,2q0,.85,0,1.55a1.3,1.3,0,1,1-2.6,0q0-.7,0-1.58t.05-2q0-1.15,0-1.85.1-3.7-.05-6.2-.45-7.2-2.9-9.85a8.81,8.81,0,0,0-6.15-2.55,8.06,8.06,0,0,0-6.25,1.95,13.07,13.07,0,0,0-2.5,3.43,12,12,0,0,0-1.3,4.07,3.62,3.62,0,0,1-.15.45l-.1,15.15H95.2Z"/><path d="M124.4,108.29l-.1-2.6h.55a7.85,7.85,0,0,1,0-1.25,19.14,19.14,0,0,1,3.1-10.2q3.25-4.95,9.75-4.85,8.15.15,11.4,4.9,2.8,4.15,2,12.25a1.24,1.24,0,0,1-.48.85,1.29,1.29,0,0,1-1,.3.38.38,0,0,1-.15,0l-21.7.55a8.83,8.83,0,0,0,2.5,4.55,7.15,7.15,0,0,0,3.05,1.75,23,23,0,0,0,4.3.6,13.18,13.18,0,0,0,4.65-.45,12.93,12.93,0,0,0,4-2.25,1.19,1.19,0,0,1,.93-.3,1.33,1.33,0,0,1,1.17,1.42,1.23,1.23,0,0,1-.5.88,14.45,14.45,0,0,1-4.8,2.72,16.29,16.29,0,0,1-5.55.58,24.9,24.9,0,0,1-5.1-.75,9,9,0,0,1-4-2.3,11.84,11.84,0,0,1-3.35-6.35Zm3-2.7,21.15-.5q.45-6.25-1.65-9.35Q144.5,92.09,137.7,92q-5.1-.1-7.55,3.65a16.45,16.45,0,0,0-2.7,8.9A5.38,5.38,0,0,0,127.45,105.58Z"/><path d="M161.9,91.28q-.25,1-.45,2.15a18.45,18.45,0,0,0-.25,1.92q0,.78-.17,2.23t-.17,2.2a26.69,26.69,0,0,0,.3,8.2,10.73,10.73,0,0,0,3.65,5.85,5.1,5.1,0,0,0,4.55,1.25q4.5-.85,6.35-6.35a45.32,45.32,0,0,0,1.65-10.5q.25-3.9.3-5.7v-.1a1.78,1.78,0,0,1-.1-.45A1.7,1.7,0,0,1,178.4,90a1.27,1.27,0,0,1,1.2,0,1.61,1.61,0,0,1,.55.5,2,2,0,0,1,.15.4.92.92,0,0,0,0,.3v2.85q0,5.2-.15,8.25-.35,7.1-.15,13.65,0,.15.13,1.68a21.31,21.31,0,0,1,.07,2.63,8,8,0,0,1-.35,2,7.36,7.36,0,0,1-2.22,3.25,9.27,9.27,0,0,1-3.48,1.9,7,7,0,0,1-3.9.2,6.28,6.28,0,0,1-3.5-2,1.22,1.22,0,0,1-.3-1,1.3,1.3,0,0,1,.45-.9,1.21,1.21,0,0,1,1-.3,1.31,1.31,0,0,1,.9.45q1.65,1.95,4.65,1a6.49,6.49,0,0,0,2.48-1.32,4.81,4.81,0,0,0,1.47-2.12,4.88,4.88,0,0,0,.28-1.48,16.84,16.84,0,0,0-.1-2q-.12-1.27-.12-1.92l-.1-4.5a10.29,10.29,0,0,1-7.5,6.1,8.24,8.24,0,0,1-3.6-.2,8.15,8.15,0,0,1-3.15-1.65,15.21,15.21,0,0,1-3-3.65,12.41,12.41,0,0,1-1.55-4,28.12,28.12,0,0,1-.45-4.25,28.67,28.67,0,0,1,.17-4.35q0-.65.15-2.1l.2-2.4q.1-.85.3-2.12a21.82,21.82,0,0,1,.5-2.37,1.33,1.33,0,0,1,.6-.77,1.18,1.18,0,0,1,1-.12,1.33,1.33,0,0,1,.8.6A1.23,1.23,0,0,1,161.9,91.28Z"/></svg>