<svg id="Layer_1" data-name="Layer 1" xmlns="http://www.w3.org/2000/svg" viewBox="0 0 245 206"><defs><style>.cls-1{fill:#00a9a3;stroke:#000;stroke-miterlimit:10;stroke-width:7px;}</style></defs><title>Artboard 1</title><rect class="cls-1" width="245" height="206"/><path d="M80.8,90.38q-.1.55-.42,2.13T80,94.73l-.4,2q-.25,1.35-.33,2.17t-.15,2a15.48,15.48,0,0,0,0,2.15q.08,1,.23,2a14,14,0,0,0,1,3.53,7.94,7.94,0,0,0,1.77,2.72,10.33,10.33,0,0,0,6.23,2.68,8.91,8.91,0,0,0,6.42-1.43,11.35,11.35,0,0,0,3-3.82,22.85,22.85,0,0,0,2-5.68,22.23,22.23,0,0,0,.47-6,13.62,13.62,0,0,0-1.07-4.87,1.16,1.16,0,0,1-.08-1,1.22,1.22,0,0,1,.65-.75,1.3,1.3,0,0,1,1-.05,1.13,1.13,0,0,1,.73.68,14.68,14.68,0,0,1,1.38,5.85A27.14,27.14,0,0,1,100,110a13.16,13.16,0,0,1-3.8,4.6,11.74,11.74,0,0,1-8.2,1.9,12.83,12.83,0,0,1-7.75-3.35,10.32,10.32,0,0,1-2.3-3.5,19.12,19.12,0,0,1-1.25-4.25,21.8,21.8,0,0,1-.23-2.83q0-1.47,0-2.48t.32-2.77q.27-1.77.43-2.37l.5-2.65q.45-2.1.55-2.4a1.25,1.25,0,0,1,.55-.85,1.19,1.19,0,0,1,1-.18,1.33,1.33,0,0,1,.83.58A1.08,1.08,0,0,1,80.8,90.38Z"/><path d="M108.7,89.88l2.6-.1.15,3.25a14.58,14.58,0,0,1,7.3-5,18.35,18.35,0,0,1,4.15-.7,8.55,8.55,0,0,1,4,.83A8.4,8.4,0,0,1,130.3,91a16.75,16.75,0,0,1,2.22,4.13,21.84,21.84,0,0,1,1.13,4.13,26.41,26.41,0,0,1,.27,4.35,41.3,41.3,0,0,1-.22,4.2l-.5,4.25q-.3,2.55-.4,4a1.31,1.31,0,0,1-.45.9,1.22,1.22,0,0,1-1,.3,1.31,1.31,0,0,1-.9-.45,1.22,1.22,0,0,1-.3-1q.15-1.85.45-4.3l.4-4.2q.2-1.6.25-3.83a23.39,23.39,0,0,0-.2-3.9,17.25,17.25,0,0,0-1-3.58,16.32,16.32,0,0,0-1.92-3.6,5.89,5.89,0,0,0-3.72-2.4,9,9,0,0,0-4.93.4,12.89,12.89,0,0,0-4.6,2.63,8.67,8.67,0,0,0-2.65,3.83,1.23,1.23,0,0,1-.6.7l1,18.7-2.6.1Z"/><path d="M142.8,90.38q-.1.55-.42,2.13T142,94.73l-.4,2q-.25,1.35-.33,2.17t-.15,2a15.18,15.18,0,0,0,0,2.15q.07,1,.22,2a14,14,0,0,0,1,3.53,8,8,0,0,0,1.78,2.72,10.33,10.33,0,0,0,6.22,2.68,8.92,8.92,0,0,0,6.43-1.43,11.35,11.35,0,0,0,3-3.82,22.87,22.87,0,0,0,2-5.68,22.25,22.25,0,0,0,.47-6,13.61,13.61,0,0,0-1.08-4.87,1.16,1.16,0,0,1-.07-1,1.21,1.21,0,0,1,.65-.75,1.3,1.3,0,0,1,1-.05,1.13,1.13,0,0,1,.73.68,14.69,14.69,0,0,1,1.38,5.85A27.15,27.15,0,0,1,162,110a13.16,13.16,0,0,1-3.8,4.6,11.74,11.74,0,0,1-8.2,1.9,12.83,12.83,0,0,1-7.75-3.35,10.31,10.31,0,0,1-2.3-3.5,19.07,19.07,0,0,1-1.25-4.25,21.71,21.71,0,0,1-.23-2.83q0-1.47,0-2.48t.33-2.77q.27-1.77.42-2.37l.5-2.65q.45-2.1.55-2.4a1.25,1.25,0,0,1,.55-.85,1.19,1.19,0,0,1,1-.18,1.33,1.33,0,0,1,.82.58A1.08,1.08,0,0,1,142.8,90.38Z"/></svg>