<svg id="Layer_1" data-name="Layer 1" xmlns="http://www.w3.org/2000/svg" viewBox="0 0 245 206"><defs><style>.cls-1{fill:#73165d;stroke:#000;stroke-width:7px;}.cls-1,.cls-3{stroke-miterlimit:10;}.cls-2{fill:#fff;}.cls-3{fill:#f7931e;stroke:#f7931e;}</style></defs><title>they like oranges</title><rect class="cls-1" x="2.87" y="0.9" width="245" height="206"/><path d="M37.77,57.64v-2l21.14-.23v2L48,57.52V83.14H46V57.56Z"/><path d="M64.53,55.45h2l0,10.26a12.64,12.64,0,0,1,1.64-2,8.28,8.28,0,0,1,6.4-2.07A11,11,0,0,1,78,62.4a7.54,7.54,0,0,1,2.73,1.83q2.42,2.61,2.81,9,.12,2,0,5,0,.55,0,1.44t0,1.56q0,.66,0,1.21a1,1,0,1,1-2,0q0-.54,0-1.23t0-1.58q0-.9,0-1.44.08-2.89,0-4.84-.35-5.62-2.26-7.68a6.87,6.87,0,0,0-4.8-2,6.29,6.29,0,0,0-4.87,1.52,10.19,10.19,0,0,0-2,2.67,9.34,9.34,0,0,0-1,3.18,2.66,2.66,0,0,1-.12.35L66.4,83.18h-2Z"/><path d="M87.15,76.51l-.08-2h.43a6,6,0,0,1,0-1,14.91,14.91,0,0,1,2.42-8,8.32,8.32,0,0,1,7.6-3.78q6.36.12,8.89,3.82,2.18,3.24,1.56,9.55a1,1,0,0,1-.37.66,1,1,0,0,1-.76.23l-.12,0-16.93.43a6.88,6.88,0,0,0,2,3.55,5.59,5.59,0,0,0,2.38,1.37,17.9,17.9,0,0,0,3.35.47,10.3,10.3,0,0,0,3.63-.35,10.09,10.09,0,0,0,3.12-1.75.92.92,0,0,1,.72-.23,1,1,0,0,1,.92,1.11,1,1,0,0,1-.39.68,11.3,11.3,0,0,1-3.74,2.13,12.74,12.74,0,0,1-4.33.45,19.5,19.5,0,0,1-4-.58,7,7,0,0,1-3.08-1.79,9.24,9.24,0,0,1-2.61-5Zm2.38-2.11L106,74q.35-4.87-1.29-7.29-1.91-2.85-7.21-2.92a6.38,6.38,0,0,0-5.89,2.85,12.83,12.83,0,0,0-2.11,6.94A4.24,4.24,0,0,0,89.53,74.41Z"/><path d="M116.4,63.25q-.2.78-.35,1.68a14.24,14.24,0,0,0-.2,1.5q0,.61-.14,1.74t-.14,1.72a20.84,20.84,0,0,0,.23,6.4,8.37,8.37,0,0,0,2.85,4.56,4,4,0,0,0,3.55,1q3.51-.66,5-5a35.32,35.32,0,0,0,1.29-8.19q.19-3,.23-4.45v-.08a1.38,1.38,0,0,1-.08-.35,1.33,1.33,0,0,1,.66-1.52,1,1,0,0,1,.94,0,1.26,1.26,0,0,1,.43.39,1.5,1.5,0,0,1,.12.31.73.73,0,0,0,0,.23v2.22q0,4.06-.12,6.43-.27,5.54-.12,10.65c0,.08,0,.51.1,1.31a16.45,16.45,0,0,1,.06,2,6.2,6.2,0,0,1-.27,1.6A5.75,5.75,0,0,1,128.7,90,7.21,7.21,0,0,1,126,91.49a5.44,5.44,0,0,1-3,.16,4.9,4.9,0,0,1-2.73-1.6,1,1,0,0,1-.23-.74,1,1,0,0,1,.35-.7,1,1,0,0,1,.74-.23,1,1,0,0,1,.7.35,3.17,3.17,0,0,0,3.63.82,5,5,0,0,0,1.93-1,3.74,3.74,0,0,0,1.15-1.66,3.79,3.79,0,0,0,.21-1.15,13.09,13.09,0,0,0-.08-1.6q-.1-1-.1-1.5l-.08-3.51a8,8,0,0,1-5.85,4.76,6.59,6.59,0,0,1-5.27-1.44A11.86,11.86,0,0,1,115,79.56a9.68,9.68,0,0,1-1.21-3.12,23.12,23.12,0,0,1-.21-6.71q0-.51.12-1.64l.16-1.87q.08-.66.23-1.66a17,17,0,0,1,.39-1.85,1,1,0,0,1,.47-.6.92.92,0,0,1,.76-.1,1,1,0,0,1,.62.47A1,1,0,0,1,116.4,63.25Z"/><path class="cls-2" d="M147.95,54.4h2l.51,28.43h-2Z"/><path class="cls-2" d="M155.12,58a1.71,1.71,0,0,1,.19-2,1.84,1.84,0,0,1,1.72-.86,2.58,2.58,0,0,1,.62-.08,2.46,2.46,0,0,1,1.87,3.59,1.46,1.46,0,0,1-.35.43,2,2,0,0,1-2,.9,1.92,1.92,0,0,1-1.37-.62,2.47,2.47,0,0,1-.66-1.33A0,0,0,0,1,155.12,58Zm3,4.84a16.36,16.36,0,0,1,.49,2.87q.14,1.58.14,2.73t-.06,2.94q-.06,1.79-.06,2.57,0,1.4.12,4.17t.12,4.17a1,1,0,1,1-2,0q0-1.4-.12-4.17T156.57,74q0-.94.06-2.69t.06-2.83q0-1.07-.12-2.48a14,14,0,0,0-.43-2.57,1,1,0,0,1,.1-.78,1,1,0,0,1,.62-.47.92.92,0,0,1,.76.1A1,1,0,0,1,158.09,62.86Z"/><path class="cls-2" d="M166.12,54h2L168,73l10.57-10.69,1.4,1.4-6.32,6.43,5.46,12.09-1.87.86-5.11-11.39-4.17,4.21-.08,6.75h-2Z"/><path class="cls-2" d="M183.51,76.51l-.08-2h.43a6,6,0,0,1,0-1,14.93,14.93,0,0,1,2.42-8,8.32,8.32,0,0,1,7.6-3.78q6.36.12,8.89,3.82,2.18,3.24,1.56,9.55a1,1,0,0,1-.37.66,1,1,0,0,1-.76.23l-.12,0-16.93.43a6.89,6.89,0,0,0,2,3.55,5.59,5.59,0,0,0,2.38,1.37,17.93,17.93,0,0,0,3.35.47,10.31,10.31,0,0,0,3.63-.35,10.1,10.1,0,0,0,3.12-1.75.93.93,0,0,1,.72-.23,1,1,0,0,1,.92,1.11,1,1,0,0,1-.39.68,11.28,11.28,0,0,1-3.74,2.13,12.73,12.73,0,0,1-4.33.45,19.5,19.5,0,0,1-4-.58,7,7,0,0,1-3.08-1.79,9.24,9.24,0,0,1-2.61-5Zm2.38-2.11,16.5-.39q.35-4.87-1.29-7.29-1.91-2.85-7.22-2.92A6.38,6.38,0,0,0,188,66.65a12.83,12.83,0,0,0-2.11,6.94A4.24,4.24,0,0,0,185.89,74.41Z"/><path class="cls-3" d="M59,109.82a.87.87,0,0,1,.31.16,7.87,7.87,0,0,1,1.17,1.29,11.87,11.87,0,0,1,.72,1.09q.21.39.68,1.4A13.26,13.26,0,0,1,63,118.63a12.62,12.62,0,0,1-.74,5,10.06,10.06,0,0,1-2.89,4.17,8.83,8.83,0,0,1-4.8,2,21.89,21.89,0,0,1-4.17-.12,11.49,11.49,0,0,1-7.45-3.32,10.7,10.7,0,0,1-3.16-7.6,13.11,13.11,0,0,1,.9-4.87,11.54,11.54,0,0,1,2.38-3.8,11.19,11.19,0,0,1,3.45-2.44,11,11,0,0,1,4.08-1,11.28,11.28,0,0,1,4.31.68A11.87,11.87,0,0,1,59,109.82Zm-.55,2.3A11.15,11.15,0,0,0,55,109.57a9.12,9.12,0,0,0-3.69-.92,8.88,8.88,0,0,0-3.55.66,9,9,0,0,0-5.15,5.19,11.09,11.09,0,0,0-.8,4.25A8.73,8.73,0,0,0,44.4,125a9.47,9.47,0,0,0,6.2,2.69,17.25,17.25,0,0,0,3.71.12,7,7,0,0,0,3.74-1.56,7.72,7.72,0,0,0,2.26-3.32,11.07,11.07,0,0,0,.62-4.17,10.21,10.21,0,0,0-1-4.09,15.46,15.46,0,0,0-1.21-2.26A1,1,0,0,1,58.4,112.12Z"/><path class="cls-3" d="M68.86,110l2-.08.12,3.71a8.5,8.5,0,0,1,4.25-3.43,5.19,5.19,0,0,1,4.09.2,7,7,0,0,1,3.24,3.82,1,1,0,0,1,0,.78.94.94,0,0,1-.55.55,1,1,0,0,1-.78,0,.94.94,0,0,1-.55-.55,5.11,5.11,0,0,0-2.26-2.77,3.15,3.15,0,0,0-2.54-.12A6.59,6.59,0,0,0,73.26,114a8,8,0,0,0-1.75,3.2.84.84,0,0,1-.39.55l.39,12-2,.08Z"/><path class="cls-3" d="M105.28,125.5a10.69,10.69,0,0,1-3.67,2.87,15.48,15.48,0,0,1-4.8,1.5,14.29,14.29,0,0,1-3.94,0,8.19,8.19,0,0,1-3.51-1.4,6,6,0,0,1-2.3-3,3.23,3.23,0,0,1-.25-1c0-.39-.06-.7-.06-.94s0-.57,0-1,0-.67,0-.72v-.43q0-1.6.1-2.5a12.67,12.67,0,0,1,.43-2.3A9.26,9.26,0,0,1,88.39,114a13,13,0,0,1,3.71-3.8,14.07,14.07,0,0,1,5-2.2,9.31,9.31,0,0,1,8.27,1.72,1,1,0,0,1,.86-.16,1.24,1.24,0,0,1,.7.51c.05.1.1.22.16.35s.1.4.16.66.09.9.12,1.6,0,1.37,0,2.3a17.53,17.53,0,0,1,0,5q0,1.48,0,2,0,4.6.16,6.67a1,1,0,0,1-.23.74,1,1,0,0,1-.7.35.94.94,0,0,1-.74-.23,1,1,0,0,1-.35-.7Q105.32,127.29,105.28,125.5Zm0-10.33q-.19-1.33-.31-2.46l-.08-.47a6.42,6.42,0,0,0-3.32-2.17,8.7,8.7,0,0,0-4.13-.06,12.21,12.21,0,0,0-4.21,1.87,11,11,0,0,0-3.16,3.24,7.21,7.21,0,0,0-.88,2.14,11.23,11.23,0,0,0-.33,2q0,.78-.08,2.54c0,.21,0,.5,0,.88s0,.65,0,.82,0,.38,0,.62a3.87,3.87,0,0,0,.12.64,4.51,4.51,0,0,0,2.77,2.67,9.58,9.58,0,0,0,4.84.41,12.52,12.52,0,0,0,4.91-1.7,6.92,6.92,0,0,0,3-3.1,13.8,13.8,0,0,0,.9-3.24q0-2.93,0-4.56Z"/><path class="cls-3" d="M112.11,109l2-.08.12,2.54a11.38,11.38,0,0,1,5.69-3.9,14.36,14.36,0,0,1,3.24-.55,6.68,6.68,0,0,1,3.16.64,6.55,6.55,0,0,1,2.61,2.2,13.09,13.09,0,0,1,1.74,3.22,17,17,0,0,1,.88,3.22,20.6,20.6,0,0,1,.21,3.39,32.65,32.65,0,0,1-.18,3.28l-.39,3.32q-.23,2-.31,3.16a1,1,0,0,1-.35.7,1,1,0,0,1-.74.23,1,1,0,0,1-.7-.35,1,1,0,0,1-.23-.74q.12-1.44.35-3.35l.31-3.28q.16-1.25.2-3a18.18,18.18,0,0,0-.16-3,13.5,13.5,0,0,0-.76-2.79,12.74,12.74,0,0,0-1.5-2.81,4.59,4.59,0,0,0-2.91-1.87,7,7,0,0,0-3.84.31,10,10,0,0,0-3.59,2,6.77,6.77,0,0,0-2.07,3,1,1,0,0,1-.47.55l.78,14.59-2,.08Z"/><path class="cls-3" d="M157,109a23.51,23.51,0,0,0-.23,3q0,1.7,0,2.77t.21,3.41q.16,2.34.23,3.16.08,2.26.1,4.33a22.27,22.27,0,0,1-.39,4.27,15.08,15.08,0,0,1-1.31,4,7.4,7.4,0,0,1-2.79,3.12,10.19,10.19,0,0,1-4.12,1.52,9.62,9.62,0,0,1-4.39-.39,7,7,0,0,1-3.45-2.42,1.06,1.06,0,0,1-.17-.76,1,1,0,0,1,.39-.66,1,1,0,0,1,.74-.19,1.09,1.09,0,0,1,.68.37,4.94,4.94,0,0,0,2.51,1.75,8.16,8.16,0,0,0,6.67-.9,5.69,5.69,0,0,0,2.13-2.3,17.41,17.41,0,0,0,1.44-6.32q-2.77,3.31-8.62,3.31h-2.22l-1.11,0c-.53,0-1-.06-1.27-.1s-.68-.1-1.11-.18-.83-.17-1.19-.27a6.55,6.55,0,0,1-3.55-2.63,9.06,9.06,0,0,1-1.4-4.31,13.85,13.85,0,0,1,.31-4.35,15.88,15.88,0,0,1,1.44-4,9.19,9.19,0,0,1,2.36-2.75,10.68,10.68,0,0,1,3.18-1.74,17.25,17.25,0,0,1,3.43-.8,17.85,17.85,0,0,1,3.43-.1,11.23,11.23,0,0,1,5.81,1.79q.08-1,.2-1.91a1,1,0,0,1,.41-.66,1,1,0,0,1,.76-.17.93.93,0,0,1,.66.39A1.11,1.11,0,0,1,157,109Zm-2.46,4.17q-1.75-2.07-5.73-2.34a14.45,14.45,0,0,0-6.2.86,7.66,7.66,0,0,0-4.25,3.51,14,14,0,0,0-1.56,7.18q.35,4.13,3.59,5.15a5.77,5.77,0,0,0,1,.25l.94.16a9.86,9.86,0,0,0,1.13.08l1,0h2.26q5.15,0,7.21-2.81a.91.91,0,0,1,.66-.41,1,1,0,0,1,.74.18h0q0-1.52-.12-3.55-.08-.86-.2-2.53t-.2-3q-.08-1.37-.12-2.54Z"/><path class="cls-3" d="M160.93,123.31l-.08-2h.43a6,6,0,0,1,0-1,14.93,14.93,0,0,1,2.42-8,8.32,8.32,0,0,1,7.6-3.78q6.36.12,8.89,3.82,2.18,3.24,1.56,9.56a1,1,0,0,1-.37.66,1,1,0,0,1-.76.23l-.12,0-16.93.43a6.89,6.89,0,0,0,2,3.55,5.59,5.59,0,0,0,2.38,1.36,17.92,17.92,0,0,0,3.35.47,10.28,10.28,0,0,0,3.63-.35,10.06,10.06,0,0,0,3.12-1.75.92.92,0,0,1,.72-.23,1,1,0,0,1,.68.37,1,1,0,0,1,.23.74,1,1,0,0,1-.39.68,11.26,11.26,0,0,1-3.74,2.13,12.71,12.71,0,0,1-4.33.45,19.44,19.44,0,0,1-4-.58,7,7,0,0,1-3.08-1.79,9.24,9.24,0,0,1-2.61-5Zm2.38-2.11,16.5-.39q.35-4.87-1.29-7.29-1.91-2.85-7.22-2.92a6.38,6.38,0,0,0-5.89,2.85,12.82,12.82,0,0,0-2.11,6.94A4.25,4.25,0,0,0,163.31,121.21Z"/><path class="cls-3" d="M200.87,113.17a5.3,5.3,0,0,0-2.09-3.47,7.23,7.23,0,0,0-4.06-1.46,6.47,6.47,0,0,0-4.08,1,4.91,4.91,0,0,0-2.18,3.35q-.47,2.34.59,3.28a7.76,7.76,0,0,0,3.35,1.17,9.32,9.32,0,0,1,1,.14q.8.14,1.09.21l1.07.25a6.61,6.61,0,0,1,1.13.33l1.05.47a3.67,3.67,0,0,1,1.05.62l.82.78a3.76,3.76,0,0,1,.78,1,9.14,9.14,0,0,1,.55,1.25,5.1,5.1,0,0,1-.14,3.71,6.41,6.41,0,0,1-2.44,2.81,8.28,8.28,0,0,1-3.39,1.36,8.12,8.12,0,0,1-3.63-.19,5.79,5.79,0,0,1-.58-.25,2.7,2.7,0,0,1-.55-.37l-.43-.35a3.4,3.4,0,0,1-.41-.39c-.17-.18-.27-.27-.29-.27a1,1,0,0,1-.31-.72,1,1,0,0,1,.29-.72.93.93,0,0,1,.7-.31,1.06,1.06,0,0,1,.72.27l.35.35.31.31.25.21a1.83,1.83,0,0,0,.29.2,1.29,1.29,0,0,0,.27.1,5.46,5.46,0,0,0,2.65.14,7.1,7.1,0,0,0,2.65-1q2.53-1.72,1.72-4.21a4.53,4.53,0,0,0-.53-1.13,3.1,3.1,0,0,0-.84-.86,10.6,10.6,0,0,0-.94-.59,5.89,5.89,0,0,0-1.23-.45q-.8-.21-1.31-.31l-1.48-.25-.58-.12a8.9,8.9,0,0,1-4.33-1.64q-2-1.68-1.29-5.19a6.83,6.83,0,0,1,3-4.66,8.84,8.84,0,0,1,5.34-1.38,9.66,9.66,0,0,1,5.25,1.93,7.18,7.18,0,0,1,2.83,4.74,1.11,1.11,0,0,1-.2.74.9.9,0,0,1-.64.41,1.06,1.06,0,0,1-.76-.18A1,1,0,0,1,200.87,113.17Z"/></svg>