<svg id="Layer_1" data-name="Layer 1" xmlns="http://www.w3.org/2000/svg" viewBox="0 0 245 206"><defs><style>.cls-1{fill:#f472bb;stroke:#000;stroke-miterlimit:10;stroke-width:7px;}.cls-2{fill:#fff;}</style></defs><title>they are</title><rect class="cls-1" x="2.87" y="0.9" width="245" height="206"/><path d="M39.88,102.26l-.23-2,3.86-.47-.62-16.61,2-.08.62,16.46L49.79,99l.23,2-4.41.51.35,9.13-2,.08-.35-9Z"/><path d="M55.64,83.11h2l0,10.26a12.64,12.64,0,0,1,1.64-2,8.28,8.28,0,0,1,6.4-2.07,11,11,0,0,1,3.43.78,7.54,7.54,0,0,1,2.73,1.83q2.42,2.61,2.81,9,.12,2,0,5,0,.55,0,1.44t0,1.56q0,.66,0,1.21a1,1,0,1,1-2,0q0-.55,0-1.23t0-1.58q0-.9,0-1.44.08-2.89,0-4.84-.35-5.62-2.26-7.68a6.88,6.88,0,0,0-4.8-2,6.29,6.29,0,0,0-4.88,1.52,10.17,10.17,0,0,0-2,2.67,9.34,9.34,0,0,0-1,3.18,2.67,2.67,0,0,1-.12.35l-.08,11.82h-2Z"/><path d="M78.25,104.17l-.08-2h.43a6,6,0,0,1,0-1,14.92,14.92,0,0,1,2.42-8,8.32,8.32,0,0,1,7.6-3.78q6.36.12,8.89,3.82,2.18,3.24,1.56,9.56a1,1,0,0,1-.37.66,1,1,0,0,1-.76.23l-.12,0-16.93.43a6.89,6.89,0,0,0,2,3.55A5.58,5.58,0,0,0,85.24,109a17.89,17.89,0,0,0,3.35.47,10.27,10.27,0,0,0,3.63-.35,10.05,10.05,0,0,0,3.12-1.75.92.92,0,0,1,.72-.23,1,1,0,0,1,.92,1.11,1,1,0,0,1-.39.68,11.28,11.28,0,0,1-3.74,2.13,12.71,12.71,0,0,1-4.33.45,19.44,19.44,0,0,1-4-.58,7,7,0,0,1-3.08-1.79,9.24,9.24,0,0,1-2.61-5Zm2.38-2.11,16.5-.39q.35-4.87-1.29-7.29-1.91-2.85-7.21-2.92a6.38,6.38,0,0,0-5.89,2.85,12.83,12.83,0,0,0-2.11,6.94A4.25,4.25,0,0,0,80.63,102.06Z"/><path d="M107.5,90.91q-.2.78-.35,1.68a14.22,14.22,0,0,0-.2,1.5q0,.6-.14,1.74t-.14,1.72a20.85,20.85,0,0,0,.23,6.4,8.36,8.36,0,0,0,2.85,4.56,4,4,0,0,0,3.55,1q3.51-.66,5-5a35.33,35.33,0,0,0,1.29-8.19q.19-3,.23-4.45v-.08a1.38,1.38,0,0,1-.08-.35,1.33,1.33,0,0,1,.66-1.52,1,1,0,0,1,.94,0,1.25,1.25,0,0,1,.43.39,1.52,1.52,0,0,1,.12.31.73.73,0,0,0,0,.23v2.22q0,4.06-.12,6.43-.27,5.54-.12,10.65,0,.12.1,1.31a16.45,16.45,0,0,1,.06,2,6.2,6.2,0,0,1-.27,1.6,5.74,5.74,0,0,1-1.74,2.54,7.22,7.22,0,0,1-2.71,1.48,5.46,5.46,0,0,1-3,.16,4.9,4.9,0,0,1-2.73-1.6,1,1,0,0,1-.23-.74,1,1,0,0,1,.35-.7,1,1,0,0,1,.74-.23,1,1,0,0,1,.7.35,3.17,3.17,0,0,0,3.63.82,5.06,5.06,0,0,0,1.93-1,3.74,3.74,0,0,0,1.15-1.66,3.78,3.78,0,0,0,.21-1.15,13.07,13.07,0,0,0-.08-1.6q-.1-1-.1-1.5l-.08-3.51a8,8,0,0,1-5.85,4.76,6.59,6.59,0,0,1-5.27-1.44,11.86,11.86,0,0,1-2.36-2.85,9.67,9.67,0,0,1-1.21-3.12,23.12,23.12,0,0,1-.21-6.71q0-.51.12-1.64l.16-1.87q.08-.66.23-1.66a17,17,0,0,1,.39-1.85,1,1,0,0,1,.47-.6.92.92,0,0,1,.76-.1,1,1,0,0,1,.62.47A1,1,0,0,1,107.5,90.91Z"/><path class="cls-2" d="M156.21,106.35a10.69,10.69,0,0,1-3.67,2.87,15.48,15.48,0,0,1-4.8,1.5,14.29,14.29,0,0,1-3.94,0,8.2,8.2,0,0,1-3.51-1.4,6,6,0,0,1-2.3-3,3.23,3.23,0,0,1-.25-1c0-.39-.06-.7-.06-.94s0-.57,0-1,0-.67,0-.72v-.43q0-1.6.1-2.5a12.6,12.6,0,0,1,.43-2.3,9.23,9.23,0,0,1,1.07-2.53,13,13,0,0,1,3.71-3.8,14.06,14.06,0,0,1,5-2.2,9.31,9.31,0,0,1,8.27,1.72,1,1,0,0,1,.86-.16,1.24,1.24,0,0,1,.7.51c.05.1.1.22.16.35s.1.4.16.66.09.9.12,1.6,0,1.37,0,2.3a17.6,17.6,0,0,1,0,5q0,1.48,0,2,0,4.6.16,6.67a1,1,0,0,1-.23.74,1,1,0,0,1-.7.35,1,1,0,0,1-.74-.23,1,1,0,0,1-.35-.7Q156.25,108.15,156.21,106.35Zm0-10.33q-.19-1.33-.31-2.46l-.08-.47a6.42,6.42,0,0,0-3.32-2.17,8.7,8.7,0,0,0-4.13-.06,12.2,12.2,0,0,0-4.21,1.87A11,11,0,0,0,141,96a7.21,7.21,0,0,0-.88,2.14,11.14,11.14,0,0,0-.33,2q0,.78-.08,2.54c0,.21,0,.5,0,.88s0,.65,0,.82a6,6,0,0,0,0,.62,3.68,3.68,0,0,0,.12.64,4.52,4.52,0,0,0,2.77,2.67,9.59,9.59,0,0,0,4.84.41,12.51,12.51,0,0,0,4.91-1.7,6.92,6.92,0,0,0,3-3.1,13.8,13.8,0,0,0,.9-3.24q0-2.93,0-4.56Z"/><path class="cls-2" d="M164.33,90.87l2-.08.12,3.71a8.5,8.5,0,0,1,4.25-3.43,5.19,5.19,0,0,1,4.09.2,7,7,0,0,1,3.24,3.82,1,1,0,0,1,0,.78.94.94,0,0,1-.55.55,1,1,0,0,1-.78,0,.94.94,0,0,1-.55-.55,5.11,5.11,0,0,0-2.26-2.77,3.15,3.15,0,0,0-2.54-.12,6.6,6.6,0,0,0-2.65,1.91,8,8,0,0,0-1.75,3.2.83.83,0,0,1-.39.55l.39,12-2,.08Z"/><path class="cls-2" d="M181.72,104.17l-.08-2h.43a6,6,0,0,1,0-1,14.93,14.93,0,0,1,2.42-8,8.32,8.32,0,0,1,7.6-3.78q6.36.12,8.89,3.82,2.18,3.24,1.56,9.56a1,1,0,0,1-.37.66,1,1,0,0,1-.76.23l-.12,0-16.93.43a6.89,6.89,0,0,0,2,3.55A5.59,5.59,0,0,0,188.7,109a17.92,17.92,0,0,0,3.35.47,10.28,10.28,0,0,0,3.63-.35,10.06,10.06,0,0,0,3.12-1.75.92.92,0,0,1,.72-.23,1,1,0,0,1,.68.37,1,1,0,0,1,.23.74,1,1,0,0,1-.39.68,11.26,11.26,0,0,1-3.74,2.13,12.71,12.71,0,0,1-4.33.45,19.44,19.44,0,0,1-4-.58,7,7,0,0,1-3.08-1.79,9.24,9.24,0,0,1-2.61-5Zm2.38-2.11,16.5-.39q.35-4.87-1.29-7.29-1.91-2.85-7.22-2.92a6.38,6.38,0,0,0-5.89,2.85,12.82,12.82,0,0,0-2.11,6.94A4.25,4.25,0,0,0,184.1,102.06Z"/></svg>