<?xml version="1.0" encoding="utf-8"?>
<!-- Generator: Adobe Illustrator 16.0.3, SVG Export Plug-In . SVG Version: 6.00 Build 0)  -->
<!DOCTYPE svg PUBLIC "-//W3C//DTD SVG 1.1//EN" "http://www.w3.org/Graphics/SVG/1.1/DTD/svg11.dtd">
<svg version="1.1" id="Layer_1" xmlns="http://www.w3.org/2000/svg" xmlns:xlink="http://www.w3.org/1999/xlink" x="0px" y="0px"
	 width="964.864px" height="695.027px" viewBox="0 0 964.864 695.027" enable-background="new 0 0 964.864 695.027"
	 xml:space="preserve">
<line stroke="#000000" stroke-width="5" stroke-miterlimit="10" x1="0" y1="79.729" x2="100" y2="79.729"/>
<line stroke="#000000" stroke-width="5" stroke-miterlimit="10" x1="100" y1="79.729" x2="100" y2="150"/>
<line stroke="#000000" stroke-width="5" stroke-miterlimit="10" x1="100" y1="150" x2="200" y2="150"/>
<line stroke="#000000" stroke-width="5" stroke-miterlimit="10" x1="200" y1="150" x2="200" y2="220.27"/>
<line stroke="#000000" stroke-width="5" stroke-miterlimit="10" x1="200" y1="220.27" x2="300" y2="220.27"/>
<line stroke="#000000" stroke-width="5" stroke-miterlimit="10" x1="300" y1="220.27" x2="300" y2="290.541"/>
<line stroke="#000000" stroke-width="5" stroke-miterlimit="10" x1="300" y1="290.541" x2="400" y2="290.541"/>
<line stroke="#000000" stroke-width="5" stroke-miterlimit="10" x1="400" y1="290.541" x2="400" y2="360.811"/>
<line stroke="#000000" stroke-width="5" stroke-miterlimit="10" x1="400" y1="360.811" x2="500" y2="360.811"/>
<line stroke="#000000" stroke-width="5" stroke-miterlimit="10" x1="400" y1="290.541" x2="400" y2="290.541"/>
<line stroke="#000000" stroke-width="5" stroke-miterlimit="10" x1="500" y1="360.811" x2="500" y2="431.081"/>
<line stroke="#000000" stroke-width="5" stroke-miterlimit="10" x1="500" y1="431.081" x2="600" y2="431.081"/>
<line stroke="#000000" stroke-width="5" stroke-miterlimit="10" x1="600" y1="431.081" x2="600" y2="501.351"/>
<line stroke="#000000" stroke-width="5" stroke-miterlimit="10" x1="600" y1="501.351" x2="700" y2="501.351"/>
<line stroke="#000000" stroke-width="5" stroke-miterlimit="10" x1="700" y1="501.351" x2="700" y2="571.622"/>
<line stroke="#000000" stroke-width="5" stroke-miterlimit="10" x1="700" y1="571.622" x2="800" y2="571.622"/>
<line stroke="#000000" stroke-width="5" stroke-miterlimit="10" x1="800" y1="571.622" x2="800" y2="641.892"/>
<line stroke="#000000" stroke-width="5" stroke-miterlimit="10" x1="800" y1="641.892" x2="900" y2="641.892"/>
<line stroke="#000000" stroke-width="5" stroke-miterlimit="10" x1="900" y1="641.892" x2="900" y2="695.027"/>
<line stroke="#000000" stroke-width="5" stroke-miterlimit="10" x1="231.081" y1="47.297" x2="250" y2="178.378"/>
<line stroke="#000000" stroke-width="5" stroke-miterlimit="10" x1="277.027" y1="31.081" x2="287.838" y2="171.622"/>
<line stroke="#000000" stroke-width="5" stroke-miterlimit="10" x1="250" y1="178.378" x2="287.838" y2="171.622"/>
<line stroke="#000000" stroke-width="5" stroke-miterlimit="10" x1="262.254" y1="176.19" x2="268.919" y2="208.108"/>
<line stroke="#000000" stroke-width="5" stroke-miterlimit="10" x1="268.919" y1="208.108" x2="325.675" y2="220.27"/>
<line stroke="#000000" stroke-width="5" stroke-miterlimit="10" x1="277.027" y1="176.19" x2="325.675" y2="208.108"/>
<line stroke="#000000" stroke-width="5" stroke-miterlimit="10" x1="325.675" y1="208.108" x2="318.919" y2="220.27"/>
<line stroke="#000000" stroke-width="5" stroke-miterlimit="10" x1="297.297" y1="189.489" x2="282.433" y2="211.003"/>
<line stroke="#000000" stroke-width="5" stroke-miterlimit="10" x1="300" y1="220.27" x2="313.693" y2="200.247"/>
<line stroke="#000000" stroke-width="5" stroke-miterlimit="10" x1="221.622" y1="31.081" x2="208.108" y2="90.541"/>
<line stroke="#000000" stroke-width="5" stroke-miterlimit="10" x1="208.108" y1="90.541" x2="174.324" y2="101.351"/>
<line stroke="#000000" stroke-width="5" stroke-miterlimit="10" x1="174.324" y1="101.351" x2="200" y2="132.432"/>
<line stroke="#000000" stroke-width="5" stroke-miterlimit="10" x1="200" y1="132.432" x2="191.216" y2="150"/>
<line stroke="#000000" stroke-width="5" stroke-miterlimit="10" x1="191.216" y1="150" x2="127.027" y2="116.892"/>
<line stroke="#000000" stroke-width="5" stroke-miterlimit="10" x1="120.27" y1="116.892" x2="159.121" y2="79.729"/>
<line stroke="#000000" stroke-width="5" stroke-miterlimit="10" x1="127.027" y1="116.892" x2="120.27" y2="116.892"/>
<line stroke="#000000" stroke-width="5" stroke-miterlimit="10" x1="187.162" y1="116.892" x2="174.186" y2="141.216"/>
<line stroke="#000000" stroke-width="5" stroke-miterlimit="10" x1="180.674" y1="109.038" x2="157.156" y2="132.432"/>
<line stroke="#000000" stroke-width="5" stroke-miterlimit="10" x1="159.121" y1="36.486" x2="297.297" y2="60.811"/>
<line stroke="#000000" stroke-width="5" stroke-miterlimit="10" x1="297.297" y1="60.811" x2="297.297" y2="10.811"/>
<line stroke="#000000" stroke-width="5" stroke-miterlimit="10" x1="159.121" y1="36.486" x2="180.674" y2="-5.406"/>
<line stroke="#000000" stroke-width="5" stroke-miterlimit="10" x1="180.674" y1="40.281" x2="180.674" y2="71.622"/>
<line stroke="#000000" stroke-width="5" stroke-miterlimit="10" x1="180.674" y1="71.622" x2="159.121" y2="79.729"/>
<line fill="#FFFFFF" stroke="#FFFFFF" stroke-width="5" stroke-miterlimit="10" x1="159.121" y1="79.729" x2="174.324" y2="101.351"/>
<line fill="#FFFFFF" stroke="#FFFFFF" stroke-width="5" stroke-miterlimit="10" x1="214.865" y1="38.027" x2="233.153" y2="42.693"/>
<line fill="#FFFFFF" stroke="#FFFFFF" stroke-width="5" stroke-miterlimit="10" x1="211.153" y1="40.281" x2="228.209" y2="42.693"/>
<line fill="#FFFFFF" stroke="#FFFFFF" stroke-width="5" stroke-miterlimit="10" x1="211.153" y1="33.027" x2="228.209" y2="35.811"/>
<line fill="#FFFFFF" stroke="#FFFFFF" stroke-width="5" stroke-miterlimit="10" x1="214.865" y1="29.027" x2="228.209" y2="35.811"/>
<line fill="#FFFFFF" stroke="#FFFFFF" stroke-width="5" stroke-miterlimit="10" x1="284.82" y1="52.693" x2="271.153" y2="48.649"/>
<line fill="#FFFFFF" stroke="#FFFFFF" stroke-width="5" stroke-miterlimit="10" x1="280.82" y1="48.649" x2="275.486" y2="31.081"/>
<line fill="#FFFFFF" stroke="#FFFFFF" stroke-width="5" stroke-miterlimit="10" x1="282.433" y1="38.027" x2="277.027" y2="29.027"/>
<line fill="#FFFFFF" stroke="#FFFFFF" stroke-width="5" stroke-miterlimit="10" x1="278.153" y1="45.722" x2="269.486" y2="41.487"/>
<line fill="#FFFFFF" stroke="#FFFFFF" stroke-width="5" stroke-miterlimit="10" x1="282.433" y1="48.649" x2="273.82" y2="43.604"/>
<line fill="#FFFFFF" stroke="#FFFFFF" stroke-width="5" stroke-miterlimit="10" x1="278.153" y1="43.604" x2="271.153" y2="38.027"/>
<line stroke="#000000" stroke-width="5" stroke-miterlimit="10" x1="284.82" y1="54.36" x2="269.486" y2="50.671"/>
<line stroke="#000000" stroke-width="5" stroke-miterlimit="10" x1="297.297" y1="10.811" x2="297.297" y2="-5.406"/>
<line stroke="#000000" stroke-width="5" stroke-miterlimit="10" x1="159.121" y1="79.729" x2="174.324" y2="101.351"/>
<line stroke="#000000" stroke-width="5" stroke-miterlimit="10" x1="387.486" y1="274.027" x2="423.486" y2="297.027"/>
<line stroke="#000000" stroke-width="5" stroke-miterlimit="10" x1="387.486" y1="274.027" x2="450" y2="238.027"/>
<line stroke="#000000" stroke-width="5" stroke-miterlimit="10" x1="444.486" y1="192.149" x2="559.486" y2="214.189"/>
<line stroke="#000000" stroke-width="5" stroke-miterlimit="10" x1="450" y1="238.027" x2="467.388" y2="196.538"/>
<line stroke="#000000" stroke-width="5" stroke-miterlimit="10" x1="527.757" y1="208.108" x2="559.486" y2="336.027"/>
<line stroke="#000000" stroke-width="5" stroke-miterlimit="10" x1="492.486" y1="203.169" x2="467.388" y2="249.027"/>
<line stroke="#000000" stroke-width="5" stroke-miterlimit="10" x1="467.388" y1="249.027" x2="428.486" y2="267.027"/>
<line stroke="#000000" stroke-width="5" stroke-miterlimit="10" x1="428.486" y1="267.027" x2="435.486" y2="285.527"/>
<line stroke="#000000" stroke-width="5" stroke-miterlimit="10" x1="423.486" y1="297.027" x2="435.486" y2="285.527"/>
<line stroke="#000000" stroke-width="5" stroke-miterlimit="10" x1="405.486" y1="285.527" x2="429.486" y2="276.277"/>
<line stroke="#000000" stroke-width="5" stroke-miterlimit="10" x1="559.486" y1="214.189" x2="568.486" y2="336.027"/>
<line stroke="#000000" stroke-width="5" stroke-miterlimit="10" x1="568.486" y1="336.027" x2="600" y2="347.513"/>
<line stroke="#000000" stroke-width="5" stroke-miterlimit="10" x1="559.486" y1="336.027" x2="554.486" y2="360.811"/>
<line stroke="#000000" stroke-width="5" stroke-miterlimit="10" x1="554.486" y1="360.811" x2="605.486" y2="366.027"/>
<line stroke="#000000" stroke-width="5" stroke-miterlimit="10" x1="605.486" y1="366.027" x2="600" y2="347.513"/>
<line stroke="#000000" stroke-width="5" stroke-miterlimit="10" x1="579.986" y1="340.218" x2="579.986" y2="360.811"/>
<line stroke="#000000" stroke-width="5" stroke-miterlimit="10" x1="444.486" y1="192.149" x2="527.757" y2="90.541"/>
<line stroke="#000000" stroke-width="5" stroke-miterlimit="10" x1="556.986" y1="101.351" x2="568.486" y2="164.027"/>
<line stroke="#000000" stroke-width="5" stroke-miterlimit="10" x1="568.486" y1="164.027" x2="590.486" y2="196.538"/>
<line stroke="#000000" stroke-width="5" stroke-miterlimit="10" x1="579.486" y1="101.351" x2="579.486" y2="164.027"/>
<line stroke="#000000" stroke-width="5" stroke-miterlimit="10" x1="579.486" y1="164.027" x2="595.486" y2="200.247"/>
<line stroke="#000000" stroke-width="5" stroke-miterlimit="10" x1="590.486" y1="196.538" x2="584.243" y2="226.098"/>
<line stroke="#000000" stroke-width="5" stroke-miterlimit="10" x1="584.243" y1="226.098" x2="615.486" y2="211.318"/>
<line stroke="#000000" stroke-width="5" stroke-miterlimit="10" x1="615.486" y1="211.318" x2="595.486" y2="200.247"/>
<line stroke="#000000" stroke-width="5" stroke-miterlimit="10" x1="527.757" y1="90.541" x2="559.486" y2="75.675"/>
<line stroke="#000000" stroke-width="5" stroke-miterlimit="10" x1="559.486" y1="214.189" x2="573.625" y2="171.622"/>
<line stroke="#000000" stroke-width="5" stroke-miterlimit="10" x1="579.986" y1="157.027" x2="587.486" y2="90.541"/>
<line stroke="#000000" stroke-width="5" stroke-miterlimit="10" x1="587.486" y1="90.541" x2="559.486" y2="75.675"/>
<line stroke="#000000" stroke-width="5" stroke-miterlimit="10" x1="579.986" y1="86.559" x2="587.486" y2="66.027"/>
<line stroke="#000000" stroke-width="5" stroke-miterlimit="10" x1="568.486" y1="76.292" x2="573.625" y2="60.811"/>
<line stroke="#000000" stroke-width="5" stroke-miterlimit="10" x1="556.986" y1="101.351" x2="579.486" y2="101.351"/>
<line stroke="#000000" stroke-width="5" stroke-miterlimit="10" x1="521.389" y1="98.311" x2="435.486" y2="101.351"/>
<line stroke="#000000" stroke-width="5" stroke-miterlimit="10" x1="501.986" y1="116.892" x2="435.486" y2="112.838"/>
<line stroke="#000000" stroke-width="5" stroke-miterlimit="10" x1="435.486" y1="112.838" x2="418.743" y2="129.054"/>
<line stroke="#000000" stroke-width="5" stroke-miterlimit="10" x1="418.743" y1="129.054" x2="417.486" y2="86.559"/>
<line stroke="#000000" stroke-width="5" stroke-miterlimit="10" x1="417.486" y1="86.559" x2="435.486" y2="101.351"/>
<rect x="684.486" y="91.027" fill="none" width="236" height="139"/>
<text transform="matrix(1 0 0 1 684.4863 116.5864)"><tspan x="0" y="0" font-family="'MyriadPro-Bold'" font-size="36">Anyi na a bia</tspan><tspan x="0" y="86.4" font-family="'MyriadPro-Bold'" font-size="36">We are </tspan></text>
<line stroke="#000000" stroke-width="5" stroke-miterlimit="10" x1="559.486" y1="55.951" x2="590.486" y2="71.622"/>
<line stroke="#000000" stroke-width="5" stroke-miterlimit="10" x1="590.486" y1="71.622" x2="595.486" y2="71.622"/>
<line stroke="#000000" stroke-width="5" stroke-miterlimit="10" x1="595.486" y1="71.622" x2="620.486" y2="29.027"/>
<line stroke="#000000" stroke-width="5" stroke-miterlimit="10" x1="620.486" y1="29.027" x2="620.486" y2="2.703"/>
<line stroke="#000000" stroke-width="5" stroke-miterlimit="10" x1="600" y1="2.703" x2="620.486" y2="10.811"/>
<line stroke="#000000" stroke-width="5" stroke-miterlimit="10" x1="600" y1="2.703" x2="568.486" y2="15.865"/>
<line stroke="#000000" stroke-width="5" stroke-miterlimit="10" x1="568.486" y1="15.865" x2="556.986" y2="63.787"/>
<line stroke="#000000" stroke-width="5" stroke-miterlimit="10" x1="556.986" y1="63.787" x2="527.757" y2="90.541"/>
<line stroke="#000000" stroke-width="5" stroke-miterlimit="10" x1="527.757" y1="90.541" x2="486.122" y2="79.729"/>
<line stroke="#000000" stroke-width="3" stroke-miterlimit="10" x1="486.122" y1="79.729" x2="535.486" y2="2.703"/>
<line stroke="#000000" stroke-width="3" stroke-miterlimit="10" x1="605.486" y1="25.36" x2="610.243" y2="22.026"/>
<line stroke="#000000" stroke-width="3" stroke-miterlimit="10" x1="610.243" y1="22.026" x2="615.486" y2="25.36"/>
<line stroke="#000000" stroke-width="3" stroke-miterlimit="10" x1="599.865" y1="23.693" x2="587.365" y2="15.865"/>
<line stroke="#000000" stroke-width="3" stroke-miterlimit="10" x1="587.365" y1="15.865" x2="579.486" y2="22.026"/>
<line stroke="#000000" stroke-width="3" stroke-miterlimit="10" x1="587.486" y1="45.722" x2="593.615" y2="54.36"/>
<line stroke="#000000" stroke-width="3" stroke-miterlimit="10" x1="593.615" y1="54.36" x2="600" y2="48.649"/>
<line stroke="#000000" stroke-width="3" stroke-miterlimit="10" x1="600" y1="48.649" x2="587.486" y2="45.722"/>
</svg>
