<svg id="Layer_1" data-name="Layer 1" xmlns="http://www.w3.org/2000/svg" viewBox="0 0 245 206"><defs><style>.cls-1{fill:#73165d;stroke:#000;stroke-width:7px;}.cls-1,.cls-3{stroke-miterlimit:10;}.cls-2{fill:#fff;}.cls-3{fill:#f7931e;stroke:#f7931e;}</style></defs><title>unu fulu oloma anya</title><rect class="cls-1" x="2.87" y="0.9" width="245" height="206"/><path d="M46,44.21q-.08.43-.33,1.66T45.3,47.6L45,49.12q-.2,1.05-.25,1.7t-.12,1.52a12,12,0,0,0,0,1.68q.06.8.18,1.58a11,11,0,0,0,.76,2.75,6.19,6.19,0,0,0,1.38,2.13,8.06,8.06,0,0,0,4.86,2.09,7,7,0,0,0,5-1.11,8.86,8.86,0,0,0,2.36-3A17.82,17.82,0,0,0,60.74,54a17.33,17.33,0,0,0,.37-4.66,10.61,10.61,0,0,0-.84-3.8.9.9,0,0,1-.06-.76,1,1,0,0,1,.51-.58,1,1,0,0,1,.78,0,.88.88,0,0,1,.57.53,11.46,11.46,0,0,1,1.07,4.56,18.53,18.53,0,0,1-.45,5.19,18.61,18.61,0,0,1-1.75,5,10.26,10.26,0,0,1-3,3.59,9.15,9.15,0,0,1-6.4,1.48,10,10,0,0,1-6-2.61,8,8,0,0,1-1.79-2.73,14.94,14.94,0,0,1-1-3.31,17,17,0,0,1-.17-2.2q0-1.15,0-1.93t.25-2.16q.21-1.38.33-1.85l.39-2.07q.35-1.64.43-1.87a1,1,0,0,1,.43-.66A.93.93,0,0,1,45.2,43a1,1,0,0,1,.64.45A.84.84,0,0,1,46,44.21Z"/><path d="M67.73,43.82l2-.08.12,2.53a11.37,11.37,0,0,1,5.69-3.9,14.3,14.3,0,0,1,3.24-.55,6.67,6.67,0,0,1,3.16.64,6.55,6.55,0,0,1,2.61,2.2,13.05,13.05,0,0,1,1.74,3.22,17,17,0,0,1,.88,3.22,20.72,20.72,0,0,1,.21,3.39,32.68,32.68,0,0,1-.17,3.28l-.39,3.31q-.23,2-.31,3.16a1,1,0,0,1-.35.7,1,1,0,0,1-.74.23,1,1,0,0,1-.7-.35.94.94,0,0,1-.23-.74q.12-1.44.35-3.35l.31-3.28q.16-1.25.2-3a18.18,18.18,0,0,0-.16-3,13.51,13.51,0,0,0-.76-2.79,12.72,12.72,0,0,0-1.5-2.81A4.59,4.59,0,0,0,80,44a7,7,0,0,0-3.84.31,10,10,0,0,0-3.59,2,6.77,6.77,0,0,0-2.07,3,1,1,0,0,1-.47.55l.78,14.59-2,.08Z"/><path d="M94.32,44.21q-.08.43-.33,1.66t-.33,1.74l-.31,1.52q-.19,1.05-.25,1.7T93,52.34A12,12,0,0,0,93,54q.06.8.18,1.58a11,11,0,0,0,.76,2.75,6.21,6.21,0,0,0,1.38,2.13,8.06,8.06,0,0,0,4.86,2.09,7,7,0,0,0,5-1.11,8.85,8.85,0,0,0,2.36-3A17.82,17.82,0,0,0,109.1,54a17.33,17.33,0,0,0,.37-4.66,10.63,10.63,0,0,0-.84-3.8.91.91,0,0,1-.06-.76,1,1,0,0,1,.51-.58,1,1,0,0,1,.78,0,.88.88,0,0,1,.57.53,11.45,11.45,0,0,1,1.07,4.56,18.49,18.49,0,0,1-.45,5.19,18.61,18.61,0,0,1-1.75,5,10.26,10.26,0,0,1-3,3.59,9.15,9.15,0,0,1-6.4,1.48,10,10,0,0,1-6-2.61,8.06,8.06,0,0,1-1.79-2.73,14.94,14.94,0,0,1-1-3.31,16.86,16.86,0,0,1-.18-2.2q0-1.15,0-1.93t.25-2.16q.21-1.38.33-1.85l.39-2.07q.35-1.64.43-1.87a1,1,0,0,1,.43-.66.93.93,0,0,1,.76-.14,1,1,0,0,1,.64.45A.84.84,0,0,1,94.32,44.21Z"/><path class="cls-2" d="M141.43,41a4.88,4.88,0,0,0-3-2.26,6.2,6.2,0,0,0-4,.16,4.77,4.77,0,0,0-2.77,2.54,15.11,15.11,0,0,0-.86,7.06q.08,1.48.39,4,.23,2.18.31,3h.39l5.07-.12a1,1,0,1,1,0,2l-5,.12h-.31q0,.9,0,2.65,0,2.5.08,3.74a1,1,0,0,1-.23.74,1,1,0,0,1-.7.35,1,1,0,0,1-.74-.23,1,1,0,0,1-.35-.7q-.08-1.33-.08-3.94V57.58q-1.6,0-2.85-.08a1.06,1.06,0,0,1-.68-.35.89.89,0,0,1-.25-.72,1.07,1.07,0,0,1,.35-.7.92.92,0,0,1,.74-.25q1.17.08,2.54.08l-.31-2.77q-.31-2.77-.39-4.13a17.74,17.74,0,0,1,1-8,6.66,6.66,0,0,1,2.73-3,7.94,7.94,0,0,1,3.82-1.13,8.48,8.48,0,0,1,3.9.84,6.61,6.61,0,0,1,3,2.69,1,1,0,0,1,.08.76,1,1,0,0,1-.47.62.91.91,0,0,1-.76.1A1.12,1.12,0,0,1,141.43,41Z"/><path class="cls-2" d="M150.29,44.21q-.08.43-.33,1.66t-.33,1.74l-.31,1.52q-.2,1.05-.25,1.7t-.12,1.52a12,12,0,0,0,0,1.68q.06.8.18,1.58a10.92,10.92,0,0,0,.76,2.75,6.2,6.2,0,0,0,1.38,2.13,8.06,8.06,0,0,0,4.86,2.09,7,7,0,0,0,5-1.11,8.84,8.84,0,0,0,2.36-3A17.82,17.82,0,0,0,165.07,54a17.37,17.37,0,0,0,.37-4.66,10.61,10.61,0,0,0-.84-3.8.91.91,0,0,1-.06-.76,1,1,0,0,1,.51-.58,1,1,0,0,1,.78,0,.88.88,0,0,1,.57.53,11.46,11.46,0,0,1,1.07,4.56,18.49,18.49,0,0,1-.45,5.19,18.61,18.61,0,0,1-1.75,5,10.26,10.26,0,0,1-3,3.59,9.15,9.15,0,0,1-6.4,1.48,10,10,0,0,1-6-2.61,8,8,0,0,1-1.79-2.73,14.89,14.89,0,0,1-1-3.31,17,17,0,0,1-.18-2.2q0-1.15,0-1.93t.25-2.16q.21-1.38.33-1.85l.39-2.07q.35-1.64.43-1.87a1,1,0,0,1,.43-.66.93.93,0,0,1,.76-.14,1,1,0,0,1,.64.45A.84.84,0,0,1,150.29,44.21Z"/><path class="cls-2" d="M172.91,36.05h2l.51,28.43h-2Z"/><path class="cls-2" d="M182.35,44.21q-.08.43-.33,1.66t-.33,1.74l-.31,1.52q-.2,1.05-.25,1.7T181,52.34A12,12,0,0,0,181,54q.06.8.18,1.58a10.92,10.92,0,0,0,.76,2.75,6.2,6.2,0,0,0,1.38,2.13,8.06,8.06,0,0,0,4.86,2.09,7,7,0,0,0,5-1.11,8.84,8.84,0,0,0,2.36-3A17.82,17.82,0,0,0,197.13,54a17.37,17.37,0,0,0,.37-4.66,10.61,10.61,0,0,0-.84-3.8.91.91,0,0,1-.06-.76,1,1,0,0,1,.51-.58,1,1,0,0,1,.78,0,.88.88,0,0,1,.57.53,11.46,11.46,0,0,1,1.07,4.56,18.49,18.49,0,0,1-.45,5.19,18.61,18.61,0,0,1-1.75,5,10.26,10.26,0,0,1-3,3.59,9.15,9.15,0,0,1-6.4,1.48,10,10,0,0,1-6-2.61,8,8,0,0,1-1.79-2.73,14.89,14.89,0,0,1-1-3.31,17,17,0,0,1-.18-2.2q0-1.15,0-1.93t.25-2.16q.21-1.38.33-1.85l.39-2.07q.35-1.64.43-1.87a1,1,0,0,1,.43-.66.93.93,0,0,1,.76-.14,1,1,0,0,1,.64.45A.84.84,0,0,1,182.35,44.21Z"/><path class="cls-3" d="M81.32,91.47a.87.87,0,0,1,.31.16,7.79,7.79,0,0,1,1.17,1.29A11.6,11.6,0,0,1,83.52,94q.21.39.68,1.4a13.26,13.26,0,0,1,1.13,4.87,12.6,12.6,0,0,1-.74,5,10.06,10.06,0,0,1-2.89,4.17,8.82,8.82,0,0,1-4.8,2,21.88,21.88,0,0,1-4.17-.12A11.49,11.49,0,0,1,65.29,108a10.71,10.71,0,0,1-3.16-7.6,13.09,13.09,0,0,1,.9-4.88,11.55,11.55,0,0,1,2.38-3.8,11.17,11.17,0,0,1,3.45-2.44,11,11,0,0,1,4.08-1,11.29,11.29,0,0,1,4.31.68A11.89,11.89,0,0,1,81.32,91.47Zm-.55,2.3a11.16,11.16,0,0,0-3.43-2.55,9.12,9.12,0,0,0-3.69-.92A8.88,8.88,0,0,0,70.1,91,9,9,0,0,0,65,96.15a11.1,11.1,0,0,0-.8,4.25,8.73,8.73,0,0,0,2.61,6.2A9.47,9.47,0,0,0,73,109.3a17.32,17.32,0,0,0,3.71.12,7,7,0,0,0,3.74-1.56,7.72,7.72,0,0,0,2.26-3.31,11.07,11.07,0,0,0,.62-4.17,10.21,10.21,0,0,0-1-4.09A15.35,15.35,0,0,0,81.12,94,1,1,0,0,1,80.77,93.77Z"/><path class="cls-3" d="M90.79,82.85h2l.51,28.43h-2Z"/><path class="cls-3" d="M116.61,91.47a.87.87,0,0,1,.31.16,7.79,7.79,0,0,1,1.17,1.29,11.6,11.6,0,0,1,.72,1.09q.21.39.68,1.4a13.26,13.26,0,0,1,1.13,4.87,12.6,12.6,0,0,1-.74,5,10.06,10.06,0,0,1-2.89,4.17,8.82,8.82,0,0,1-4.8,2,21.88,21.88,0,0,1-4.17-.12,11.49,11.49,0,0,1-7.45-3.31,10.71,10.71,0,0,1-3.16-7.6,13.09,13.09,0,0,1,.9-4.88,11.55,11.55,0,0,1,2.38-3.8,11.17,11.17,0,0,1,3.45-2.44,11,11,0,0,1,4.08-1,11.29,11.29,0,0,1,4.31.68A11.89,11.89,0,0,1,116.61,91.47Zm-.55,2.3a11.16,11.16,0,0,0-3.43-2.55,9.12,9.12,0,0,0-3.69-.92,8.88,8.88,0,0,0-3.55.66,9,9,0,0,0-5.15,5.19,11.1,11.1,0,0,0-.8,4.25,8.73,8.73,0,0,0,2.61,6.2,9.47,9.47,0,0,0,6.2,2.69,17.32,17.32,0,0,0,3.71.12,7,7,0,0,0,3.74-1.56,7.72,7.72,0,0,0,2.26-3.31,11.07,11.07,0,0,0,.62-4.17,10.21,10.21,0,0,0-1-4.09A15.35,15.35,0,0,0,116.42,94,1,1,0,0,1,116.07,93.77Z"/><path class="cls-3" d="M125.7,91.4l2-.08.12,1.91a9.53,9.53,0,0,1,1.87-2,9,9,0,0,1,4.15-1.95,7.58,7.58,0,0,1,4.48.51,6.35,6.35,0,0,1,3.26,3.2,6.69,6.69,0,0,1,5.85-2.81,7.54,7.54,0,0,1,3.65,1.13A9.15,9.15,0,0,1,154,94.28q1.37,2.07,1.6,8,0,1.37,0,2.91t0,3.14q0,1.6,0,2.07a1,1,0,1,1-2,0q0-.51,0-2.07t0-3.06q0-1.5,0-2.87-.23-5.38-1.29-7a7.24,7.24,0,0,0-2.26-2.26,5.38,5.38,0,0,0-2.69-.86,4.92,4.92,0,0,0-4.72,2.85,1.08,1.08,0,0,1-.27.31,22.51,22.51,0,0,1,.16,6.86q0,.35-.51,4.06-.31,2.38-.35,3.82a.89.89,0,0,1-.31.7,1.09,1.09,0,0,1-.74.27.89.89,0,0,1-.7-.31,1.09,1.09,0,0,1-.27-.74,35.72,35.72,0,0,1,.39-4l.51-4a17.88,17.88,0,0,0-.51-7.45,4.66,4.66,0,0,0-2.14-2.73,5.2,5.2,0,0,0-3.43-.62A7.35,7.35,0,0,0,131,92.84a8.27,8.27,0,0,0-1.48,1.56q-.58.82-1.48,2.34l.82,14.78-2,.08L126,97.09a1,1,0,0,1,0-.82Z"/><path class="cls-3" d="M178.31,107.15a10.69,10.69,0,0,1-3.67,2.87,15.48,15.48,0,0,1-4.8,1.5,14.29,14.29,0,0,1-3.94,0,8.19,8.19,0,0,1-3.51-1.4,6,6,0,0,1-2.3-3,3.22,3.22,0,0,1-.25-1q-.06-.59-.06-.94c0-.23,0-.57,0-1s0-.67,0-.72V103q0-1.6.1-2.5a12.59,12.59,0,0,1,.43-2.3,9.23,9.23,0,0,1,1.07-2.53,13,13,0,0,1,3.71-3.8,14.06,14.06,0,0,1,5-2.2,9.31,9.31,0,0,1,8.27,1.72,1,1,0,0,1,.86-.16,1.25,1.25,0,0,1,.7.51c.05.1.1.22.16.35s.1.4.16.66.09.9.12,1.6,0,1.37,0,2.3a17.6,17.6,0,0,1,0,5q0,1.48,0,2,0,4.6.16,6.67a1,1,0,0,1-.23.74,1,1,0,0,1-.7.35,1,1,0,0,1-.74-.23,1,1,0,0,1-.35-.7Q178.35,108.95,178.31,107.15Zm0-10.33q-.19-1.33-.31-2.46l-.08-.47a6.42,6.42,0,0,0-3.32-2.16,8.68,8.68,0,0,0-4.13-.06,12.19,12.19,0,0,0-4.21,1.87,11,11,0,0,0-3.16,3.24,7.21,7.21,0,0,0-.88,2.15,11.13,11.13,0,0,0-.33,2q0,.78-.08,2.53,0,.31,0,.88t0,.82a6,6,0,0,0,0,.62,3.68,3.68,0,0,0,.12.64,4.51,4.51,0,0,0,2.77,2.67,9.58,9.58,0,0,0,4.84.41,12.49,12.49,0,0,0,4.91-1.7,6.92,6.92,0,0,0,3-3.1,13.79,13.79,0,0,0,.9-3.24q0-2.93,0-4.56Z"/><path class="cls-2" d="M93.56,154a10.69,10.69,0,0,1-3.67,2.87,15.49,15.49,0,0,1-4.8,1.5,14.3,14.3,0,0,1-3.94,0,8.18,8.18,0,0,1-3.51-1.4,6,6,0,0,1-2.3-3,3.19,3.19,0,0,1-.25-1c0-.39-.06-.7-.06-.94s0-.57,0-1,0-.67,0-.72v-.43q0-1.6.1-2.5a12.65,12.65,0,0,1,.43-2.3,9.24,9.24,0,0,1,1.07-2.54,13,13,0,0,1,3.71-3.8,14.05,14.05,0,0,1,5-2.2,9.31,9.31,0,0,1,8.27,1.72,1,1,0,0,1,.86-.16,1.24,1.24,0,0,1,.7.51c.05.1.1.22.16.35s.1.4.16.66.09.9.12,1.6,0,1.37,0,2.3a17.6,17.6,0,0,1,0,5q0,1.48,0,2,0,4.6.16,6.67a1,1,0,0,1-.23.74,1,1,0,0,1-.7.35,1,1,0,0,1-.74-.23,1,1,0,0,1-.35-.7Q93.6,155.75,93.56,154Zm0-10.33q-.2-1.33-.31-2.46l-.08-.47a6.43,6.43,0,0,0-3.32-2.16,8.67,8.67,0,0,0-4.13-.06,12.18,12.18,0,0,0-4.21,1.87,11,11,0,0,0-3.16,3.24,7.22,7.22,0,0,0-.88,2.15,11.19,11.19,0,0,0-.33,2q0,.78-.08,2.53c0,.21,0,.5,0,.88s0,.65,0,.82a6,6,0,0,0,0,.62,3.68,3.68,0,0,0,.12.64A4.51,4.51,0,0,0,80,155.88a9.57,9.57,0,0,0,4.84.41,12.48,12.48,0,0,0,4.91-1.7,6.91,6.91,0,0,0,3-3.1,13.78,13.78,0,0,0,.9-3.24q0-2.93,0-4.56Z"/><path class="cls-2" d="M100.39,137.42l2-.08.12,2.53a11.37,11.37,0,0,1,5.69-3.9,14.24,14.24,0,0,1,3.24-.55,6.66,6.66,0,0,1,3.16.64,6.55,6.55,0,0,1,2.61,2.2,13,13,0,0,1,1.74,3.22,17,17,0,0,1,.88,3.22,20.73,20.73,0,0,1,.21,3.39,32.68,32.68,0,0,1-.17,3.28l-.39,3.31q-.23,2-.31,3.16a1,1,0,0,1-.35.7,1,1,0,0,1-.74.23,1,1,0,0,1-.7-.35,1,1,0,0,1-.23-.74q.12-1.44.35-3.35l.31-3.28q.16-1.25.2-3a18.17,18.17,0,0,0-.16-3,13.51,13.51,0,0,0-.76-2.79,12.74,12.74,0,0,0-1.5-2.81,4.6,4.6,0,0,0-2.91-1.87,7,7,0,0,0-3.84.31,10.05,10.05,0,0,0-3.59,2,6.77,6.77,0,0,0-2.07,3,1,1,0,0,1-.47.55l.78,14.59-2,.08Z"/><path class="cls-2" d="M128.35,138.51q-.19.78-.35,1.68a14.51,14.51,0,0,0-.2,1.5q0,.61-.14,1.74t-.14,1.72a20.81,20.81,0,0,0,.23,6.4,8.37,8.37,0,0,0,2.85,4.56,4,4,0,0,0,3.55,1q3.51-.66,5-5a35.38,35.38,0,0,0,1.29-8.19q.19-3,.23-4.45v-.08a1.38,1.38,0,0,1-.08-.35,1.33,1.33,0,0,1,.66-1.52,1,1,0,0,1,.94,0,1.25,1.25,0,0,1,.43.39,1.56,1.56,0,0,1,.12.31.73.73,0,0,0,0,.23v2.22q0,4.06-.12,6.43-.27,5.54-.12,10.65c0,.08,0,.51.1,1.31a16.66,16.66,0,0,1,.06,2,6.28,6.28,0,0,1-.27,1.6,5.75,5.75,0,0,1-1.74,2.54,7.21,7.21,0,0,1-2.71,1.48,5.44,5.44,0,0,1-3,.16,4.91,4.91,0,0,1-2.73-1.6,1,1,0,0,1-.23-.74,1,1,0,0,1,.35-.7,1,1,0,0,1,.74-.23,1,1,0,0,1,.7.35,3.17,3.17,0,0,0,3.63.82,5,5,0,0,0,1.93-1,3.8,3.8,0,0,0,1.36-2.81,12.86,12.86,0,0,0-.08-1.6q-.1-1-.1-1.5l-.08-3.51a8,8,0,0,1-5.85,4.76,6.43,6.43,0,0,1-2.81-.16,6.36,6.36,0,0,1-2.46-1.29,11.84,11.84,0,0,1-2.36-2.85,9.66,9.66,0,0,1-1.21-3.12,21.92,21.92,0,0,1-.35-3.32,22.37,22.37,0,0,1,.14-3.39q0-.51.12-1.64l.16-1.87q.08-.66.23-1.66a17,17,0,0,1,.39-1.85,1,1,0,0,1,.47-.6.92.92,0,0,1,.76-.1,1,1,0,0,1,.62.47A1,1,0,0,1,128.35,138.51Z"/><path class="cls-2" d="M165.36,154a10.69,10.69,0,0,1-3.67,2.87,15.48,15.48,0,0,1-4.8,1.5,14.29,14.29,0,0,1-3.94,0,8.19,8.19,0,0,1-3.51-1.4,6,6,0,0,1-2.3-3,3.22,3.22,0,0,1-.25-1c0-.39-.06-.7-.06-.94s0-.57,0-1,0-.67,0-.72v-.43q0-1.6.1-2.5a12.58,12.58,0,0,1,.43-2.3,9.23,9.23,0,0,1,1.07-2.54,13,13,0,0,1,3.71-3.8,14.06,14.06,0,0,1,5-2.2,9.31,9.31,0,0,1,8.27,1.72,1,1,0,0,1,.86-.16,1.25,1.25,0,0,1,.7.51c.05.1.1.22.16.35s.1.4.16.66.09.9.12,1.6,0,1.37,0,2.3a17.6,17.6,0,0,1,0,5q0,1.48,0,2,0,4.6.16,6.67a1,1,0,0,1-.23.74,1,1,0,0,1-.7.35,1,1,0,0,1-.74-.23,1,1,0,0,1-.35-.7Q165.4,155.75,165.36,154Zm0-10.33q-.19-1.33-.31-2.46l-.08-.47a6.42,6.42,0,0,0-3.32-2.16,8.67,8.67,0,0,0-4.13-.06,12.18,12.18,0,0,0-4.21,1.87,11,11,0,0,0-3.16,3.24,7.22,7.22,0,0,0-.88,2.15,11.11,11.11,0,0,0-.33,2q0,.78-.08,2.53c0,.21,0,.5,0,.88s0,.65,0,.82a6,6,0,0,0,0,.62,3.68,3.68,0,0,0,.12.64,4.51,4.51,0,0,0,2.77,2.67,9.58,9.58,0,0,0,4.84.41,12.48,12.48,0,0,0,4.91-1.7,6.91,6.91,0,0,0,3-3.1,13.78,13.78,0,0,0,.9-3.24q0-2.93,0-4.56Z"/></svg>