<svg id="Layer_1" data-name="Layer 1" xmlns="http://www.w3.org/2000/svg" viewBox="0 0 245 206"><defs><style>.cls-1{fill:#f472bb;stroke:#000;stroke-miterlimit:10;stroke-width:7px;}.cls-2{fill:#fff;}</style></defs><title>unu bu</title><rect class="cls-1" x="2.87" y="0.9" width="245" height="206"/><path d="M58.62,90.21q-.08.43-.33,1.66T58,93.6l-.31,1.52q-.2,1.05-.25,1.7t-.12,1.52a12,12,0,0,0,0,1.68q.06.8.18,1.58a11,11,0,0,0,.76,2.75,6.19,6.19,0,0,0,1.38,2.13,8.06,8.06,0,0,0,4.86,2.09,7,7,0,0,0,5-1.11,8.86,8.86,0,0,0,2.36-3A17.82,17.82,0,0,0,73.4,100a17.33,17.33,0,0,0,.37-4.66,10.61,10.61,0,0,0-.84-3.8.9.9,0,0,1-.06-.76,1,1,0,0,1,.51-.58,1,1,0,0,1,.78,0,.88.88,0,0,1,.57.53,11.46,11.46,0,0,1,1.07,4.56,21.18,21.18,0,0,1-2.2,10.22,10.26,10.26,0,0,1-3,3.59,9.15,9.15,0,0,1-6.4,1.48,10,10,0,0,1-6-2.61,8,8,0,0,1-1.79-2.73,14.94,14.94,0,0,1-1-3.31,17,17,0,0,1-.17-2.2q0-1.15,0-1.93t.25-2.16q.21-1.38.33-1.85l.39-2.07q.35-1.64.43-1.87a1,1,0,0,1,.43-.66.93.93,0,0,1,.76-.14,1,1,0,0,1,.64.45A.84.84,0,0,1,58.62,90.21Z"/><path d="M80.38,89.82l2-.08.12,2.53a11.37,11.37,0,0,1,5.69-3.9,14.3,14.3,0,0,1,3.24-.55,6.67,6.67,0,0,1,3.16.64,6.55,6.55,0,0,1,2.61,2.2A13.05,13.05,0,0,1,99,93.89a17,17,0,0,1,.88,3.22,20.72,20.72,0,0,1,.21,3.39,32.68,32.68,0,0,1-.17,3.28l-.39,3.31q-.23,2-.31,3.16a1,1,0,0,1-.35.7,1,1,0,0,1-.74.23,1,1,0,0,1-.7-.35.94.94,0,0,1-.23-.74q.12-1.44.35-3.35l.31-3.28q.16-1.25.2-3a18.18,18.18,0,0,0-.16-3,13.51,13.51,0,0,0-.76-2.79,12.72,12.72,0,0,0-1.5-2.81A4.59,4.59,0,0,0,92.69,90a7,7,0,0,0-3.84.31,10,10,0,0,0-3.59,2,6.77,6.77,0,0,0-2.07,3,1,1,0,0,1-.47.55l.78,14.59-2,.08Z"/><path d="M107,90.21q-.08.43-.33,1.66t-.33,1.74L106,95.12q-.19,1.05-.25,1.7t-.12,1.52a12,12,0,0,0,0,1.68q.06.8.18,1.58a11,11,0,0,0,.76,2.75,6.21,6.21,0,0,0,1.38,2.13,8.06,8.06,0,0,0,4.86,2.09,7,7,0,0,0,5-1.11,8.85,8.85,0,0,0,2.36-3,17.82,17.82,0,0,0,1.58-4.43,17.33,17.33,0,0,0,.37-4.66,10.63,10.63,0,0,0-.84-3.8.91.91,0,0,1-.06-.76,1,1,0,0,1,.51-.58,1,1,0,0,1,.78,0,.88.88,0,0,1,.57.53,11.45,11.45,0,0,1,1.07,4.56,21.18,21.18,0,0,1-2.2,10.22,10.26,10.26,0,0,1-3,3.59,9.15,9.15,0,0,1-6.4,1.48,10,10,0,0,1-6-2.61,8.06,8.06,0,0,1-1.79-2.73,14.94,14.94,0,0,1-1-3.31,16.86,16.86,0,0,1-.18-2.2q0-1.15,0-1.93t.25-2.16q.21-1.38.33-1.85l.39-2.07q.35-1.64.43-1.87a1,1,0,0,1,.43-.66.93.93,0,0,1,.76-.14,1,1,0,0,1,.64.45A.84.84,0,0,1,107,90.21Z"/><path class="cls-2" d="M141.88,83.19h2L143.83,92q.51-.47,1.07-.94t1.33-1q.76-.57,1-.76,4.13-3.16,9-.12l.58.39.62.39.62.39q.39.27.62.47l.55.47a6.93,6.93,0,0,1,.64.57,5.62,5.62,0,0,1,.53.6,10,10,0,0,1,2.13,4.37,11.44,11.44,0,0,1,.06,4.74,12.81,12.81,0,0,1-1.72,4.27,11.15,11.15,0,0,1-3.1,3.28,9.64,9.64,0,0,1-4.25,1.62,8.93,8.93,0,0,1-5-.84,21.16,21.16,0,0,1-4.8-2.89l0,3.59h-2ZM143.79,95l-.08,9.28a19.17,19.17,0,0,0,5.58,3.71,7.33,7.33,0,0,0,7.29-.59,9,9,0,0,0,2.54-2.69,10.44,10.44,0,0,0,1.42-3.59,9.88,9.88,0,0,0,0-3.9,8.05,8.05,0,0,0-1.7-3.55q-.2-.23-.41-.45a6.17,6.17,0,0,0-.51-.45l-.47-.39a6,6,0,0,0-.55-.41,5.76,5.76,0,0,0-.53-.33l-.62-.39q-.47-.31-.62-.39a6.57,6.57,0,0,0-3.39-1.19,5.35,5.35,0,0,0-3.24,1.23l-1.21.9q-.86.62-1.23.94t-.92.86a7.74,7.74,0,0,0-.9,1.05A1,1,0,0,1,143.79,95Z"/><path class="cls-2" d="M169.69,90.21q-.08.43-.33,1.66T169,93.6l-.31,1.52q-.2,1.05-.25,1.7t-.12,1.52a12,12,0,0,0,0,1.68q.06.8.18,1.58a10.92,10.92,0,0,0,.76,2.75,6.2,6.2,0,0,0,1.38,2.13,8.06,8.06,0,0,0,4.86,2.09,7,7,0,0,0,5-1.11,8.84,8.84,0,0,0,2.36-3,17.82,17.82,0,0,0,1.58-4.43,17.37,17.37,0,0,0,.37-4.66,10.61,10.61,0,0,0-.84-3.8.91.91,0,0,1-.06-.76,1,1,0,0,1,.51-.58,1,1,0,0,1,.78,0,.88.88,0,0,1,.57.53,11.46,11.46,0,0,1,1.07,4.56,21.19,21.19,0,0,1-2.2,10.22,10.26,10.26,0,0,1-3,3.59,9.15,9.15,0,0,1-6.4,1.48,10,10,0,0,1-6-2.61,8,8,0,0,1-1.79-2.73,14.89,14.89,0,0,1-1-3.31,17,17,0,0,1-.18-2.2q0-1.15,0-1.93t.25-2.16q.21-1.38.33-1.85l.39-2.07q.35-1.64.43-1.87a1,1,0,0,1,.43-.66.93.93,0,0,1,.76-.14,1,1,0,0,1,.64.45A.84.84,0,0,1,169.69,90.21Z"/></svg>