<svg id="Layer_1" data-name="Layer 1" xmlns="http://www.w3.org/2000/svg" viewBox="0 0 245 206"><defs><style>.cls-1{fill:#73165d;stroke:#000;stroke-width:7px;}.cls-1,.cls-3{stroke-miterlimit:10;}.cls-2{fill:#fff;}.cls-3{fill:#f7931e;stroke:#f7931e;}</style></defs><title>we like oranges</title><rect class="cls-1" x="2.87" y="0.9" width="245" height="206"/><path d="M61.62,64q-.08.19-.53,1.6t-.64,2.11l-.55,2q-.35,1.29-.55,2.38a19.41,19.41,0,0,0-.27,2.11,9.61,9.61,0,0,0,.55,4.64,4.41,4.41,0,0,0,3.08,2.46,7.29,7.29,0,0,0,2.92.27q2.22-.39,3.74-4.52a29.14,29.14,0,0,0,1.44-6.24c0-.49,0-.84,0-1.05S70.92,69,71,68v-.43q0-1.83.08-2.57v-.12c0-.26-.05-.39-.08-.39a3.05,3.05,0,0,1,.08-.74,1.13,1.13,0,0,1,.51-.58,1.32,1.32,0,0,1,.78-.16,1.09,1.09,0,0,1,.86.74l.08.39v.7q0,.62-.12,1.83-.08.51-.16,1.44,0,1.25-.12,2.11c0,.23-.05.48-.08.74q-.16,2.69-.16,4.17a24.14,24.14,0,0,0,.19,2.77,2.94,2.94,0,0,0,.51,1.44,5.27,5.27,0,0,0,2.65,1.33q6.24,1.48,8.81-4.25a15.43,15.43,0,0,0,1.19-5.75,17.13,17.13,0,0,0-.76-5.87,1.06,1.06,0,0,1,.08-.8,1,1,0,0,1,.6-.49,1,1,0,0,1,.78.08,1,1,0,0,1,.49.58,19.19,19.19,0,0,1,.82,6.55,17.51,17.51,0,0,1-1.36,6.51,9.77,9.77,0,0,1-4.25,4.82,9.36,9.36,0,0,1-6.86.57,7.18,7.18,0,0,1-3.67-1.87,4.77,4.77,0,0,1-1-2.22q-1.87,4.49-5,5a9.33,9.33,0,0,1-3.71-.35,6.29,6.29,0,0,1-4.45-3.59A11.22,11.22,0,0,1,57.06,74q.12-1.13.31-2.3t.55-2.54l.62-2.07q.19-.74.64-2.15t.49-1.6a1,1,0,0,1,.49-.58,1,1,0,0,1,.78-.08,1,1,0,0,1,.6.49A1.06,1.06,0,0,1,61.62,64Z"/><path d="M91.65,76.51l-.08-2H92a6,6,0,0,1,0-1,14.92,14.92,0,0,1,2.42-8,8.32,8.32,0,0,1,7.6-3.78q6.36.12,8.89,3.82,2.18,3.24,1.56,9.56a1,1,0,0,1-.37.66,1,1,0,0,1-.76.23l-.12,0-16.93.43a6.89,6.89,0,0,0,2,3.55,5.58,5.58,0,0,0,2.38,1.36,17.89,17.89,0,0,0,3.35.47,10.27,10.27,0,0,0,3.63-.35,10.05,10.05,0,0,0,3.12-1.75.92.92,0,0,1,.72-.23,1,1,0,0,1,.92,1.11,1,1,0,0,1-.39.68,11.28,11.28,0,0,1-3.74,2.13,12.71,12.71,0,0,1-4.33.45,19.44,19.44,0,0,1-4-.58,7,7,0,0,1-3.08-1.79,9.24,9.24,0,0,1-2.61-5ZM94,74.41l16.5-.39q.35-4.87-1.29-7.29-1.91-2.85-7.21-2.92a6.38,6.38,0,0,0-5.89,2.85A12.83,12.83,0,0,0,94,73.59,4.25,4.25,0,0,0,94,74.41Z"/><path class="cls-2" d="M129.75,54.4h2l.51,28.43h-2Z"/><path class="cls-2" d="M136.93,58a1.71,1.71,0,0,1,.19-2,1.84,1.84,0,0,1,1.72-.86,2.58,2.58,0,0,1,.62-.08,2.45,2.45,0,0,1,1.87,3.59,1.47,1.47,0,0,1-.35.43,2,2,0,0,1-2,.9,1.92,1.92,0,0,1-1.37-.62,2.47,2.47,0,0,1-.66-1.33A0,0,0,0,1,136.93,58Zm3,4.84a16.35,16.35,0,0,1,.49,2.87q.14,1.58.14,2.73t-.06,2.94q-.06,1.79-.06,2.57,0,1.4.12,4.17t.12,4.17a1,1,0,1,1-2,0q0-1.4-.12-4.17T138.37,74q0-.94.06-2.69t.06-2.83q0-1.07-.12-2.48a14,14,0,0,0-.43-2.57,1,1,0,0,1,.1-.78,1,1,0,0,1,.62-.47.92.92,0,0,1,.76.1A1,1,0,0,1,139.89,62.86Z"/><path class="cls-2" d="M147.93,54h2l-.2,19,10.57-10.69,1.4,1.4-6.32,6.44,5.46,12.09-1.87.86-5.11-11.39-4.17,4.21-.08,6.75h-2Z"/><path class="cls-2" d="M165.32,76.51l-.08-2h.43a6,6,0,0,1,0-1,14.93,14.93,0,0,1,2.42-8,8.32,8.32,0,0,1,7.6-3.78q6.36.12,8.89,3.82,2.18,3.24,1.56,9.56a1,1,0,0,1-.37.66A1,1,0,0,1,185,76l-.12,0L168,76.44a6.89,6.89,0,0,0,2,3.55,5.59,5.59,0,0,0,2.38,1.36,17.92,17.92,0,0,0,3.35.47,10.28,10.28,0,0,0,3.63-.35,10.06,10.06,0,0,0,3.12-1.75.92.92,0,0,1,.72-.23,1,1,0,0,1,.68.37,1,1,0,0,1,.23.74,1,1,0,0,1-.39.68,11.26,11.26,0,0,1-3.74,2.13,12.71,12.71,0,0,1-4.33.45,19.44,19.44,0,0,1-4-.58,7,7,0,0,1-3.08-1.79,9.24,9.24,0,0,1-2.61-5Zm2.38-2.11L184.2,74q.35-4.87-1.29-7.29-1.91-2.85-7.22-2.92a6.38,6.38,0,0,0-5.89,2.85,12.82,12.82,0,0,0-2.11,6.94A4.25,4.25,0,0,0,167.7,74.41Z"/><path class="cls-3" d="M59,109.82a.88.88,0,0,1,.31.16,7.75,7.75,0,0,1,1.17,1.29,11.54,11.54,0,0,1,.72,1.09q.21.39.68,1.4A13.26,13.26,0,0,1,63,118.63a12.59,12.59,0,0,1-.74,5,10.06,10.06,0,0,1-2.89,4.17,8.82,8.82,0,0,1-4.8,2,21.88,21.88,0,0,1-4.17-.12,11.48,11.48,0,0,1-7.45-3.31,10.71,10.71,0,0,1-3.16-7.61,13.1,13.1,0,0,1,.9-4.87,11.55,11.55,0,0,1,2.38-3.8,11.15,11.15,0,0,1,3.45-2.44,11,11,0,0,1,4.08-1,11.29,11.29,0,0,1,4.31.68A11.89,11.89,0,0,1,59,109.82Zm-.55,2.3A11.17,11.17,0,0,0,55,109.57a9.11,9.11,0,0,0-3.69-.92,8.88,8.88,0,0,0-3.55.66,9,9,0,0,0-5.15,5.19,11.1,11.1,0,0,0-.8,4.25A8.73,8.73,0,0,0,44.4,125a9.47,9.47,0,0,0,6.2,2.69,17.38,17.38,0,0,0,3.71.12,7,7,0,0,0,3.74-1.56,7.72,7.72,0,0,0,2.26-3.31,11.07,11.07,0,0,0,.62-4.17,10.22,10.22,0,0,0-1-4.09,15.34,15.34,0,0,0-1.21-2.26A1,1,0,0,1,58.41,112.12Z"/><path class="cls-3" d="M68.86,110l2-.08.12,3.71a8.5,8.5,0,0,1,4.25-3.43,5.19,5.19,0,0,1,4.1.2,7,7,0,0,1,3.24,3.82,1,1,0,0,1,0,.78.94.94,0,0,1-.55.55,1,1,0,0,1-.78,0,.94.94,0,0,1-.55-.55,5.11,5.11,0,0,0-2.26-2.77,3.16,3.16,0,0,0-2.54-.12A6.61,6.61,0,0,0,73.26,114a8,8,0,0,0-1.75,3.2.84.84,0,0,1-.39.55l.39,12-2,.08Z"/><path class="cls-3" d="M105.28,125.5a10.69,10.69,0,0,1-3.67,2.87,15.49,15.49,0,0,1-4.8,1.5,14.3,14.3,0,0,1-3.94,0,8.18,8.18,0,0,1-3.51-1.4,6,6,0,0,1-2.3-3,3.19,3.19,0,0,1-.25-1c0-.39-.06-.7-.06-.94s0-.57,0-1,0-.67,0-.72v-.43q0-1.6.1-2.5a12.65,12.65,0,0,1,.43-2.3A9.24,9.24,0,0,1,88.4,114a13,13,0,0,1,3.71-3.8,14.05,14.05,0,0,1,5-2.2,9.31,9.31,0,0,1,8.27,1.72,1,1,0,0,1,.86-.16,1.24,1.24,0,0,1,.7.51c.05.1.1.22.16.35s.1.4.16.66.09.9.12,1.6,0,1.37,0,2.3a17.6,17.6,0,0,1,0,5q0,1.48,0,2,0,4.6.16,6.67a1,1,0,0,1-.23.74,1,1,0,0,1-.7.35,1,1,0,0,1-.74-.23,1,1,0,0,1-.35-.7Q105.32,127.29,105.28,125.5Zm0-10.33q-.2-1.33-.31-2.46l-.08-.47a6.43,6.43,0,0,0-3.32-2.16,8.67,8.67,0,0,0-4.13-.06,12.18,12.18,0,0,0-4.21,1.87,11,11,0,0,0-3.16,3.24,7.22,7.22,0,0,0-.88,2.15,11.19,11.19,0,0,0-.33,2q0,.78-.08,2.53c0,.21,0,.5,0,.88s0,.65,0,.82a6,6,0,0,0,0,.62,3.68,3.68,0,0,0,.12.64,4.51,4.51,0,0,0,2.77,2.67,9.57,9.57,0,0,0,4.84.41,12.48,12.48,0,0,0,4.91-1.7,6.91,6.91,0,0,0,3-3.1,13.78,13.78,0,0,0,.9-3.24q0-2.93,0-4.56Z"/><path class="cls-3" d="M112.11,109l2-.08.12,2.53a11.37,11.37,0,0,1,5.69-3.9,14.24,14.24,0,0,1,3.24-.55,6.66,6.66,0,0,1,3.16.64,6.55,6.55,0,0,1,2.61,2.2,13,13,0,0,1,1.74,3.22,17,17,0,0,1,.88,3.22,20.73,20.73,0,0,1,.21,3.39,32.68,32.68,0,0,1-.17,3.28l-.39,3.31q-.23,2-.31,3.16a1,1,0,0,1-.35.7,1,1,0,0,1-.74.23,1,1,0,0,1-.7-.35,1,1,0,0,1-.23-.74q.12-1.44.35-3.35l.31-3.28q.16-1.25.2-3a18.17,18.17,0,0,0-.16-3,13.51,13.51,0,0,0-.76-2.79,12.74,12.74,0,0,0-1.5-2.81,4.6,4.6,0,0,0-2.91-1.87,7,7,0,0,0-3.84.31,10.05,10.05,0,0,0-3.59,2,6.77,6.77,0,0,0-2.07,3,1,1,0,0,1-.47.55l.78,14.59-2,.08Z"/><path class="cls-3" d="M157,109a23.52,23.52,0,0,0-.23,3q0,1.7,0,2.77t.21,3.41q.16,2.34.23,3.16.08,2.26.1,4.33a22.27,22.27,0,0,1-.39,4.27,15.06,15.06,0,0,1-1.31,4,7.39,7.39,0,0,1-2.79,3.12,10.21,10.21,0,0,1-4.12,1.52,9.6,9.6,0,0,1-4.39-.39,7,7,0,0,1-3.45-2.42,1.06,1.06,0,0,1-.17-.76,1,1,0,0,1,.39-.66,1,1,0,0,1,.74-.2,1.08,1.08,0,0,1,.68.37,5,5,0,0,0,2.51,1.75,8.17,8.17,0,0,0,6.67-.9,5.69,5.69,0,0,0,2.13-2.3,17.42,17.42,0,0,0,1.44-6.32q-2.77,3.31-8.62,3.32h-2.22l-1.11,0q-.8,0-1.27-.1t-1.11-.18q-.64-.12-1.19-.27a6.55,6.55,0,0,1-3.55-2.63,9.06,9.06,0,0,1-1.4-4.31,13.85,13.85,0,0,1,.31-4.35,15.88,15.88,0,0,1,1.44-4,9.2,9.2,0,0,1,2.36-2.75,10.7,10.7,0,0,1,3.18-1.74,17.25,17.25,0,0,1,3.43-.8,17.85,17.85,0,0,1,3.43-.1,11.21,11.21,0,0,1,5.81,1.79q.08-1,.2-1.91a1,1,0,0,1,.41-.66,1,1,0,0,1,.76-.18.93.93,0,0,1,.66.39A1.1,1.1,0,0,1,157,109Zm-2.46,4.17q-1.75-2.07-5.73-2.34a14.46,14.46,0,0,0-6.2.86,7.66,7.66,0,0,0-4.25,3.51,14,14,0,0,0-1.56,7.18q.35,4.14,3.59,5.15a5.86,5.86,0,0,0,1,.25l.94.16a9.86,9.86,0,0,0,1.13.08l1,0h2.26q5.15,0,7.21-2.81a.91.91,0,0,1,.66-.41,1,1,0,0,1,.74.18h0q0-1.52-.12-3.55-.08-.86-.2-2.54t-.2-3q-.08-1.37-.12-2.54Z"/><path class="cls-3" d="M160.93,123.31l-.08-2h.43a6,6,0,0,1,0-1,14.93,14.93,0,0,1,2.42-8,8.32,8.32,0,0,1,7.6-3.78q6.36.12,8.89,3.82,2.18,3.24,1.56,9.55a1,1,0,0,1-.37.66,1,1,0,0,1-.76.23l-.12,0-16.93.43a6.89,6.89,0,0,0,2,3.55,5.59,5.59,0,0,0,2.38,1.37,17.93,17.93,0,0,0,3.35.47,10.31,10.31,0,0,0,3.63-.35,10.1,10.1,0,0,0,3.12-1.75.93.93,0,0,1,.72-.23,1,1,0,0,1,.92,1.11,1,1,0,0,1-.39.68,11.28,11.28,0,0,1-3.74,2.13,12.73,12.73,0,0,1-4.33.45,19.5,19.5,0,0,1-4-.58,7,7,0,0,1-3.08-1.79,9.24,9.24,0,0,1-2.61-5Zm2.38-2.11,16.5-.39q.35-4.87-1.29-7.29-1.91-2.85-7.22-2.92a6.38,6.38,0,0,0-5.89,2.85,12.83,12.83,0,0,0-2.11,6.94A4.24,4.24,0,0,0,163.31,121.21Z"/><path class="cls-3" d="M200.87,113.17a5.3,5.3,0,0,0-2.09-3.47,7.22,7.22,0,0,0-4.06-1.46,6.46,6.46,0,0,0-4.08,1,4.9,4.9,0,0,0-2.18,3.35q-.47,2.34.59,3.28a7.75,7.75,0,0,0,3.35,1.17,9.46,9.46,0,0,1,1,.14q.8.14,1.09.21l1.07.25a6.6,6.6,0,0,1,1.13.33l1.05.47a3.63,3.63,0,0,1,1.05.62l.82.78a3.75,3.75,0,0,1,.78,1,9,9,0,0,1,.55,1.25,5.1,5.1,0,0,1-.14,3.71,6.41,6.41,0,0,1-2.44,2.81,8.28,8.28,0,0,1-3.39,1.37,8.11,8.11,0,0,1-3.63-.2,6,6,0,0,1-.58-.25,2.66,2.66,0,0,1-.55-.37l-.43-.35a3.43,3.43,0,0,1-.41-.39c-.17-.18-.27-.27-.29-.27a1,1,0,0,1-.31-.72,1,1,0,0,1,.29-.72.93.93,0,0,1,.7-.31,1.06,1.06,0,0,1,.72.27l.35.35.31.31.25.21a1.9,1.9,0,0,0,.29.2,1.35,1.35,0,0,0,.27.1,5.44,5.44,0,0,0,2.65.14,7.1,7.1,0,0,0,2.65-1q2.53-1.72,1.72-4.21a4.52,4.52,0,0,0-.53-1.13,3.11,3.11,0,0,0-.84-.86,10.58,10.58,0,0,0-.94-.58,5.78,5.78,0,0,0-1.23-.45q-.8-.21-1.31-.31l-1.48-.25-.58-.12a8.92,8.92,0,0,1-4.33-1.64q-2-1.68-1.29-5.19a6.83,6.83,0,0,1,3-4.66,8.83,8.83,0,0,1,5.34-1.38,9.65,9.65,0,0,1,5.25,1.93,7.18,7.18,0,0,1,2.83,4.74,1.11,1.11,0,0,1-.2.74.9.9,0,0,1-.64.41,1.06,1.06,0,0,1-.76-.18A1,1,0,0,1,200.87,113.17Z"/></svg>