<svg id="Layer_1" data-name="Layer 1" xmlns="http://www.w3.org/2000/svg" viewBox="0 0 245 206"><defs><style>.cls-1{fill:#f472bb;stroke:#000;stroke-miterlimit:10;stroke-width:7px;}.cls-2{fill:#fff;}</style></defs><title>we are</title><rect class="cls-1" x="2.87" y="0.9" width="245" height="206"/><path d="M58.07,91.65q-.08.2-.53,1.6t-.64,2.11l-.55,2q-.35,1.29-.55,2.38a19.14,19.14,0,0,0-.27,2.11,9.63,9.63,0,0,0,.55,4.64,4.41,4.41,0,0,0,3.08,2.46,7.28,7.28,0,0,0,2.93.27q2.22-.39,3.74-4.52a29,29,0,0,0,1.44-6.24c0-.49,0-.85,0-1.05s.05-.75.16-1.72v-.43q0-1.83.08-2.57v-.12c0-.26-.05-.39-.08-.39a3,3,0,0,1,.08-.74,1.12,1.12,0,0,1,.51-.58,1.33,1.33,0,0,1,.78-.16,1.09,1.09,0,0,1,.86.74l.08.39v.7q0,.62-.12,1.83-.08.51-.16,1.44,0,1.25-.12,2.11c0,.23-.05.48-.08.74q-.16,2.69-.16,4.17a23.9,23.9,0,0,0,.2,2.77,2.94,2.94,0,0,0,.51,1.44,5.26,5.26,0,0,0,2.65,1.33q6.24,1.48,8.81-4.25a15.42,15.42,0,0,0,1.19-5.75,17.1,17.1,0,0,0-.76-5.87,1.06,1.06,0,0,1,.08-.8,1,1,0,0,1,.6-.49,1,1,0,0,1,.78.08,1,1,0,0,1,.49.58,19.2,19.2,0,0,1,.82,6.55,17.5,17.5,0,0,1-1.37,6.51,9.76,9.76,0,0,1-4.25,4.82,9.37,9.37,0,0,1-6.86.57,7.19,7.19,0,0,1-3.67-1.87,4.77,4.77,0,0,1-1-2.22q-1.87,4.49-5,5a9.34,9.34,0,0,1-3.71-.35,6.29,6.29,0,0,1-4.45-3.59,11.23,11.23,0,0,1-.74-5.62q.12-1.13.31-2.3t.55-2.54L55,94.77q.19-.74.64-2.15t.49-1.6a1,1,0,0,1,.49-.59,1,1,0,0,1,.78-.08,1,1,0,0,1,.6.49A1.06,1.06,0,0,1,58.07,91.65Z"/><path d="M88.1,104.17l-.08-2h.43a6,6,0,0,1,0-1,14.93,14.93,0,0,1,2.42-8,8.33,8.33,0,0,1,7.61-3.78q6.36.12,8.89,3.82,2.18,3.24,1.56,9.55a1,1,0,0,1-.37.66,1,1,0,0,1-.76.23l-.12,0-16.93.43a6.89,6.89,0,0,0,2,3.55A5.59,5.59,0,0,0,95.08,109a17.92,17.92,0,0,0,3.35.47,10.27,10.27,0,0,0,3.63-.35,10.1,10.1,0,0,0,3.12-1.75.92.92,0,0,1,.72-.23,1,1,0,0,1,.68.37,1,1,0,0,1,.23.74,1,1,0,0,1-.39.68,11.28,11.28,0,0,1-3.74,2.13,12.74,12.74,0,0,1-4.33.45,19.5,19.5,0,0,1-4-.58,7,7,0,0,1-3.08-1.79,9.24,9.24,0,0,1-2.61-5Zm2.38-2.11,16.5-.39q.35-4.87-1.29-7.29-1.91-2.85-7.21-2.92a6.38,6.38,0,0,0-5.89,2.85,12.84,12.84,0,0,0-2.11,6.94A4.25,4.25,0,0,0,90.48,102.06Z"/><path class="cls-2" d="M143.36,106.35a10.69,10.69,0,0,1-3.67,2.87,15.48,15.48,0,0,1-4.8,1.5,14.29,14.29,0,0,1-3.94,0,8.19,8.19,0,0,1-3.51-1.4,6,6,0,0,1-2.3-3,3.21,3.21,0,0,1-.25-1q-.06-.58-.06-.94c0-.23,0-.57,0-1s0-.67,0-.72v-.43q0-1.6.1-2.5a12.67,12.67,0,0,1,.43-2.3,9.24,9.24,0,0,1,1.07-2.53,13,13,0,0,1,3.71-3.8,14,14,0,0,1,5-2.2,9.31,9.31,0,0,1,8.27,1.72,1,1,0,0,1,.86-.16,1.25,1.25,0,0,1,.7.51c.05.1.1.22.16.35s.1.4.16.66.09.9.12,1.6,0,1.37,0,2.3a17.6,17.6,0,0,1,0,5q0,1.48,0,2,0,4.6.16,6.67a1,1,0,0,1-.23.74,1,1,0,0,1-.7.35,1,1,0,0,1-.74-.23,1,1,0,0,1-.35-.7Q143.4,108.15,143.36,106.35Zm0-10.33q-.19-1.33-.31-2.46l-.08-.47a6.43,6.43,0,0,0-3.32-2.16,8.67,8.67,0,0,0-4.13-.06,12.18,12.18,0,0,0-4.21,1.87A11,11,0,0,0,128.19,96a7.2,7.2,0,0,0-.88,2.14,11.21,11.21,0,0,0-.33,2q0,.78-.08,2.53c0,.21,0,.5,0,.88s0,.65,0,.82,0,.38,0,.62a3.87,3.87,0,0,0,.12.64,4.51,4.51,0,0,0,2.77,2.67,9.57,9.57,0,0,0,4.84.41,12.49,12.49,0,0,0,4.91-1.7,6.92,6.92,0,0,0,3-3.1,13.78,13.78,0,0,0,.9-3.24q0-2.93,0-4.56Z"/><path class="cls-2" d="M151.48,90.87l2-.08.12,3.71a8.5,8.5,0,0,1,4.25-3.43,5.18,5.18,0,0,1,4.09.2,7,7,0,0,1,3.24,3.82,1,1,0,0,1,0,.78.94.94,0,0,1-.55.55,1,1,0,0,1-.78,0,.94.94,0,0,1-.55-.55,5.12,5.12,0,0,0-2.26-2.77,3.16,3.16,0,0,0-2.54-.12,6.61,6.61,0,0,0-2.65,1.91,8,8,0,0,0-1.75,3.2.83.83,0,0,1-.39.55l.39,12-2,.08Z"/><path class="cls-2" d="M168.87,104.17l-.08-2h.43a6,6,0,0,1,0-1,14.93,14.93,0,0,1,2.42-8,8.32,8.32,0,0,1,7.6-3.78q6.36.12,8.89,3.82,2.18,3.24,1.56,9.55a1,1,0,0,1-.37.66,1,1,0,0,1-.76.23l-.12,0-16.93.43a6.89,6.89,0,0,0,2,3.55,5.59,5.59,0,0,0,2.38,1.37,17.92,17.92,0,0,0,3.35.47,10.28,10.28,0,0,0,3.63-.35,10.08,10.08,0,0,0,3.12-1.75.92.92,0,0,1,.72-.23,1,1,0,0,1,.68.37,1,1,0,0,1,.23.74,1,1,0,0,1-.39.68,11.26,11.26,0,0,1-3.74,2.13,12.73,12.73,0,0,1-4.33.45,19.5,19.5,0,0,1-4-.58,7,7,0,0,1-3.08-1.79,9.24,9.24,0,0,1-2.61-5Zm2.38-2.11,16.5-.39q.35-4.87-1.29-7.29-1.91-2.85-7.22-2.92a6.38,6.38,0,0,0-5.89,2.85,12.83,12.83,0,0,0-2.11,6.94A4.25,4.25,0,0,0,171.25,102.06Z"/></svg>