<svg id="Layer_1" data-name="Layer 1" xmlns="http://www.w3.org/2000/svg" viewBox="0 0 245 206"><defs><style>.cls-1{fill:#f14183;stroke:#000;stroke-miterlimit:10;stroke-width:7px;}.cls-2{fill:#fff;}</style></defs><title>we want</title><rect class="cls-1" x="2.87" y="0.9" width="245" height="206"/><path d="M46,92.9q-.08.19-.53,1.6t-.64,2.11l-.55,2q-.35,1.29-.55,2.38a19.17,19.17,0,0,0-.27,2.11,9.63,9.63,0,0,0,.55,4.64A4.41,4.41,0,0,0,47,110.17a7.29,7.29,0,0,0,2.93.27q2.22-.39,3.74-4.52a29,29,0,0,0,1.44-6.24c0-.49,0-.84,0-1.05s.05-.75.16-1.72v-.43q0-1.83.08-2.57v-.12c0-.26-.05-.39-.08-.39a3.05,3.05,0,0,1,.08-.74,1.12,1.12,0,0,1,.51-.58,1.32,1.32,0,0,1,.78-.16,1.09,1.09,0,0,1,.86.74l.08.39v.7q0,.62-.12,1.83-.08.51-.16,1.44,0,1.25-.12,2.11c0,.23-.05.48-.08.74q-.16,2.69-.16,4.17a23.89,23.89,0,0,0,.2,2.77,2.93,2.93,0,0,0,.51,1.44,5.26,5.26,0,0,0,2.65,1.33q6.24,1.48,8.81-4.25a15.43,15.43,0,0,0,1.19-5.75,17.1,17.1,0,0,0-.76-5.87,1.06,1.06,0,0,1,.08-.8,1,1,0,0,1,.6-.49,1,1,0,0,1,.78.08,1,1,0,0,1,.49.58,19.19,19.19,0,0,1,.82,6.55A17.49,17.49,0,0,1,71,106.16,9.76,9.76,0,0,1,66.78,111a9.36,9.36,0,0,1-6.86.57,7.18,7.18,0,0,1-3.67-1.87,4.77,4.77,0,0,1-1-2.22q-1.87,4.49-5,5a9.33,9.33,0,0,1-3.71-.35,6.29,6.29,0,0,1-4.45-3.59,11.23,11.23,0,0,1-.74-5.62q.12-1.13.31-2.3t.55-2.54L42.87,96q.19-.74.64-2.15t.49-1.6a1,1,0,0,1,.49-.58,1,1,0,0,1,.78-.08,1,1,0,0,1,.6.49A1.06,1.06,0,0,1,46,92.9Z"/><path d="M76,105.42l-.08-2h.43a6,6,0,0,1,0-1,14.93,14.93,0,0,1,2.42-8,8.32,8.32,0,0,1,7.61-3.78q6.36.12,8.89,3.82,2.18,3.24,1.56,9.56a1,1,0,0,1-.37.66,1,1,0,0,1-.76.23l-.12,0-16.93.43a6.89,6.89,0,0,0,2,3.55A5.59,5.59,0,0,0,83,110.25a17.92,17.92,0,0,0,3.35.47,10.27,10.27,0,0,0,3.63-.35,10.08,10.08,0,0,0,3.12-1.75.92.92,0,0,1,.72-.23,1,1,0,0,1,.68.37,1,1,0,0,1,.23.74,1,1,0,0,1-.39.68,11.28,11.28,0,0,1-3.74,2.13,12.71,12.71,0,0,1-4.33.45,19.44,19.44,0,0,1-4-.58,7,7,0,0,1-3.08-1.79,9.24,9.24,0,0,1-2.61-5Zm2.38-2.11,16.5-.39q.35-4.87-1.29-7.29-1.91-2.85-7.21-2.92a6.38,6.38,0,0,0-5.89,2.85,12.83,12.83,0,0,0-2.11,6.94A4.25,4.25,0,0,0,78.36,103.31Z"/><path class="cls-2" d="M118,92.9q-.08.19-.53,1.6t-.64,2.11l-.55,2q-.35,1.29-.55,2.38a19.17,19.17,0,0,0-.27,2.11,9.63,9.63,0,0,0,.55,4.64,4.41,4.41,0,0,0,3.08,2.46,7.29,7.29,0,0,0,2.93.27q2.22-.39,3.74-4.52a29,29,0,0,0,1.44-6.24c0-.49,0-.84,0-1.05s.05-.75.16-1.72v-.43q0-1.83.08-2.57v-.12c0-.26-.05-.39-.08-.39a3.05,3.05,0,0,1,.08-.74,1.12,1.12,0,0,1,.51-.58,1.32,1.32,0,0,1,.78-.16,1.09,1.09,0,0,1,.86.74l.08.39v.7q0,.62-.12,1.83-.08.51-.16,1.44,0,1.25-.12,2.11c0,.23-.05.48-.08.74q-.16,2.69-.16,4.17a23.89,23.89,0,0,0,.2,2.77,2.93,2.93,0,0,0,.51,1.44,5.26,5.26,0,0,0,2.65,1.33q6.24,1.48,8.81-4.25a15.46,15.46,0,0,0,1.19-5.75,17.1,17.1,0,0,0-.76-5.87,1.06,1.06,0,0,1,.08-.8,1,1,0,0,1,.61-.49,1,1,0,0,1,.78.08,1,1,0,0,1,.49.58,19.21,19.21,0,0,1,.82,6.55,17.49,17.49,0,0,1-1.37,6.51,9.76,9.76,0,0,1-4.25,4.82,9.37,9.37,0,0,1-6.87.57,7.18,7.18,0,0,1-3.67-1.87,4.77,4.77,0,0,1-1-2.22q-1.87,4.49-5,5a9.33,9.33,0,0,1-3.71-.35,6.29,6.29,0,0,1-4.45-3.59,11.23,11.23,0,0,1-.74-5.62q.12-1.13.31-2.3t.55-2.54L114.9,96q.19-.74.64-2.15t.49-1.6a1,1,0,0,1,.49-.58,1,1,0,0,1,.78-.08,1,1,0,0,1,.6.49A1.06,1.06,0,0,1,118,92.9Z"/><path class="cls-2" d="M167,107.6a10.69,10.69,0,0,1-3.67,2.87,15.48,15.48,0,0,1-4.8,1.5,14.29,14.29,0,0,1-3.94,0,8.2,8.2,0,0,1-3.51-1.4,6,6,0,0,1-2.3-3,3.23,3.23,0,0,1-.25-1c0-.39-.06-.7-.06-.94s0-.57,0-1,0-.67,0-.72v-.43q0-1.6.1-2.5a12.6,12.6,0,0,1,.43-2.3,9.23,9.23,0,0,1,1.07-2.53,13,13,0,0,1,3.71-3.8,14.06,14.06,0,0,1,5-2.2,9.31,9.31,0,0,1,8.27,1.72,1,1,0,0,1,.86-.16,1.24,1.24,0,0,1,.7.51c.05.1.1.22.16.35s.1.4.16.66.09.9.12,1.6,0,1.37,0,2.3a17.6,17.6,0,0,1,0,5q0,1.48,0,2,0,4.6.16,6.67a1,1,0,0,1-.23.74,1,1,0,0,1-.7.35,1,1,0,0,1-.74-.23,1,1,0,0,1-.35-.7Q167.08,109.39,167,107.6Zm0-10.33q-.19-1.33-.31-2.46l-.08-.47a6.42,6.42,0,0,0-3.32-2.17,8.7,8.7,0,0,0-4.13-.06A12.2,12.2,0,0,0,155,94a11,11,0,0,0-3.16,3.24,7.21,7.21,0,0,0-.88,2.14,11.14,11.14,0,0,0-.33,2q0,.78-.08,2.54c0,.21,0,.5,0,.88s0,.65,0,.82a6,6,0,0,0,0,.62,3.68,3.68,0,0,0,.12.64,4.52,4.52,0,0,0,2.77,2.67,9.59,9.59,0,0,0,4.84.41,12.51,12.51,0,0,0,4.91-1.7,6.92,6.92,0,0,0,3-3.1,13.8,13.8,0,0,0,.9-3.24q0-2.93,0-4.56Z"/><path class="cls-2" d="M173.87,91.06l2-.08.12,2.54a11.38,11.38,0,0,1,5.69-3.9,14.36,14.36,0,0,1,3.24-.55,6.67,6.67,0,0,1,3.16.64,6.55,6.55,0,0,1,2.61,2.2,13.06,13.06,0,0,1,1.74,3.22,16.9,16.9,0,0,1,.88,3.22,20.5,20.5,0,0,1,.21,3.39,32.39,32.39,0,0,1-.17,3.28l-.39,3.32q-.23,2-.31,3.16a1,1,0,0,1-.35.7,1,1,0,0,1-.74.23,1,1,0,0,1-.7-.35.94.94,0,0,1-.23-.74q.12-1.44.35-3.35l.31-3.28q.16-1.25.2-3a18.18,18.18,0,0,0-.16-3,13.44,13.44,0,0,0-.76-2.79,12.7,12.7,0,0,0-1.5-2.81,4.59,4.59,0,0,0-2.91-1.87,7,7,0,0,0-3.84.31,10,10,0,0,0-3.59,2,6.77,6.77,0,0,0-2.07,3,1,1,0,0,1-.47.55l.78,14.59-2,.08Z"/><path class="cls-2" d="M197.54,103.5l-.23-2,3.86-.47-.62-16.61,2-.08.62,16.46,4.25-.51.23,2-4.41.51.35,9.13-2,.08-.35-9Z"/></svg>