<svg id="Layer_1" data-name="Layer 1" xmlns="http://www.w3.org/2000/svg" viewBox="0 0 245 206"><defs><style>.cls-1{fill:#73165d;stroke:#000;stroke-width:7px;}.cls-1,.cls-3{stroke-miterlimit:10;}.cls-2{fill:#fff;}.cls-3{fill:#f7931e;stroke:#f7931e;}</style></defs><title>you all like oranges</title><rect class="cls-1" x="2.87" y="0.9" width="245" height="206"/><path d="M37.95,44.91q-.2.78-.35,1.68a14.24,14.24,0,0,0-.2,1.5q0,.61-.14,1.74t-.14,1.72a20.84,20.84,0,0,0,.23,6.4,8.37,8.37,0,0,0,2.85,4.56,4,4,0,0,0,3.55,1q3.51-.66,5-5A35.32,35.32,0,0,0,50,50.33q.19-3,.23-4.45V45.8a1.38,1.38,0,0,1-.08-.35,1.33,1.33,0,0,1,.66-1.52,1,1,0,0,1,.94,0,1.26,1.26,0,0,1,.43.39,1.5,1.5,0,0,1,.12.31.73.73,0,0,0,0,.23v2.22q0,4.06-.12,6.43-.27,5.54-.12,10.65c0,.08,0,.51.1,1.31a16.45,16.45,0,0,1,.06,2,6.2,6.2,0,0,1-.27,1.6,5.75,5.75,0,0,1-1.74,2.54,7.21,7.21,0,0,1-2.71,1.48,5.44,5.44,0,0,1-3,.16,4.9,4.9,0,0,1-2.73-1.6,1,1,0,0,1-.23-.74,1,1,0,0,1,.35-.7,1,1,0,0,1,.74-.23,1,1,0,0,1,.7.35,3.17,3.17,0,0,0,3.63.82,5,5,0,0,0,1.93-1A3.74,3.74,0,0,0,50,68.5a3.79,3.79,0,0,0,.21-1.15,13.09,13.09,0,0,0-.08-1.6q-.1-1-.1-1.5L50,60.74a8,8,0,0,1-5.85,4.76,6.59,6.59,0,0,1-5.27-1.44,11.86,11.86,0,0,1-2.36-2.85,9.68,9.68,0,0,1-1.21-3.12,23.12,23.12,0,0,1-.21-6.71q0-.51.12-1.64l.16-1.87q.08-.66.23-1.66A17,17,0,0,1,36,44.36a1,1,0,0,1,.47-.6.92.92,0,0,1,.76-.1,1,1,0,0,1,.62.47A1,1,0,0,1,37.95,44.91Z"/><path d="M75.66,44.67a.89.89,0,0,1,.31.16,7.79,7.79,0,0,1,1.17,1.29,11.74,11.74,0,0,1,.72,1.09q.21.39.68,1.4a13.26,13.26,0,0,1,1.13,4.88,12.61,12.61,0,0,1-.74,5,10.06,10.06,0,0,1-2.89,4.17,8.82,8.82,0,0,1-4.8,2,21.89,21.89,0,0,1-4.17-.12,11.48,11.48,0,0,1-7.45-3.31,10.71,10.71,0,0,1-3.16-7.61,13.12,13.12,0,0,1,.9-4.87,11.55,11.55,0,0,1,2.38-3.8,11.15,11.15,0,0,1,3.45-2.44,11,11,0,0,1,4.08-1,11.3,11.3,0,0,1,4.31.68A11.89,11.89,0,0,1,75.66,44.67ZM75.12,47a11.17,11.17,0,0,0-3.43-2.55A9.11,9.11,0,0,0,68,43.5a8.88,8.88,0,0,0-3.55.66,9,9,0,0,0-5.15,5.19,11.1,11.1,0,0,0-.8,4.25,8.73,8.73,0,0,0,2.61,6.2,9.47,9.47,0,0,0,6.2,2.69,17.38,17.38,0,0,0,3.71.12,7,7,0,0,0,3.74-1.56A7.71,7.71,0,0,0,77,57.74a11.07,11.07,0,0,0,.62-4.17,10.22,10.22,0,0,0-1-4.09,15.43,15.43,0,0,0-1.21-2.26A1,1,0,0,1,75.12,47Z"/><path d="M86.62,44.21q-.08.43-.33,1.66T86,47.6l-.31,1.52q-.19,1.05-.25,1.7t-.12,1.52a12,12,0,0,0,0,1.68q.06.8.18,1.58a11,11,0,0,0,.76,2.75,6.21,6.21,0,0,0,1.38,2.13,8.06,8.06,0,0,0,4.86,2.09,7,7,0,0,0,5-1.11,8.85,8.85,0,0,0,2.36-3A17.81,17.81,0,0,0,101.4,54a17.34,17.34,0,0,0,.37-4.66,10.63,10.63,0,0,0-.84-3.8.91.91,0,0,1-.06-.76,1,1,0,0,1,.51-.58,1,1,0,0,1,.78,0,.88.88,0,0,1,.57.53,11.44,11.44,0,0,1,1.07,4.56,18.5,18.5,0,0,1-.45,5.19,18.61,18.61,0,0,1-1.75,5,10.26,10.26,0,0,1-3,3.59,9.15,9.15,0,0,1-6.4,1.48,10,10,0,0,1-6-2.61,8.07,8.07,0,0,1-1.79-2.73,14.92,14.92,0,0,1-1-3.31,16.86,16.86,0,0,1-.18-2.2q0-1.15,0-1.93t.25-2.16q.21-1.38.33-1.85l.39-2.07q.35-1.64.43-1.87a1,1,0,0,1,.43-.66.93.93,0,0,1,.76-.14,1,1,0,0,1,.64.45A.84.84,0,0,1,86.62,44.21Z"/><path d="M140.75,43.85a23.52,23.52,0,0,0-.23,3q0,1.7,0,2.77t.21,3.41q.16,2.34.23,3.16.08,2.26.1,4.33a22.26,22.26,0,0,1-.39,4.27,15.06,15.06,0,0,1-1.31,4,7.39,7.39,0,0,1-2.79,3.12,10.21,10.21,0,0,1-4.11,1.52A9.61,9.61,0,0,1,128.1,73a7,7,0,0,1-3.45-2.42,1.06,1.06,0,0,1-.18-.76,1,1,0,0,1,.39-.66,1,1,0,0,1,.74-.2,1.08,1.08,0,0,1,.68.37,5,5,0,0,0,2.52,1.75,8.17,8.17,0,0,0,6.67-.9,5.68,5.68,0,0,0,2.13-2.3A17.4,17.4,0,0,0,139,61.6q-2.77,3.31-8.62,3.32h-2.22l-1.11,0q-.8,0-1.27-.1t-1.11-.18c-.43-.08-.83-.17-1.19-.27A6.54,6.54,0,0,1,120,61.7a9.06,9.06,0,0,1-1.4-4.31,13.88,13.88,0,0,1,.31-4.35,15.92,15.92,0,0,1,1.44-4,9.19,9.19,0,0,1,2.36-2.75,10.71,10.71,0,0,1,3.18-1.74,17.24,17.24,0,0,1,3.43-.8,17.86,17.86,0,0,1,3.43-.1,11.2,11.2,0,0,1,5.81,1.79q.08-1,.2-1.91a1,1,0,0,1,.41-.66,1,1,0,0,1,.76-.18.93.93,0,0,1,.66.39A1.1,1.1,0,0,1,140.75,43.85ZM138.3,48q-1.75-2.07-5.73-2.34a14.46,14.46,0,0,0-6.2.86,7.66,7.66,0,0,0-4.25,3.51,14,14,0,0,0-1.56,7.18q.35,4.14,3.59,5.15a5.88,5.88,0,0,0,1,.25l.94.16a9.86,9.86,0,0,0,1.13.08l1,0h2.26q5.15,0,7.21-2.81a.91.91,0,0,1,.66-.41,1,1,0,0,1,.74.18h0q0-1.52-.12-3.55-.08-.86-.2-2.54t-.2-3q-.08-1.37-.12-2.54Z"/><path d="M148,44.21q-.08.43-.33,1.66t-.33,1.74L147,49.12q-.2,1.05-.25,1.7t-.12,1.52a12,12,0,0,0,0,1.68q.06.8.18,1.58a10.92,10.92,0,0,0,.76,2.75A6.2,6.2,0,0,0,149,60.47a8.06,8.06,0,0,0,4.86,2.09,7,7,0,0,0,5-1.11,8.84,8.84,0,0,0,2.36-3A17.81,17.81,0,0,0,162.79,54a17.37,17.37,0,0,0,.37-4.66,10.61,10.61,0,0,0-.84-3.8.91.91,0,0,1-.06-.76.94.94,0,0,1,.51-.58,1,1,0,0,1,.78,0,.88.88,0,0,1,.57.53,11.46,11.46,0,0,1,1.07,4.56,18.5,18.5,0,0,1-.45,5.19,18.61,18.61,0,0,1-1.75,5,10.26,10.26,0,0,1-3,3.59,9.15,9.15,0,0,1-6.4,1.48,10,10,0,0,1-6-2.61,8,8,0,0,1-1.79-2.73,14.88,14.88,0,0,1-1-3.31,17,17,0,0,1-.18-2.2q0-1.15,0-1.93t.25-2.16q.21-1.38.33-1.85l.39-2.07q.35-1.64.43-1.87a1,1,0,0,1,.43-.66.93.93,0,0,1,.76-.14,1,1,0,0,1,.64.45A.84.84,0,0,1,148,44.21Z"/><path d="M173.47,44.91q-.2.78-.35,1.68a14.47,14.47,0,0,0-.19,1.5q0,.61-.14,1.74t-.14,1.72a20.78,20.78,0,0,0,.23,6.4,8.37,8.37,0,0,0,2.85,4.56,4,4,0,0,0,3.55,1q3.51-.66,5-5a35.38,35.38,0,0,0,1.29-8.19q.19-3,.23-4.45V45.8a1.38,1.38,0,0,1-.08-.35,1.33,1.33,0,0,1,.66-1.52,1,1,0,0,1,.94,0,1.25,1.25,0,0,1,.43.39,1.56,1.56,0,0,1,.12.31.73.73,0,0,0,0,.23v2.22q0,4.06-.12,6.43-.27,5.54-.12,10.65c0,.08,0,.51.1,1.31a16.66,16.66,0,0,1,.06,2,6.28,6.28,0,0,1-.27,1.6,5.75,5.75,0,0,1-1.74,2.54,7.21,7.21,0,0,1-2.71,1.48,5.44,5.44,0,0,1-3,.16,4.91,4.91,0,0,1-2.73-1.6,1,1,0,0,1-.23-.74,1,1,0,0,1,.35-.7,1,1,0,0,1,.74-.23,1,1,0,0,1,.7.35,3.17,3.17,0,0,0,3.63.82,5,5,0,0,0,1.93-1,3.8,3.8,0,0,0,1.36-2.81,12.86,12.86,0,0,0-.08-1.6q-.1-1-.1-1.5l-.08-3.51a8,8,0,0,1-5.85,4.76,6.59,6.59,0,0,1-5.27-1.44A11.84,11.84,0,0,1,172,61.21a9.68,9.68,0,0,1-1.21-3.12,21.92,21.92,0,0,1-.35-3.32,22.38,22.38,0,0,1,.14-3.39c0-.34.06-.88.12-1.64l.16-1.87q.08-.66.23-1.66a17,17,0,0,1,.39-1.85,1,1,0,0,1,.47-.6.92.92,0,0,1,.76-.1,1,1,0,0,1,.62.47A1,1,0,0,1,173.47,44.91Z"/><path d="M206.85,48a5.3,5.3,0,0,0-2.09-3.47,7.22,7.22,0,0,0-4.06-1.46,6.46,6.46,0,0,0-4.08,1,4.9,4.9,0,0,0-2.18,3.35q-.47,2.34.59,3.28a7.75,7.75,0,0,0,3.35,1.17,9.46,9.46,0,0,1,1,.14q.8.14,1.09.21l1.07.25a6.6,6.6,0,0,1,1.13.33l1.05.47a3.63,3.63,0,0,1,1.05.62l.82.78a3.75,3.75,0,0,1,.78,1,9,9,0,0,1,.55,1.25,5.1,5.1,0,0,1-.14,3.71,6.41,6.41,0,0,1-2.44,2.81,8.28,8.28,0,0,1-3.39,1.37,8.11,8.11,0,0,1-3.63-.2,6,6,0,0,1-.58-.25,2.66,2.66,0,0,1-.55-.37l-.43-.35a3.43,3.43,0,0,1-.41-.39c-.17-.18-.27-.27-.29-.27a1,1,0,0,1-.31-.72,1,1,0,0,1,.29-.72.93.93,0,0,1,.7-.31,1.06,1.06,0,0,1,.72.27l.35.35.31.31.25.21a1.9,1.9,0,0,0,.29.2,1.35,1.35,0,0,0,.27.1,5.44,5.44,0,0,0,2.65.14,7.1,7.1,0,0,0,2.65-1q2.53-1.72,1.72-4.21a4.52,4.52,0,0,0-.53-1.13,3.11,3.11,0,0,0-.84-.86,10.58,10.58,0,0,0-.94-.58,5.78,5.78,0,0,0-1.23-.45q-.8-.21-1.31-.31L198.63,54l-.58-.12a8.92,8.92,0,0,1-4.33-1.64q-2-1.68-1.29-5.19a6.83,6.83,0,0,1,3-4.66A8.83,8.83,0,0,1,200.81,41,9.65,9.65,0,0,1,206.06,43a7.18,7.18,0,0,1,2.83,4.74,1.11,1.11,0,0,1-.2.74.9.9,0,0,1-.64.41,1.06,1.06,0,0,1-.76-.18A1,1,0,0,1,206.85,48Z"/><path class="cls-2" d="M93.74,82.86h2l.51,28.43h-2Z"/><path class="cls-2" d="M100.91,86.48a1.71,1.71,0,0,1,.2-2,1.84,1.84,0,0,1,1.72-.86,2.57,2.57,0,0,1,.62-.08,2.14,2.14,0,0,1,1.87,1.29,2.16,2.16,0,0,1,0,2.3,1.49,1.49,0,0,1-.35.43,2,2,0,0,1-2,.9,1.91,1.91,0,0,1-1.36-.62,2.47,2.47,0,0,1-.66-1.33A0,0,0,0,1,100.91,86.48Zm3,4.84a16.17,16.17,0,0,1,.49,2.87q.14,1.58.14,2.73t-.06,2.94q-.06,1.79-.06,2.57,0,1.4.12,4.17t.12,4.17a1,1,0,1,1-2,0q0-1.4-.12-4.17t-.12-4.17q0-.94.06-2.69t.06-2.83q0-1.07-.12-2.48a14,14,0,0,0-.43-2.57,1,1,0,0,1,.1-.78,1,1,0,0,1,.62-.47.92.92,0,0,1,.76.1A1,1,0,0,1,103.88,91.32Z"/><path class="cls-2" d="M111.91,82.43h2l-.19,19,10.57-10.69,1.4,1.4-6.32,6.44,5.46,12.09-1.87.86-5.11-11.39-4.17,4.21-.08,6.75h-2Z"/><path class="cls-2" d="M129.31,105l-.08-2h.43a6,6,0,0,1,0-1,14.92,14.92,0,0,1,2.42-8,8.32,8.32,0,0,1,7.6-3.78q6.36.12,8.89,3.82,2.19,3.24,1.56,9.56a1,1,0,0,1-.37.66,1,1,0,0,1-.76.23l-.12,0-16.93.43a6.89,6.89,0,0,0,1.95,3.55,5.59,5.59,0,0,0,2.38,1.36,17.93,17.93,0,0,0,3.35.47,10.29,10.29,0,0,0,3.63-.35,10.07,10.07,0,0,0,3.12-1.75.92.92,0,0,1,.72-.23A1,1,0,0,1,148,109a1,1,0,0,1-.39.68,11.26,11.26,0,0,1-3.74,2.13,12.71,12.71,0,0,1-4.33.45,19.44,19.44,0,0,1-4-.58,7,7,0,0,1-3.08-1.79,9.24,9.24,0,0,1-2.61-5Zm2.38-2.11,16.5-.39q.35-4.87-1.29-7.29-1.91-2.85-7.22-2.92a6.38,6.38,0,0,0-5.89,2.85,12.83,12.83,0,0,0-2.11,6.94A4.25,4.25,0,0,0,131.68,102.86Z"/><path class="cls-3" d="M59,138.27a.86.86,0,0,1,.31.16,7.83,7.83,0,0,1,1.17,1.29,11.67,11.67,0,0,1,.72,1.09q.21.39.68,1.4A13.26,13.26,0,0,1,63,147.09a12.6,12.6,0,0,1-.74,5,10.06,10.06,0,0,1-2.89,4.17,8.83,8.83,0,0,1-4.8,2,21.88,21.88,0,0,1-4.17-.12,11.49,11.49,0,0,1-7.45-3.32,10.71,10.71,0,0,1-3.16-7.6,13.09,13.09,0,0,1,.9-4.87,11.54,11.54,0,0,1,2.38-3.8,11.18,11.18,0,0,1,3.45-2.44,11,11,0,0,1,4.08-1,11.28,11.28,0,0,1,4.31.68A11.88,11.88,0,0,1,59,138.27Zm-.55,2.3A11.15,11.15,0,0,0,55,138a9.12,9.12,0,0,0-3.69-.92,8.88,8.88,0,0,0-3.55.66A9,9,0,0,0,42.59,143a11.09,11.09,0,0,0-.8,4.25,8.73,8.73,0,0,0,2.61,6.2,9.47,9.47,0,0,0,6.2,2.69,17.25,17.25,0,0,0,3.71.12,7,7,0,0,0,3.74-1.56,7.72,7.72,0,0,0,2.26-3.32,11.07,11.07,0,0,0,.62-4.17,10.21,10.21,0,0,0-1-4.09,15.36,15.36,0,0,0-1.21-2.26A1,1,0,0,1,58.4,140.57Z"/><path class="cls-3" d="M68.86,138.47l2-.08L71,142.1a8.5,8.5,0,0,1,4.25-3.43,5.19,5.19,0,0,1,4.1.2,7,7,0,0,1,3.24,3.82,1,1,0,0,1,0,.78A.94.94,0,0,1,82,144a1,1,0,0,1-.78,0,.94.94,0,0,1-.55-.55,5.11,5.11,0,0,0-2.26-2.77,3.15,3.15,0,0,0-2.54-.12,6.59,6.59,0,0,0-2.65,1.91,8,8,0,0,0-1.75,3.2.84.84,0,0,1-.39.55l.39,12-2,.08Z"/><path class="cls-3" d="M105.28,154a10.69,10.69,0,0,1-3.67,2.87,15.49,15.49,0,0,1-4.8,1.5,14.3,14.3,0,0,1-3.94,0,8.19,8.19,0,0,1-3.51-1.4,6,6,0,0,1-2.3-3,3.2,3.2,0,0,1-.25-1c0-.39-.06-.7-.06-.94s0-.57,0-1,0-.67,0-.72v-.43q0-1.6.1-2.5a12.67,12.67,0,0,1,.43-2.3,9.23,9.23,0,0,1,1.07-2.53,13,13,0,0,1,3.71-3.8,14.06,14.06,0,0,1,5-2.2,9.31,9.31,0,0,1,8.27,1.72,1,1,0,0,1,.86-.16,1.24,1.24,0,0,1,.7.51c.05.1.1.22.16.35s.1.4.16.66.09.9.12,1.6,0,1.37,0,2.3a17.6,17.6,0,0,1,0,5q0,1.48,0,2,0,4.6.16,6.67a1,1,0,0,1-.23.74,1,1,0,0,1-.7.35,1,1,0,0,1-.74-.23,1,1,0,0,1-.35-.7Q105.32,155.75,105.28,154Zm0-10.33q-.2-1.33-.31-2.46l-.08-.47a6.43,6.43,0,0,0-3.32-2.17,8.7,8.7,0,0,0-4.13-.06,12.19,12.19,0,0,0-4.21,1.87,11,11,0,0,0-3.16,3.24,7.21,7.21,0,0,0-.88,2.14,11.21,11.21,0,0,0-.33,2q0,.78-.08,2.54c0,.21,0,.5,0,.88s0,.65,0,.82a6,6,0,0,0,0,.62,3.68,3.68,0,0,0,.12.64,4.52,4.52,0,0,0,2.77,2.67,9.58,9.58,0,0,0,4.84.41,12.51,12.51,0,0,0,4.91-1.7,6.92,6.92,0,0,0,3-3.1,13.8,13.8,0,0,0,.9-3.24q0-2.93,0-4.56Z"/><path class="cls-3" d="M112.11,137.42l2-.08.12,2.54a11.38,11.38,0,0,1,5.69-3.9,14.35,14.35,0,0,1,3.24-.55,6.67,6.67,0,0,1,3.16.64,6.55,6.55,0,0,1,2.61,2.2,13.06,13.06,0,0,1,1.74,3.22,17,17,0,0,1,.88,3.22,20.71,20.71,0,0,1,.21,3.39,32.68,32.68,0,0,1-.17,3.28l-.39,3.32q-.23,2-.31,3.16a1,1,0,0,1-.35.7,1,1,0,0,1-.74.23,1,1,0,0,1-.7-.35.94.94,0,0,1-.23-.74q.12-1.44.35-3.35l.31-3.28q.16-1.25.2-3a18.18,18.18,0,0,0-.16-3,13.5,13.5,0,0,0-.76-2.79,12.7,12.7,0,0,0-1.5-2.81,4.59,4.59,0,0,0-2.91-1.87,7,7,0,0,0-3.84.31,10,10,0,0,0-3.59,2,6.76,6.76,0,0,0-2.07,3,1,1,0,0,1-.47.55l.78,14.59-2,.08Z"/><path class="cls-3" d="M157,137.45a23.51,23.51,0,0,0-.23,3q0,1.7,0,2.77t.21,3.41q.16,2.34.23,3.16.08,2.26.1,4.33a22.27,22.27,0,0,1-.39,4.27,15.08,15.08,0,0,1-1.31,4,7.4,7.4,0,0,1-2.79,3.12,10.19,10.19,0,0,1-4.12,1.52,9.62,9.62,0,0,1-4.39-.39,7,7,0,0,1-3.45-2.42,1.06,1.06,0,0,1-.17-.76,1,1,0,0,1,.39-.66,1,1,0,0,1,.74-.19,1.09,1.09,0,0,1,.68.37,4.94,4.94,0,0,0,2.51,1.75,8.16,8.16,0,0,0,6.67-.9,5.69,5.69,0,0,0,2.13-2.3,17.41,17.41,0,0,0,1.44-6.32q-2.77,3.31-8.62,3.31h-2.22l-1.11,0c-.53,0-1-.06-1.27-.1s-.68-.1-1.11-.18-.83-.17-1.19-.27a6.55,6.55,0,0,1-3.55-2.63,9.06,9.06,0,0,1-1.4-4.31,13.85,13.85,0,0,1,.31-4.35,15.88,15.88,0,0,1,1.44-4,9.19,9.19,0,0,1,2.36-2.75,10.68,10.68,0,0,1,3.18-1.74,17.25,17.25,0,0,1,3.43-.8,17.85,17.85,0,0,1,3.43-.1,11.23,11.23,0,0,1,5.81,1.79q.08-1,.2-1.91a1,1,0,0,1,.41-.66,1,1,0,0,1,.76-.17.93.93,0,0,1,.66.39A1.11,1.11,0,0,1,157,137.45Zm-2.46,4.17q-1.75-2.07-5.73-2.34a14.45,14.45,0,0,0-6.2.86,7.66,7.66,0,0,0-4.25,3.51,14,14,0,0,0-1.56,7.18q.35,4.13,3.59,5.15a5.77,5.77,0,0,0,1,.25l.94.16a9.86,9.86,0,0,0,1.13.08l1,0h2.26q5.15,0,7.21-2.81a.91.91,0,0,1,.66-.41,1,1,0,0,1,.74.18h0q0-1.52-.12-3.55-.08-.86-.2-2.53t-.2-3q-.08-1.37-.12-2.54Z"/><path class="cls-3" d="M160.93,151.77l-.08-2h.43a6,6,0,0,1,0-1,14.93,14.93,0,0,1,2.42-8,8.32,8.32,0,0,1,7.6-3.78q6.36.12,8.89,3.82,2.18,3.24,1.56,9.56a1,1,0,0,1-.37.66,1,1,0,0,1-.76.23l-.12,0-16.93.43a6.89,6.89,0,0,0,2,3.55,5.59,5.59,0,0,0,2.38,1.36,17.92,17.92,0,0,0,3.35.47,10.28,10.28,0,0,0,3.63-.35A10.06,10.06,0,0,0,178,155a.92.92,0,0,1,.72-.23,1,1,0,0,1,.68.37,1,1,0,0,1,.23.74,1,1,0,0,1-.39.68,11.26,11.26,0,0,1-3.74,2.13,12.71,12.71,0,0,1-4.33.45,19.44,19.44,0,0,1-4-.58,7,7,0,0,1-3.08-1.79,9.24,9.24,0,0,1-2.61-5Zm2.38-2.11,16.5-.39q.35-4.87-1.29-7.29-1.91-2.85-7.22-2.92a6.38,6.38,0,0,0-5.89,2.85,12.82,12.82,0,0,0-2.11,6.94A4.25,4.25,0,0,0,163.31,149.66Z"/><path class="cls-3" d="M200.87,141.63a5.3,5.3,0,0,0-2.09-3.47,7.23,7.23,0,0,0-4.06-1.46,6.47,6.47,0,0,0-4.08,1,4.91,4.91,0,0,0-2.18,3.35q-.47,2.34.59,3.28a7.76,7.76,0,0,0,3.35,1.17,9.32,9.32,0,0,1,1,.14q.8.14,1.09.21l1.07.25a6.61,6.61,0,0,1,1.13.33l1.05.47a3.67,3.67,0,0,1,1.05.62l.82.78a3.76,3.76,0,0,1,.78,1,9.14,9.14,0,0,1,.55,1.25,5.1,5.1,0,0,1-.14,3.71,6.41,6.41,0,0,1-2.44,2.81,8.28,8.28,0,0,1-3.39,1.36,8.12,8.12,0,0,1-3.63-.19,5.79,5.79,0,0,1-.58-.25,2.7,2.7,0,0,1-.55-.37l-.43-.35a3.4,3.4,0,0,1-.41-.39c-.17-.18-.27-.27-.29-.27a1,1,0,0,1-.31-.72,1,1,0,0,1,.29-.72.93.93,0,0,1,.7-.31,1.06,1.06,0,0,1,.72.27l.35.35.31.31.25.21a1.83,1.83,0,0,0,.29.2,1.29,1.29,0,0,0,.27.1,5.46,5.46,0,0,0,2.65.14,7.1,7.1,0,0,0,2.65-1q2.53-1.72,1.72-4.21a4.53,4.53,0,0,0-.53-1.13,3.1,3.1,0,0,0-.84-.86,10.6,10.6,0,0,0-.94-.59,5.89,5.89,0,0,0-1.23-.45q-.8-.21-1.31-.31l-1.48-.25-.58-.12a8.9,8.9,0,0,1-4.33-1.64q-2-1.68-1.29-5.19a6.83,6.83,0,0,1,3-4.66,8.84,8.84,0,0,1,5.34-1.38,9.66,9.66,0,0,1,5.25,1.93,7.18,7.18,0,0,1,2.83,4.74,1.11,1.11,0,0,1-.2.74.9.9,0,0,1-.64.41,1.06,1.06,0,0,1-.76-.18A1,1,0,0,1,200.87,141.63Z"/></svg>