<svg id="Layer_1" data-name="Layer 1" xmlns="http://www.w3.org/2000/svg" viewBox="0 0 245 206"><defs><style>.cls-1{fill:#f472bb;stroke:#000;stroke-miterlimit:10;stroke-width:7px;}.cls-2{fill:#fff;}</style></defs><title>you are</title><rect class="cls-1" x="2.87" y="0.9" width="245" height="206"/><path d="M50.12,90.91q-.2.78-.35,1.68a14.37,14.37,0,0,0-.2,1.5q0,.61-.14,1.74t-.14,1.72a20.83,20.83,0,0,0,.23,6.4,8.37,8.37,0,0,0,2.85,4.56,4,4,0,0,0,3.55,1q3.51-.66,5-5a35.35,35.35,0,0,0,1.29-8.19q.19-3,.23-4.45V91.8a1.4,1.4,0,0,1-.08-.35A1.33,1.33,0,0,1,63,89.93a1,1,0,0,1,.94,0,1.26,1.26,0,0,1,.43.39,1.53,1.53,0,0,1,.12.31.73.73,0,0,0,0,.23v2.22q0,4.06-.12,6.43-.27,5.54-.12,10.65c0,.08,0,.51.1,1.31a16.55,16.55,0,0,1,.06,2,6.22,6.22,0,0,1-.27,1.6,5.74,5.74,0,0,1-1.74,2.54,7.21,7.21,0,0,1-2.71,1.48,5.44,5.44,0,0,1-3,.16,4.9,4.9,0,0,1-2.73-1.6,1,1,0,0,1-.23-.74,1,1,0,0,1,.35-.7,1,1,0,0,1,.74-.23,1,1,0,0,1,.7.35,3.17,3.17,0,0,0,3.63.82,5,5,0,0,0,1.93-1,3.8,3.8,0,0,0,1.37-2.81,13,13,0,0,0-.08-1.6q-.1-1-.1-1.5l-.08-3.51a8,8,0,0,1-5.85,4.76,6.59,6.59,0,0,1-5.27-1.44,11.85,11.85,0,0,1-2.36-2.85,9.67,9.67,0,0,1-1.21-3.12,22,22,0,0,1-.35-3.32,22.31,22.31,0,0,1,.14-3.39q0-.51.12-1.64l.16-1.87q.08-.66.23-1.66a17,17,0,0,1,.39-1.85,1,1,0,0,1,.47-.6.92.92,0,0,1,.76-.1,1,1,0,0,1,.62.47A1,1,0,0,1,50.12,90.91Z"/><path d="M87.83,90.67a.89.89,0,0,1,.31.16,7.77,7.77,0,0,1,1.17,1.29A11.64,11.64,0,0,1,90,93.21q.21.39.68,1.4a13.26,13.26,0,0,1,1.13,4.88,12.6,12.6,0,0,1-.74,5,10.06,10.06,0,0,1-2.89,4.17,8.82,8.82,0,0,1-4.8,2,21.88,21.88,0,0,1-4.17-.12,11.48,11.48,0,0,1-7.45-3.31,10.71,10.71,0,0,1-3.16-7.61,13.11,13.11,0,0,1,.9-4.87,11.55,11.55,0,0,1,2.38-3.8,11.15,11.15,0,0,1,3.45-2.44,11,11,0,0,1,4.08-1,11.3,11.3,0,0,1,4.31.68A11.89,11.89,0,0,1,87.83,90.67ZM87.28,93a11.17,11.17,0,0,0-3.43-2.55,9.11,9.11,0,0,0-3.69-.92,8.88,8.88,0,0,0-3.55.66,9,9,0,0,0-5.15,5.19,11.1,11.1,0,0,0-.8,4.25,8.73,8.73,0,0,0,2.61,6.2,9.47,9.47,0,0,0,6.2,2.69,17.38,17.38,0,0,0,3.71.12,7,7,0,0,0,3.74-1.56,7.71,7.71,0,0,0,2.26-3.31,11.07,11.07,0,0,0,.62-4.17,10.22,10.22,0,0,0-1-4.09,15.39,15.39,0,0,0-1.21-2.26A1,1,0,0,1,87.28,93Z"/><path d="M98.79,90.21q-.08.43-.33,1.66t-.33,1.74l-.31,1.52q-.2,1.05-.25,1.7t-.12,1.52a12,12,0,0,0,0,1.68q.06.8.18,1.58a11,11,0,0,0,.76,2.75,6.2,6.2,0,0,0,1.38,2.13,8.06,8.06,0,0,0,4.86,2.09,7,7,0,0,0,5-1.11,8.86,8.86,0,0,0,2.36-3,17.81,17.81,0,0,0,1.58-4.43,17.33,17.33,0,0,0,.37-4.66,10.62,10.62,0,0,0-.84-3.8.91.91,0,0,1-.06-.76,1,1,0,0,1,.51-.58,1,1,0,0,1,.78,0,.88.88,0,0,1,.57.53A11.45,11.45,0,0,1,116,95.28a21.18,21.18,0,0,1-2.2,10.22,10.26,10.26,0,0,1-3,3.59,9.15,9.15,0,0,1-6.4,1.48,10,10,0,0,1-6-2.61,8.05,8.05,0,0,1-1.79-2.73,14.93,14.93,0,0,1-1-3.31,17,17,0,0,1-.18-2.2q0-1.15,0-1.93t.25-2.16q.21-1.38.33-1.85l.39-2.07q.35-1.64.43-1.87a1,1,0,0,1,.43-.66A.93.93,0,0,1,98,89a1,1,0,0,1,.64.45A.84.84,0,0,1,98.79,90.21Z"/><path class="cls-2" d="M150.27,106.35a10.7,10.7,0,0,1-3.67,2.87,15.49,15.49,0,0,1-4.8,1.5,14.3,14.3,0,0,1-3.94,0,8.18,8.18,0,0,1-3.51-1.4,6,6,0,0,1-2.3-3,3.21,3.21,0,0,1-.25-1c0-.39-.06-.7-.06-.94s0-.57,0-1,0-.67,0-.72v-.43q0-1.6.1-2.5a12.65,12.65,0,0,1,.43-2.3,9.24,9.24,0,0,1,1.07-2.54,13,13,0,0,1,3.71-3.8,14,14,0,0,1,5-2.2,9.31,9.31,0,0,1,8.27,1.72,1,1,0,0,1,.86-.16,1.25,1.25,0,0,1,.7.51c.05.1.1.22.15.35s.1.4.16.66.09.9.12,1.6,0,1.37,0,2.3a17.52,17.52,0,0,1,0,5q0,1.48,0,2,0,4.6.16,6.67a1,1,0,0,1-.23.74,1,1,0,0,1-.7.35,1,1,0,0,1-.74-.23,1,1,0,0,1-.35-.7Q150.31,108.15,150.27,106.35Zm0-10.33q-.2-1.33-.31-2.46l-.08-.47a6.42,6.42,0,0,0-3.31-2.16,8.67,8.67,0,0,0-4.13-.06,12.18,12.18,0,0,0-4.21,1.87A11,11,0,0,0,135.1,96a7.27,7.27,0,0,0-.88,2.15,11.11,11.11,0,0,0-.33,2q0,.78-.08,2.53c0,.21,0,.5,0,.88s0,.65,0,.82,0,.38,0,.62a3.68,3.68,0,0,0,.12.64,4.52,4.52,0,0,0,2.77,2.67,9.57,9.57,0,0,0,4.84.41,12.48,12.48,0,0,0,4.91-1.7,6.91,6.91,0,0,0,3-3.1,13.83,13.83,0,0,0,.9-3.24q0-2.93,0-4.56Z"/><path class="cls-2" d="M158.38,90.87l2-.08.12,3.71a8.5,8.5,0,0,1,4.25-3.43,5.19,5.19,0,0,1,4.09.2,7,7,0,0,1,3.24,3.82,1,1,0,0,1,0,.78.94.94,0,0,1-.55.55,1,1,0,0,1-.78,0,.94.94,0,0,1-.55-.55A5.11,5.11,0,0,0,168,93.09a3.16,3.16,0,0,0-2.54-.12,6.62,6.62,0,0,0-2.65,1.91,8.06,8.06,0,0,0-1.75,3.2.84.84,0,0,1-.39.55l.39,12-2,.08Z"/><path class="cls-2" d="M175.77,104.17l-.08-2h.43a6,6,0,0,1,0-1,14.93,14.93,0,0,1,2.42-8,8.32,8.32,0,0,1,7.6-3.78q6.36.12,8.89,3.82,2.18,3.24,1.56,9.55a1,1,0,0,1-.37.66,1,1,0,0,1-.76.23l-.12,0-16.93.43a6.89,6.89,0,0,0,2,3.55,5.59,5.59,0,0,0,2.38,1.37,17.93,17.93,0,0,0,3.35.47,10.31,10.31,0,0,0,3.63-.35,10.1,10.1,0,0,0,3.12-1.75.93.93,0,0,1,.72-.23,1,1,0,0,1,.92,1.11,1,1,0,0,1-.39.68,11.28,11.28,0,0,1-3.74,2.13,12.73,12.73,0,0,1-4.33.45,19.5,19.5,0,0,1-4-.58,7,7,0,0,1-3.08-1.79,9.24,9.24,0,0,1-2.61-5Zm2.38-2.11,16.5-.39q.35-4.87-1.29-7.29-1.91-2.85-7.22-2.92a6.38,6.38,0,0,0-5.89,2.85,12.83,12.83,0,0,0-2.11,6.94A4.24,4.24,0,0,0,178.15,102.06Z"/></svg>