<svg id="Layer_1" data-name="Layer 1" xmlns="http://www.w3.org/2000/svg" viewBox="0 0 245 206"><defs><style>.cls-1{fill:#f14183;stroke:#000;stroke-miterlimit:10;stroke-width:7px;}.cls-2{fill:#fff;}</style></defs><title>you want</title><rect class="cls-1" x="2.87" y="0.9" width="245" height="206"/><path d="M38,92.16q-.2.78-.35,1.68a14.35,14.35,0,0,0-.2,1.5q0,.6-.14,1.74t-.14,1.72a20.83,20.83,0,0,0,.23,6.4,8.37,8.37,0,0,0,2.85,4.56,4,4,0,0,0,3.55,1q3.51-.66,5-5A35.36,35.36,0,0,0,50,97.58q.19-3,.23-4.45v-.08a1.4,1.4,0,0,1-.08-.35,1.33,1.33,0,0,1,.66-1.52,1,1,0,0,1,.94,0,1.25,1.25,0,0,1,.43.39,1.56,1.56,0,0,1,.12.31.73.73,0,0,0,0,.23v2.22q0,4.06-.12,6.43-.27,5.54-.12,10.65,0,.12.1,1.31a16.55,16.55,0,0,1,.06,2,6.22,6.22,0,0,1-.27,1.6,5.74,5.74,0,0,1-1.74,2.54,7.21,7.21,0,0,1-2.71,1.48,5.46,5.46,0,0,1-3,.16,4.9,4.9,0,0,1-2.73-1.6,1,1,0,0,1-.23-.74,1,1,0,0,1,.35-.7,1,1,0,0,1,.74-.23,1,1,0,0,1,.7.35,3.17,3.17,0,0,0,3.63.82,5.06,5.06,0,0,0,1.93-1,3.81,3.81,0,0,0,1.37-2.81,13,13,0,0,0-.08-1.6q-.1-1-.1-1.5L50,108a8,8,0,0,1-5.85,4.76,6.59,6.59,0,0,1-5.27-1.44,11.85,11.85,0,0,1-2.36-2.85,9.66,9.66,0,0,1-1.21-3.12A22,22,0,0,1,35,102a22.31,22.31,0,0,1,.14-3.39q0-.51.12-1.64l.16-1.87q.08-.66.23-1.66A17,17,0,0,1,36,91.61a1,1,0,0,1,.47-.6.92.92,0,0,1,.76-.1,1,1,0,0,1,.62.47A1,1,0,0,1,38,92.16Z"/><path d="M75.71,91.92a.87.87,0,0,1,.31.16,7.85,7.85,0,0,1,1.17,1.29,11.77,11.77,0,0,1,.72,1.09q.21.39.68,1.4a13.26,13.26,0,0,1,1.13,4.88,12.61,12.61,0,0,1-.74,5,10.06,10.06,0,0,1-2.89,4.17,8.83,8.83,0,0,1-4.8,2,21.88,21.88,0,0,1-4.17-.12,11.49,11.49,0,0,1-7.45-3.32,10.71,10.71,0,0,1-3.16-7.6,13.1,13.1,0,0,1,.9-4.88,11.54,11.54,0,0,1,2.38-3.8,11.18,11.18,0,0,1,3.45-2.44,11,11,0,0,1,4.08-1,11.28,11.28,0,0,1,4.31.68A11.88,11.88,0,0,1,75.71,91.92Zm-.55,2.3a11.15,11.15,0,0,0-3.43-2.55A9.12,9.12,0,0,0,68,90.75a8.88,8.88,0,0,0-3.55.66,9,9,0,0,0-5.15,5.19,11.09,11.09,0,0,0-.8,4.25,8.73,8.73,0,0,0,2.61,6.2,9.47,9.47,0,0,0,6.2,2.69,17.25,17.25,0,0,0,3.71.12,7,7,0,0,0,3.74-1.56A7.72,7.72,0,0,0,77.07,105a11.07,11.07,0,0,0,.62-4.17,10.21,10.21,0,0,0-1-4.09,15.41,15.41,0,0,0-1.21-2.26A1,1,0,0,1,75.16,94.22Z"/><path d="M86.67,91.45q-.08.43-.33,1.66T86,94.85l-.31,1.52q-.2,1.05-.25,1.7t-.12,1.52a12,12,0,0,0,0,1.68q.06.8.18,1.58a11,11,0,0,0,.76,2.75,6.2,6.2,0,0,0,1.38,2.13,8.06,8.06,0,0,0,4.86,2.09,7,7,0,0,0,5-1.11,8.86,8.86,0,0,0,2.36-3,17.82,17.82,0,0,0,1.58-4.43,17.33,17.33,0,0,0,.37-4.66,10.62,10.62,0,0,0-.84-3.8.91.91,0,0,1-.06-.76,1,1,0,0,1,.51-.58,1,1,0,0,1,.78,0,.88.88,0,0,1,.57.53,11.46,11.46,0,0,1,1.07,4.56,21.17,21.17,0,0,1-2.2,10.22,10.25,10.25,0,0,1-3,3.59,9.15,9.15,0,0,1-6.4,1.48,10,10,0,0,1-6-2.61,8,8,0,0,1-1.79-2.73,15,15,0,0,1-1-3.32,17,17,0,0,1-.18-2.2q0-1.15,0-1.93t.25-2.17q.21-1.38.33-1.85l.39-2.07q.35-1.64.43-1.87a1,1,0,0,1,.43-.66.93.93,0,0,1,.76-.14,1,1,0,0,1,.64.45A.84.84,0,0,1,86.67,91.45Z"/><path class="cls-2" d="M124.89,92.9q-.08.19-.53,1.6t-.64,2.11l-.55,2q-.35,1.29-.55,2.38a19.29,19.29,0,0,0-.27,2.11,9.62,9.62,0,0,0,.55,4.64,4.41,4.41,0,0,0,3.08,2.46,7.29,7.29,0,0,0,2.93.27q2.22-.39,3.74-4.52a29.08,29.08,0,0,0,1.44-6.24c0-.49,0-.84,0-1.05s.05-.75.16-1.72v-.43q0-1.83.08-2.57v-.12c0-.26-.05-.39-.08-.39a3.05,3.05,0,0,1,.08-.74,1.13,1.13,0,0,1,.51-.58,1.32,1.32,0,0,1,.78-.16,1.08,1.08,0,0,1,.86.74l.08.39v.7q0,.62-.12,1.83c-.05.34-.1.82-.16,1.44q0,1.25-.12,2.11c0,.23-.05.48-.08.74q-.16,2.69-.16,4.17a24.17,24.17,0,0,0,.19,2.77,2.94,2.94,0,0,0,.51,1.44,5.26,5.26,0,0,0,2.65,1.33q6.24,1.48,8.81-4.25a15.46,15.46,0,0,0,1.19-5.75,17.1,17.1,0,0,0-.76-5.87,1.06,1.06,0,0,1,.08-.8,1,1,0,0,1,.61-.49,1,1,0,0,1,.78.08,1,1,0,0,1,.49.58,19.21,19.21,0,0,1,.82,6.55,17.49,17.49,0,0,1-1.37,6.51,9.76,9.76,0,0,1-4.25,4.82,9.37,9.37,0,0,1-6.87.57,7.19,7.19,0,0,1-3.67-1.87,4.77,4.77,0,0,1-1-2.22q-1.87,4.49-5,5a9.33,9.33,0,0,1-3.71-.35,6.29,6.29,0,0,1-4.45-3.59,11.23,11.23,0,0,1-.74-5.62q.12-1.13.31-2.3t.55-2.54L121.8,96q.19-.74.64-2.15t.49-1.6a1,1,0,0,1,.49-.58,1,1,0,0,1,.78-.08,1,1,0,0,1,.6.49A1.06,1.06,0,0,1,124.89,92.9Z"/><path class="cls-2" d="M173.95,107.6a10.69,10.69,0,0,1-3.67,2.87,15.48,15.48,0,0,1-4.8,1.5,14.29,14.29,0,0,1-3.94,0,8.2,8.2,0,0,1-3.51-1.4,6,6,0,0,1-2.3-3,3.23,3.23,0,0,1-.25-1c0-.39-.06-.7-.06-.94s0-.57,0-1,0-.67,0-.72v-.43q0-1.6.1-2.5a12.6,12.6,0,0,1,.43-2.3,9.23,9.23,0,0,1,1.07-2.53,13,13,0,0,1,3.71-3.8,14.06,14.06,0,0,1,5-2.2A9.31,9.31,0,0,1,174,91.84a1,1,0,0,1,.86-.16,1.24,1.24,0,0,1,.7.51c.05.1.1.22.16.35s.1.4.16.66.09.9.12,1.6,0,1.37,0,2.3a17.6,17.6,0,0,1,0,5q0,1.48,0,2,0,4.6.16,6.67a1,1,0,0,1-.23.74,1,1,0,0,1-.7.35,1,1,0,0,1-.74-.23,1,1,0,0,1-.35-.7Q174,109.39,173.95,107.6Zm0-10.33q-.19-1.33-.31-2.46l-.08-.47a6.42,6.42,0,0,0-3.32-2.17,8.7,8.7,0,0,0-4.13-.06A12.2,12.2,0,0,0,161.94,94a11,11,0,0,0-3.16,3.24,7.21,7.21,0,0,0-.88,2.14,11.14,11.14,0,0,0-.33,2q0,.78-.08,2.54c0,.21,0,.5,0,.88s0,.65,0,.82a6,6,0,0,0,0,.62,3.68,3.68,0,0,0,.12.64,4.52,4.52,0,0,0,2.77,2.67,9.59,9.59,0,0,0,4.84.41,12.51,12.51,0,0,0,4.91-1.7,6.92,6.92,0,0,0,3-3.1,13.8,13.8,0,0,0,.9-3.24q0-2.93,0-4.56Z"/><path class="cls-2" d="M180.77,91.06l2-.08.12,2.54a11.38,11.38,0,0,1,5.69-3.9,14.36,14.36,0,0,1,3.24-.55,6.67,6.67,0,0,1,3.16.64,6.55,6.55,0,0,1,2.61,2.2,13.06,13.06,0,0,1,1.74,3.22,16.9,16.9,0,0,1,.88,3.22,20.5,20.5,0,0,1,.21,3.39,32.39,32.39,0,0,1-.17,3.28l-.39,3.32q-.23,2-.31,3.16a1,1,0,0,1-.35.7,1,1,0,0,1-.74.23,1,1,0,0,1-.7-.35.94.94,0,0,1-.23-.74q.12-1.44.35-3.35l.31-3.28q.16-1.25.2-3a18.18,18.18,0,0,0-.16-3,13.44,13.44,0,0,0-.76-2.79,12.7,12.7,0,0,0-1.5-2.81,4.59,4.59,0,0,0-2.91-1.87,7,7,0,0,0-3.84.31,10,10,0,0,0-3.59,2,6.77,6.77,0,0,0-2.07,3,1,1,0,0,1-.47.55l.78,14.59-2,.08Z"/><path class="cls-2" d="M204.45,103.5l-.23-2,3.86-.47-.62-16.61,2-.08.62,16.46,4.25-.51.23,2-4.41.51.35,9.13-2,.08-.35-9Z"/></svg>