<svg id="Layer_1" data-name="Layer 1" xmlns="http://www.w3.org/2000/svg" viewBox="0 0 245 206"><defs><style>.cls-1{fill:#f14183;stroke:#000;stroke-miterlimit:10;stroke-width:7px;}.cls-2{fill:#fff;}</style></defs><title>you want_1</title><rect class="cls-1" x="2.87" y="0.9" width="245" height="206"/><path d="M67.15,68.16q-.19.78-.35,1.68a14.22,14.22,0,0,0-.2,1.5q0,.6-.14,1.74c-.06.75-.11,1.33-.14,1.72a20.85,20.85,0,0,0,.23,6.4,8.37,8.37,0,0,0,2.85,4.56,4,4,0,0,0,3.55,1q3.51-.66,5-5a35.39,35.39,0,0,0,1.29-8.19q.19-3,.23-4.45v-.08a1.42,1.42,0,0,1-.08-.35A1.33,1.33,0,0,1,80,67.18a1,1,0,0,1,.94,0,1.25,1.25,0,0,1,.43.39,1.59,1.59,0,0,1,.12.31.7.7,0,0,0,0,.23v2.22q0,4.06-.12,6.43-.27,5.54-.12,10.65,0,.12.1,1.31a16.66,16.66,0,0,1,.06,2,6.24,6.24,0,0,1-.27,1.6,5.73,5.73,0,0,1-1.74,2.54,7.22,7.22,0,0,1-2.71,1.48,5.46,5.46,0,0,1-3,.16A4.9,4.9,0,0,1,71,94.95a.94.94,0,0,1-.23-.74,1,1,0,0,1,.35-.7,1,1,0,0,1,.74-.23,1,1,0,0,1,.7.35,3.17,3.17,0,0,0,3.63.82,5.06,5.06,0,0,0,1.93-1,3.8,3.8,0,0,0,1.37-2.81,12.88,12.88,0,0,0-.08-1.6c-.07-.66-.1-1.16-.1-1.5L79.2,84a8,8,0,0,1-5.85,4.76,6.44,6.44,0,0,1-2.81-.16,6.37,6.37,0,0,1-2.46-1.29,11.82,11.82,0,0,1-2.36-2.85,9.65,9.65,0,0,1-1.21-3.12A21.93,21.93,0,0,1,64.16,78a22.25,22.25,0,0,1,.14-3.39q0-.51.12-1.64l.16-1.87q.08-.66.23-1.66a17,17,0,0,1,.39-1.85,1,1,0,0,1,.47-.6.92.92,0,0,1,.76-.1,1,1,0,0,1,.63.47A1,1,0,0,1,67.15,68.16Z"/><path d="M104.86,67.92a.87.87,0,0,1,.31.16,7.87,7.87,0,0,1,1.17,1.29,11.87,11.87,0,0,1,.72,1.09q.21.39.68,1.4a13.26,13.26,0,0,1,1.13,4.88,12.62,12.62,0,0,1-.74,5,10.06,10.06,0,0,1-2.89,4.17,8.83,8.83,0,0,1-4.8,2,21.89,21.89,0,0,1-4.17-.12,11.49,11.49,0,0,1-7.45-3.32,10.7,10.7,0,0,1-3.16-7.6,13.11,13.11,0,0,1,.9-4.87,11.54,11.54,0,0,1,2.38-3.8,11.19,11.19,0,0,1,3.45-2.44,11,11,0,0,1,4.08-1,11.28,11.28,0,0,1,4.31.68A11.87,11.87,0,0,1,104.86,67.92Zm-.54,2.3a11.17,11.17,0,0,0-3.43-2.55,9.12,9.12,0,0,0-3.69-.92,8.88,8.88,0,0,0-3.55.66A9,9,0,0,0,88.5,72.6a11.09,11.09,0,0,0-.8,4.25,8.73,8.73,0,0,0,2.61,6.2,9.47,9.47,0,0,0,6.2,2.69,17.25,17.25,0,0,0,3.71.12A7,7,0,0,0,104,84.3,7.72,7.72,0,0,0,106.23,81a11.07,11.07,0,0,0,.63-4.17,10.21,10.21,0,0,0-1-4.09,15.36,15.36,0,0,0-1.21-2.26A1,1,0,0,1,104.31,70.22Z"/><path d="M115.82,67.45c-.05.29-.16.84-.33,1.66s-.28,1.4-.33,1.74l-.31,1.52q-.2,1.05-.25,1.7t-.12,1.52a12,12,0,0,0,0,1.68q.06.8.18,1.58a11,11,0,0,0,.76,2.75,6.22,6.22,0,0,0,1.38,2.13,8.06,8.06,0,0,0,4.86,2.09,7,7,0,0,0,5-1.11,8.85,8.85,0,0,0,2.36-3,17.82,17.82,0,0,0,1.58-4.43,17.33,17.33,0,0,0,.37-4.66,10.59,10.59,0,0,0-.84-3.8.91.91,0,0,1-.06-.76,1,1,0,0,1,.51-.58,1,1,0,0,1,.78,0,.88.88,0,0,1,.57.53A11.48,11.48,0,0,1,133,72.52a21.2,21.2,0,0,1-2.2,10.22,10.27,10.27,0,0,1-3,3.59,9.15,9.15,0,0,1-6.4,1.48,10,10,0,0,1-6-2.61,8,8,0,0,1-1.79-2.73,14.9,14.9,0,0,1-1-3.32,16.7,16.7,0,0,1-.17-2.2q0-1.15,0-1.93t.25-2.17q.21-1.38.33-1.85l.39-2.07q.35-1.64.43-1.87a1,1,0,0,1,.43-.66.93.93,0,0,1,.76-.14,1,1,0,0,1,.64.45A.84.84,0,0,1,115.82,67.45Z"/><path d="M167.3,83.6a10.68,10.68,0,0,1-3.67,2.87,15.47,15.47,0,0,1-4.8,1.5,14.29,14.29,0,0,1-3.94,0,8.21,8.21,0,0,1-3.51-1.4,6,6,0,0,1-2.3-3,3.25,3.25,0,0,1-.25-1c0-.39-.06-.7-.06-.94s0-.57,0-1,0-.67,0-.72v-.43q0-1.6.1-2.5a12.6,12.6,0,0,1,.43-2.3,9.26,9.26,0,0,1,1.07-2.53,13,13,0,0,1,3.71-3.8,14.07,14.07,0,0,1,5-2.2,9.31,9.31,0,0,1,8.27,1.72,1,1,0,0,1,.86-.16,1.24,1.24,0,0,1,.7.51c.05.1.1.22.16.35s.1.4.16.66.09.9.12,1.6,0,1.37,0,2.3a17.68,17.68,0,0,1,0,5c0,1,0,1.66,0,2q0,4.6.16,6.67a1,1,0,0,1-.23.74,1,1,0,0,1-.7.35.94.94,0,0,1-.74-.23,1,1,0,0,1-.35-.7Q167.34,85.39,167.3,83.6Zm0-10.33q-.19-1.33-.31-2.46l-.08-.47a6.42,6.42,0,0,0-3.32-2.17,8.69,8.69,0,0,0-4.13-.06A12.21,12.21,0,0,0,155.29,70a11,11,0,0,0-3.16,3.24,7.16,7.16,0,0,0-.88,2.14,11.14,11.14,0,0,0-.33,2q0,.78-.08,2.54c0,.21,0,.5,0,.88s0,.65,0,.82a5.75,5.75,0,0,0,0,.62,3.68,3.68,0,0,0,.12.64,4.51,4.51,0,0,0,2.77,2.67,9.59,9.59,0,0,0,4.84.41,12.5,12.5,0,0,0,4.91-1.7,6.92,6.92,0,0,0,3-3.1,13.75,13.75,0,0,0,.9-3.24q0-2.93,0-4.56Z"/><path d="M175,59.3h2l.51,28.43h-2Z"/><path d="M182.94,59.3h2l.51,28.43h-2Z"/><path class="cls-2" d="M82,115.7q-.08.2-.53,1.6t-.64,2.11l-.55,2q-.35,1.29-.55,2.38a19.19,19.19,0,0,0-.27,2.11,9.61,9.61,0,0,0,.55,4.64A4.41,4.41,0,0,0,83.06,133a7.3,7.3,0,0,0,2.93.27q2.22-.39,3.74-4.52a29.07,29.07,0,0,0,1.44-6.24c0-.49,0-.84,0-1.05s.05-.75.16-1.72v-.43q0-1.83.08-2.57v-.12c0-.26-.05-.39-.08-.39a3,3,0,0,1,.08-.74,1.12,1.12,0,0,1,.51-.58,1.32,1.32,0,0,1,.78-.16,1.09,1.09,0,0,1,.86.74l.08.39v.7q0,.62-.12,1.83-.08.51-.16,1.44,0,1.25-.12,2.11c0,.23-.05.48-.08.74q-.16,2.69-.16,4.17a23.91,23.91,0,0,0,.2,2.77,2.93,2.93,0,0,0,.51,1.44,5.26,5.26,0,0,0,2.65,1.33q6.24,1.48,8.81-4.25a15.42,15.42,0,0,0,1.19-5.75,17.13,17.13,0,0,0-.76-5.87,1.06,1.06,0,0,1,.08-.8,1,1,0,0,1,.6-.49,1,1,0,0,1,.78.08,1,1,0,0,1,.49.58,19.19,19.19,0,0,1,.82,6.55A17.52,17.52,0,0,1,107,129a9.77,9.77,0,0,1-4.25,4.82,9.37,9.37,0,0,1-6.86.57,7.2,7.2,0,0,1-3.67-1.87,4.78,4.78,0,0,1-1-2.22q-1.87,4.49-5,5a9.34,9.34,0,0,1-3.71-.35,6.29,6.29,0,0,1-4.45-3.59,11.23,11.23,0,0,1-.74-5.62q.12-1.13.31-2.3t.55-2.54l.62-2.07q.19-.74.64-2.14t.49-1.6a1,1,0,0,1,.49-.58,1,1,0,0,1,.78-.08,1,1,0,0,1,.6.49A1.06,1.06,0,0,1,82,115.7Z"/><path class="cls-2" d="M131,130.4a10.69,10.69,0,0,1-3.67,2.87,15.49,15.49,0,0,1-4.8,1.5,14.29,14.29,0,0,1-3.94,0,8.18,8.18,0,0,1-3.51-1.4,6,6,0,0,1-2.3-3,3.22,3.22,0,0,1-.25-1c0-.39-.06-.7-.06-.94s0-.57,0-1,0-.67,0-.72v-.43q0-1.6.1-2.5a12.72,12.72,0,0,1,.43-2.3,9.3,9.3,0,0,1,1.07-2.54,13,13,0,0,1,3.71-3.8,14.05,14.05,0,0,1,5-2.2,9.31,9.31,0,0,1,8.27,1.72,1,1,0,0,1,.86-.16,1.24,1.24,0,0,1,.7.51c.05.1.1.22.16.35s.1.4.16.66.09.9.12,1.6,0,1.37,0,2.3a17.52,17.52,0,0,1,0,5q0,1.48,0,2,0,4.6.16,6.67a1,1,0,0,1-.23.74,1,1,0,0,1-.7.35,1,1,0,0,1-.74-.23,1,1,0,0,1-.35-.7Q131.07,132.19,131,130.4Zm0-10.33q-.19-1.33-.31-2.46l-.08-.47a6.42,6.42,0,0,0-3.32-2.16,8.67,8.67,0,0,0-4.13-.06,12.18,12.18,0,0,0-4.21,1.87,11,11,0,0,0-3.16,3.24,7.19,7.19,0,0,0-.88,2.15,11.11,11.11,0,0,0-.33,2q0,.78-.08,2.53c0,.21,0,.5,0,.88s0,.65,0,.82,0,.38,0,.62a3.68,3.68,0,0,0,.12.64,4.51,4.51,0,0,0,2.77,2.67,9.57,9.57,0,0,0,4.84.41,12.49,12.49,0,0,0,4.91-1.7,6.91,6.91,0,0,0,3-3.1,13.78,13.78,0,0,0,.9-3.24q0-2.93,0-4.56Z"/><path class="cls-2" d="M137.85,113.86l2-.08.12,2.53a11.37,11.37,0,0,1,5.69-3.9,14.26,14.26,0,0,1,3.24-.55,6.67,6.67,0,0,1,3.16.64,6.57,6.57,0,0,1,2.61,2.2,13,13,0,0,1,1.73,3.22,16.92,16.92,0,0,1,.88,3.22,20.53,20.53,0,0,1,.21,3.39,32.14,32.14,0,0,1-.17,3.28l-.39,3.31q-.23,2-.31,3.16a1,1,0,0,1-.35.7,1,1,0,0,1-.74.23,1,1,0,0,1-.7-.35.94.94,0,0,1-.23-.74q.12-1.44.35-3.35l.31-3.28a29.86,29.86,0,0,0,.2-3,18.07,18.07,0,0,0-.16-3,13.38,13.38,0,0,0-.76-2.79,12.7,12.7,0,0,0-1.5-2.81,4.59,4.59,0,0,0-2.9-1.87,7,7,0,0,0-3.84.31,10,10,0,0,0-3.59,2,6.77,6.77,0,0,0-2.07,3,1,1,0,0,1-.47.55l.78,14.59-2,.08Z"/><path class="cls-2" d="M161.53,126.3l-.23-2,3.86-.47-.62-16.61,2-.08.62,16.46,4.25-.51.23,2-4.41.51.35,9.13-2,.08-.35-9Z"/></svg>